<?xml version="1.0" standalone="no"?>
<!DOCTYPE svg PUBLIC "-//W3C//DTD SVG 1.1//EN" "http://www.w3.org/Graphics/SVG/1.1/DTD/svg11.dtd" >
<svg xmlns="http://www.w3.org/2000/svg" xmlns:xlink="http://www.w3.org/1999/xlink" version="1.1">
<metadata>
Created by FontForge 20170731 at Sun Dec 10 18:47:18 2023
 By Aleksey,,,
</metadata>
<defs>
<font id="Gazda" horiz-adv-x="1228" >
  <font-face 
    font-family="Gazda Pro Bold"
    font-weight="400"
    font-stretch="normal"
    units-per-em="2048"
    panose-1="0 0 0 0 0 0 0 0 0 0"
    ascent="1616"
    descent="-432"
    x-height="1147"
    cap-height="1434"
    bbox="-246 -573 3959 2081"
    underline-thickness="0"
    underline-position="0"
    unicode-range="U+0020-F2B6"
  />
<missing-glyph 
d="M1188 1434v-1434h-1147v1434h1147zM354 1262l260 -394l260 394h-520zM1016 1174l-301 -457l301 -457v914zM213 1174v-914l301 457zM874 172l-260 393l-260 -393h520z" />
    <glyph glyph-name="uniF008" unicode="ft" horiz-adv-x="1546" 
d="M1475 352l12 15l59 -281q-42 -42 -127 -64t-159 -22q-151 0 -255 103.5t-104 254.5v502h-430v-860h-287v860h-143v287h147q19 201 145 315.5t353 114.5q74 0 143 -16v-289q-62 33 -143 33q-215 0 -215 -158h430v287h287v-287h315v-287h-315v-401q0 -59 33 -97t73 -43
l37 -4q47 0 88 11.5t56 25.5z" />
    <glyph glyph-name="uniF016" unicode="tt" horiz-adv-x="1546" 
d="M1475 352l12 15l59 -281q-42 -42 -127 -64t-159 -22q-151 0 -255 103.5t-104 254.5v502h-430v-401q0 -58 33.5 -96.5t73.5 -43.5l36 -4q47 0 88 11.5t56 25.5l12 15l59 -281q-42 -42 -127 -64t-159 -22q-151 0 -255 103.5t-104 254.5v502h-143v287h143v287h287v-287h430
v287h287v-287h315v-287h-315v-401q0 -59 33 -97t73 -43l37 -4q47 0 88 11.5t56 25.5z" />
    <glyph glyph-name="uniF0DE" unicode="IJ" horiz-adv-x="1157" 
d="M829 573v861h287v-861q0 -118 -45 -224t-121.5 -182.5t-182.5 -121.5t-224 -45q-84 0 -148 20l74 277q45 -10 74 -10q120 0 203 83t83 203zM328 1434v-1434h-287v1434h287z" />
    <glyph glyph-name="uniF1C0" unicode="ij" horiz-adv-x="882" 
d="M313 1313q-51 -51 -123 -51q-69 0 -120 51t-51 120.5t51 120.5q49 52 120 52q74 0 123 -52q49 -51 49 -120.5t-49 -120.5zM813 1313q-51 -51 -121 -51q-67 0 -121 51q-51 51 -51 120.5t51 120.5q52 52 121 52q72 0 121 -52q51 -51 51 -120.5t-51 -120.5zM47 0v1147h287
v-1147h-287zM549 72v1075h287v-1075q0 -209 -146.5 -355.5t-355.5 -146.5q-53 0 -108 17t-83 36l-24 19l63 280q53 -65 152 -65q215 0 215 215z" />
    <glyph glyph-name="uniF2B5" unicode="ffj" horiz-adv-x="1974" 
d="M1882 1313q-51 -51 -121 -51q-67 0 -121 51q-51 51 -51 120.5t51 120.5q52 52 121 52q72 0 121 -52q51 -51 51 -120.5t-51 -120.5zM1188 1147h717v-1075q0 -209 -146.5 -355.5t-355.5 -146.5q-53 0 -108 17t-83 36l-24 19l63 280q53 -65 152 -65q215 0 215 215v788h-430
v-860h-287v860h-430v-860h-287v860h-143v287h147q19 201 145 315.5t353 114.5q71 0 144 -16.5t108 -36.5l35 -19l-86 -272q-72 72 -201 72q-215 0 -215 -158h434q19 201 145 315.5t353 114.5q74 0 143 -16v-289q-62 33 -143 33q-215 0 -215 -158z" />
    <glyph glyph-name="uniF2B6" unicode="fj" horiz-adv-x="1257" 
d="M1165 1313q-51 -51 -121 -51q-66 0 -120 51q-51 51 -51 120.5t51 120.5q52 52 120 52q72 0 121 -52q51 -51 51 -120.5t-51 -120.5zM471 1147h717v-1075q0 -209 -146.5 -355.5t-355.5 -146.5q-53 0 -107.5 16.5t-82.5 36.5l-25 19l64 280q53 -65 151 -65q215 0 215 215
v788h-430v-860h-287v860h-143v287h147q19 201 145 315.5t353 114.5q74 0 143 -16v-289q-62 33 -143 33q-215 0 -215 -158z" />
    <glyph glyph-name="ff.liga" unicode="ff" horiz-adv-x="1689" 
d="M1403 1305q-215 0 -215 -158h358v-287h-358v-860h-287v860h-430v-860h-287v860h-143v287h147q19 201 145 315.5t353 114.5q71 0 144 -16.5t108 -36.5l35 -19l-86 -272q-72 72 -201 72q-215 0 -215 -158h434q19 201 145 315.5t353 114.5q71 0 144 -16.5t108 -36.5l35 -19
l-86 -272q-72 72 -201 72z" />
    <glyph glyph-name="fi.liga" unicode="fi" horiz-adv-x="1257" 
d="M1165 1554q51 -51 51 -120.5t-51 -120.5t-121 -51q-66 0 -120 51q-51 51 -51 120.5t51 120.5q52 52 120 52q72 0 121 -52zM471 1147h717v-1147h-287v860h-430v-860h-287v860h-143v287h147q19 201 145 315.5t353 114.5q74 0 143 -16v-289q-62 33 -143 33q-215 0 -215 -158
z" />
    <glyph glyph-name="ffi.liga" unicode="ffi" horiz-adv-x="1974" 
d="M1882 1313q-51 -51 -121 -51q-67 0 -121 51q-51 51 -51 120.5t51 120.5q52 52 121 52q72 0 121 -52q51 -51 51 -120.5t-51 -120.5zM1188 1147h717v-1147h-287v860h-430v-860h-287v860h-430v-860h-287v860h-143v287h147q19 201 145 315.5t353 114.5q71 0 144 -16.5
t108 -36.5l35 -19l-86 -272q-72 72 -201 72q-215 0 -215 -158h434q19 201 145 315.5t353 114.5q74 0 143 -16v-289q-62 33 -143 33q-215 0 -215 -158z" />
    <glyph glyph-name="fl.liga" unicode="fl" 
d="M471 1147h430v430h287v-1577h-287v860h-430v-860h-287v860h-143v287h147q19 201 145 315.5t353 114.5q74 0 143 -16v-289q-62 33 -143 33q-215 0 -215 -158z" />
    <glyph glyph-name="ffl.liga" unicode="ffl" horiz-adv-x="1945" 
d="M1188 1147h430v430h287v-1577h-287v860h-430v-860h-287v860h-430v-860h-287v860h-143v287h147q19 201 145 315.5t353 114.5q71 0 144 -16.5t108 -36.5l35 -19l-86 -272q-72 72 -201 72q-215 0 -215 -158h434q19 201 145 315.5t353 114.5q74 0 143 -16v-289
q-62 33 -143 33q-215 0 -215 -158z" />
    <glyph glyph-name=".notdef" 
d="M1188 1434v-1434h-1147v1434h1147zM354 1262l260 -394l260 394h-520zM1016 1174l-301 -457l301 -457v914zM213 1174v-914l301 457zM874 172l-260 393l-260 -393h520z" />
    <glyph glyph-name=".null" horiz-adv-x="0" 
 />
    <glyph glyph-name="nonmarkingreturn" horiz-adv-x="682" 
 />
    <glyph glyph-name="space" unicode=" " horiz-adv-x="573" 
 />
    <glyph glyph-name="exclam" unicode="!" horiz-adv-x="634" 
d="M145 1591h344l-28 -1075h-287zM440 293q50 -51 50 -121t-50 -121q-51 -51 -123 -51q-69 0 -120 51t-51 121t51 121q48 51 120 51q75 0 123 -51z" />
    <glyph glyph-name="quotedbl" unicode="&#x22;" horiz-adv-x="1126" 
d="M184 1649h344l-28 -502h-287zM600 1649h344l-29 -502h-286z" />
    <glyph glyph-name="numbersign" unicode="#" horiz-adv-x="1638" 
d="M1413 1147h123v-287h-176l-78 -430h182v-287h-235l-51 -286h-287l51 286h-430l-51 -286h-287l51 286h-123v287h177l77 430h-182v287h236l51 287h287l-52 -287h430l52 287h286zM643 860l-78 -430h430l78 430h-430z" />
    <glyph glyph-name="dollar" unicode="$" 
d="M1188 430q0 -182 -110.5 -289t-319.5 -133v-151h-287v149q-97 7 -206.5 27t-174.5 49l-49 18l115 279q274 -92 458 -92q273 0 273 143q0 28 -22 48.5t-67.5 36t-91 26.5t-118 27.5t-123.5 31.5q-72 20 -126.5 40.5t-113.5 54t-97 74.5t-62.5 101t-24.5 134q0 176 113 284
t317 135v154h287v-150q106 -10 198 -36.5t127 -51.5l33 -20l-115 -264q-201 92 -387 92q-272 0 -272 -143q0 -28 22 -48.5t68 -37t91 -28t118.5 -29t124.5 -32.5q73 -21 125.5 -40.5t112.5 -53.5t97 -73.5t62 -99t25 -132.5z" />
    <glyph glyph-name="percent" unicode="%" horiz-adv-x="2197" 
d="M948 0h-344l645 1434h344zM102 1004q0 180 125 305t305 125q182 0 306.5 -124.5t124.5 -305.5q0 -180 -125.5 -305.5t-305.5 -125.5q-178 0 -304 126t-126 305zM635 1106q-41 41 -103 41q-59 0 -100 -41q-43 -43 -43 -102.5t43 -100.5q43 -43 100 -43q60 0 103 43
q41 41 41 100.5t-41 102.5zM1235 430q0 180 125 305t305 125q181 0 305.5 -124t124.5 -306q0 -180 -125 -305t-305 -125q-179 0 -304.5 126t-125.5 304zM1767 532q-41 41 -102 41q-59 0 -100 -41q-43 -43 -43 -102t43 -100q43 -43 100 -43q59 0 102 43q41 41 41 100t-41 102
z" />
    <glyph glyph-name="ampersand" unicode="&#x26;" horiz-adv-x="1423" 
d="M1114 213l207 -213h-344l-76 70q-152 -70 -326 -70q-64 0 -163 29q-144 37 -227 143.5t-83 257.5q0 186 232 322q-88 166 -88 288q0 164 115.5 279t279.5 115t278.5 -115t114.5 -279q0 -123 -77 -209.5t-230 -164.5q71 -96 195 -240q36 30 69.5 69t48.5 64l13 23
l196 -209q-48 -79 -135 -160zM532 1040q0 -54 54 -159q162 82 162 159q0 47 -30 77t-77 30q-42 0 -75.5 -32t-33.5 -75zM389 430q0 -59 43 -96.5t96 -42.5l47 -4q41 0 99 10q-126 139 -201 242q-84 -53 -84 -109z" />
    <glyph glyph-name="quotesingle" unicode="'" horiz-adv-x="716" 
d="M186 1649h344l-28 -502h-287z" />
    <glyph glyph-name="parenleft" unicode="(" horiz-adv-x="727" 
d="M602 -516l-280 -57l-37 118q-157 500 -157 1028.5t157 1028.5l37 118l280 -55q-176 -533 -176 -1092q0 -556 176 -1089z" />
    <glyph glyph-name="parenright" unicode=")" horiz-adv-x="727" 
d="M127 1665l283 55l36 -118q155 -499 155 -1028.5t-155 -1028.5l-36 -118l-283 57q176 533 176 1089q0 559 -176 1092z" />
    <glyph glyph-name="asterisk" unicode="*" horiz-adv-x="1249" 
d="M743 1479l226 73l73 -225l-225 -74l139 -192l-192 -139l-139 192l-140 -192l-192 139l139 192l-225 74l74 225l225 -73v237h237v-237z" />
    <glyph glyph-name="plus" unicode="+" horiz-adv-x="1249" 
d="M768 1219v-359h358v-287h-358v-358h-287v358h-358v287h358v359h287z" />
    <glyph glyph-name="comma" unicode="," horiz-adv-x="716" 
d="M186 172q0 72 50 122t122 50q71 0 121.5 -50t50.5 -122q0 -88 -31 -169.5t-79 -135.5q-98 -106 -172 -137l-33 -17l-82 121q54 25 114 73.5t81 94.5q-61 10 -101.5 58.5t-40.5 111.5z" />
    <glyph glyph-name="hyphen" unicode="-" horiz-adv-x="1249" 
d="M266 430v287h717v-287h-717z" />
    <glyph glyph-name="period" unicode="." horiz-adv-x="716" 
d="M481 293q49 -51 49 -121t-49 -121q-51 -51 -123 -51q-69 0 -120 51t-51 121t51 121q48 51 120 51q75 0 123 -51z" />
    <glyph glyph-name="slash" unicode="/" horiz-adv-x="1157" 
d="M829 1720h287l-788 -2293h-287z" />
    <glyph glyph-name="zero" unicode="0" horiz-adv-x="1157" 
d="M580 1434q94 0 171.5 -20.5t132.5 -56t96.5 -89t67 -113t41 -134.5t21.5 -147t6 -157t-6 -157t-21.5 -147t-41 -134.5t-67 -113t-96.5 -89t-132.5 -56t-171.5 -20.5q-319 0 -435 213q-56 101 -80 221t-24 283t24 283.5t80 222.5q117 211 435 211zM580 287
q130 0 189.5 104.5t59.5 325.5t-59.5 325.5t-189.5 104.5q-252 0 -252 -430t252 -430z" />
    <glyph glyph-name="one" unicode="1" horiz-adv-x="727" 
d="M397 1411l2 23h287v-1434h-287v977q-200 -31 -358 -31v273q96 0 172 21.5t111 55.5q70 63 73 115z" />
    <glyph glyph-name="two" unicode="2" horiz-adv-x="1157" 
d="M1116 897q0 -78 -29 -148.5t-84 -129.5t-107 -101t-126 -90l-60 -37.5t-55 -35t-40.5 -27t-31.5 -24.5t-12 -17h545v-287h-1075v143q0 183 274 363q76 49 228 143q272 165 272 283q0 97 -57.5 156t-149.5 59q-204 0 -293 -262l-274 84q30 223 173 344t366 121
q246 0 391 -145.5t145 -391.5z" />
    <glyph glyph-name="three" unicode="3" horiz-adv-x="1157" 
d="M113 1147v287h1003v-144l-248 -356q116 -63 182 -174.5t66 -257.5q0 -232 -150.5 -367t-385.5 -135q-211 0 -356.5 128.5t-182.5 338.5l274 82q89 -262 279 -262q97 0 166 60t69 155q0 93 -64.5 153.5t-174.5 61.5h-103l-69 67l254 363h-559z" />
    <glyph glyph-name="four" unicode="4" horiz-adv-x="1157" 
d="M973 860v-287h143v-286h-143v-287h-287v287h-645v143l401 1004h344l-344 -861h244v252z" />
    <glyph glyph-name="five" unicode="5" horiz-adv-x="1157" 
d="M594 1004q239 0 380.5 -132t141.5 -370q0 -158 -69 -273t-189 -172t-278 -57q-247 0 -393 135.5t-146 380.5h287q0 -109 65 -169t187 -60q120 0 184.5 57.5t64.5 157.5t-64.5 157.5t-184.5 57.5q-75 0 -138 -21.5t-90 -48.5q-24 -21 -24 -37h-172l-86 86l43 738h931v-287
h-632l-11 -164q91 21 193 21z" />
    <glyph glyph-name="six" unicode="6" horiz-adv-x="1157" 
d="M530 1434h344l-239 -361q205 -22 343 -175t138 -359q0 -146 -71 -270t-194.5 -196.5t-270.5 -72.5t-271 72t-196 196t-72 271q0 176 100 311zM580 287q104 0 176.5 73.5t72.5 178.5q0 103 -73 176t-176 73q-105 0 -178.5 -72.5t-73.5 -176.5t74 -178t178 -74z" />
    <glyph glyph-name="seven" unicode="7" horiz-adv-x="1157" 
d="M715 1147h-674v287h1075v-144l-516 -1290h-344z" />
    <glyph glyph-name="eight" unicode="8" horiz-adv-x="1157" 
d="M973 754q143 -137 143 -287q0 -107 -45 -197t-120.5 -148t-171 -90t-199.5 -32t-200 32t-172 89.5t-121.5 147.5t-45.5 198q0 144 143 287q-100 112 -100 250q0 100 41.5 183t111.5 136t158.5 82t184.5 29q97 0 185 -29t157 -82t110 -136t41 -183q0 -129 -100 -250z
M580 1147q-95 0 -152 -42t-57 -101q0 -64 56 -104t153 -40q103 0 154.5 38t51.5 106t-51.5 105.5t-154.5 37.5zM580 287q120 0 184.5 47t64.5 133q0 83 -64.5 130.5t-184.5 47.5t-186 -47.5t-66 -130.5q0 -86 65 -133t187 -47z" />
    <glyph glyph-name="nine" unicode="9" horiz-adv-x="1157" 
d="M1116 897q0 -178 -100 -313l-389 -584h-344l239 360q-205 22 -343 176.5t-138 360.5q0 147 72.5 270.5t196.5 195t270 71.5t269.5 -72t195 -195.5t71.5 -269.5zM328 897q0 -104 74 -178t178 -74t176.5 73.5t72.5 178.5q0 103 -73 176.5t-176 73.5q-104 0 -178 -73
t-74 -177z" />
    <glyph glyph-name="colon" unicode=":" horiz-adv-x="716" 
d="M481 1096q49 -51 49 -121t-49 -121q-51 -51 -123 -51q-69 0 -120 51t-51 121t51 121q48 51 120 51q75 0 123 -51zM481 293q49 -51 49 -121t-49 -121q-51 -51 -123 -51q-69 0 -120 51t-51 121t51 121q48 51 120 51q75 0 123 -51z" />
    <glyph glyph-name="semicolon" unicode=";" horiz-adv-x="716" 
d="M481 854q-51 -51 -123 -51q-69 0 -120 51q-51 50 -51 121.5t51 122.5q49 49 120 49q72 0 123 -51q49 -51 49 -121t-49 -121zM186 172q0 72 50 122t122 50q71 0 121.5 -50t50.5 -122q0 -88 -31 -169.5t-79 -135.5q-98 -106 -172 -137l-33 -17l-82 121q54 25 114 73.5
t81 94.5q-61 10 -101.5 58.5t-40.5 111.5z" />
    <glyph glyph-name="less" unicode="&#x3c;" horiz-adv-x="1249" 
d="M195 473v201l860 401v-287l-430 -215l430 -215v-286z" />
    <glyph glyph-name="equal" unicode="=" horiz-adv-x="1249" 
d="M123 1147h1003v-287h-1003v287zM123 573h1003v-286h-1003v286z" />
    <glyph glyph-name="greater" unicode="&#x3e;" horiz-adv-x="1249" 
d="M1055 674v-201l-860 -401v286l430 215l-430 215v287z" />
    <glyph glyph-name="question" unicode="?" horiz-adv-x="1280" 
d="M641 1591q109 0 202 -26.5t170 -82t121 -152.5t44 -226q0 -73 -17.5 -129.5t-56 -103t-77 -78.5t-103.5 -76q-140 -94 -140 -201h-286q0 78 16 139t51 109.5t78.5 86.5t108.5 79q139 86 139 174q0 201 -250 201q-200 0 -252 -230l-287 86q33 194 185.5 312t353.5 118z
M764 293q50 -51 50 -121t-50 -121q-51 -51 -123 -51q-70 0 -121 51q-51 49 -51 121t51 123q49 49 121 49t123 -51z" />
    <glyph glyph-name="at" unicode="@" horiz-adv-x="1925" 
d="M1114 1147h236v-488q0 -46 26 -73t64 -27q47 0 80.5 43t33.5 115q0 161 -79 297.5t-215 215.5t-297 79t-297.5 -79t-215.5 -215.5t-79 -297.5t79 -297.5t215.5 -215.5t297.5 -79q216 0 378 137l172 -207q-241 -198 -550 -198q-177 0 -336.5 67.5t-274.5 182.5t-182.5 274
t-67.5 336t67.5 336t182.5 274t274.5 182.5t336.5 67.5q236 0 433.5 -114.5t312 -312t114.5 -433.5q0 -210 -125 -320q-124 -112 -295 -112q-143 0 -238 80q-113 -78 -245 -78q-179 0 -305 126t-126 304q0 180 125.5 305t305.5 125q98 0 145 -33l16 -10zM807 604
q49 -49 113 -49q65 0 114 49q47 47 47 112.5t-47 114.5q-48 48 -114 48q-65 0 -113 -48q-49 -49 -49 -114.5t49 -112.5z" />
    <glyph glyph-name="A" unicode="A" horiz-adv-x="1372" 
d="M1331 0h-287l-92 287h-530l-94 -287h-287l467 1434h358zM686 1102l-172 -529h344z" />
    <glyph glyph-name="B" unicode="B" horiz-adv-x="1157" 
d="M965 754q151 -124 151 -324q0 -191 -136 -310.5t-329 -119.5h-610v1434h539q196 0 330 -118.5t134 -311.5q0 -143 -79 -250zM580 1147h-252v-287h252q59 0 101 43t42 101t-42 100.5t-101 42.5zM328 573v-286h323q57 0 100.5 43t43.5 100t-43.5 100t-100.5 43h-323z" />
    <glyph glyph-name="C" unicode="C" horiz-adv-x="1466" 
d="M758 287q138 0 252 82.5t157 214.5l258 -129q-82 -206 -264 -330.5t-403 -124.5q-146 0 -279 56.5t-229 152.5t-152.5 229t-56.5 279q0 196 95.5 361t260.5 260.5t361 95.5q224 0 404 -123t263 -332l-258 -129q-44 135 -156 216t-253 81q-180 0 -305 -125t-125 -305
q0 -179 126 -304.5t304 -125.5z" />
    <glyph glyph-name="D" unicode="D" horiz-adv-x="1372" 
d="M41 0v1434h573q197 0 362 -95t260 -260t95 -362q0 -196 -95.5 -361t-260.5 -260.5t-361 -95.5h-573zM328 1147v-860h286q180 0 305 125t125 305q0 181 -124 305.5t-306 124.5h-286z" />
    <glyph glyph-name="E" unicode="E" horiz-adv-x="1085" 
d="M41 1434h1003v-287h-716v-287h573v-287h-573v-286h716v-287h-1003v1434z" />
    <glyph glyph-name="F" unicode="F" horiz-adv-x="1085" 
d="M41 1434h1003v-287h-716v-287h573v-287h-573v-573h-287v1434z" />
    <glyph glyph-name="G" unicode="G" horiz-adv-x="1372" 
d="M758 1434q326 0 573 -283l-223 -184q-60 85 -153 132.5t-197 47.5q-180 0 -305 -125t-125 -305q0 -179 126 -304.5t304 -125.5q167 0 286 110v176h-286v287h573v-573q-239 -287 -573 -287q-146 0 -279 56.5t-229 152.5t-152.5 229t-56.5 279q0 196 95.5 361t260.5 260.5
t361 95.5z" />
    <glyph glyph-name="H" unicode="H" 
d="M328 860h573v574h287v-1434h-287v573h-573v-573h-287v1434h287v-574z" />
    <glyph glyph-name="I" unicode="I" horiz-adv-x="368" 
d="M41 1434h287v-1434h-287v1434z" />
    <glyph glyph-name="J" unicode="J" horiz-adv-x="1019" 
d="M692 573v861h287v-861q0 -118 -45 -224t-121.5 -182.5t-182.5 -121.5t-224 -45q-238 0 -406 168l203 203q84 -84 203 -84q120 0 203 83t83 203z" />
    <glyph glyph-name="K" unicode="K" horiz-adv-x="1372" 
d="M328 692l665 742h338l-598 -666l598 -768h-354l-432 557l-217 -242v-315h-287v1434h287v-742z" />
    <glyph glyph-name="L" unicode="L" horiz-adv-x="1085" 
d="M41 1434h287v-1147h716v-287h-1003v1434z" />
    <glyph glyph-name="M" unicode="M" horiz-adv-x="1658" 
d="M328 1434l501 -777l502 777h287v-1434h-287v860l-430 -645h-143l-430 645v-860h-287v1434h287z" />
    <glyph glyph-name="N" unicode="N" horiz-adv-x="1372" 
d="M328 1434l716 -904v904h287v-1434h-287l-716 903v-903h-287v1434h287z" />
    <glyph glyph-name="O" unicode="O" horiz-adv-x="1515" 
d="M41 717q0 196 95.5 361t260.5 260.5t361 95.5q197 0 362 -95t260 -260t95 -362q0 -196 -95.5 -361t-260.5 -260.5t-361 -95.5q-146 0 -279 56.5t-229 152.5t-152.5 229t-56.5 279zM328 717q0 -179 126 -304.5t304 -125.5q180 0 305 125t125 305q0 181 -124 305.5
t-306 124.5q-180 0 -305 -125t-125 -305z" />
    <glyph glyph-name="P" unicode="P" 
d="M41 0v1434h573q157 0 289 -76.5t208.5 -208.5t76.5 -289t-76.5 -289t-208.5 -208t-289 -76h-286v-287h-287zM328 1147v-574h286q120 0 203.5 83.5t83.5 203.5t-83.5 203.5t-203.5 83.5h-286z" />
    <glyph glyph-name="Q" unicode="Q" horiz-adv-x="1515" 
d="M41 717q0 196 95.5 361t260.5 260.5t361 95.5q197 0 362 -95t260 -260t95 -362q0 -320 -236 -531l236 -43v-286l-861 157q-165 33 -296 135t-204 251t-73 317zM328 717q0 -179 126 -304.5t304 -125.5q180 0 305 125t125 305q0 181 -124 305.5t-306 124.5
q-180 0 -305 -125t-125 -305z" />
    <glyph glyph-name="R" unicode="R" 
d="M1188 860q0 -143 -68.5 -271.5t-189.5 -207.5l258 -381h-316l-196 291l-62 -4h-286v-287h-287v1434h573q157 0 289 -76.5t208.5 -208.5t76.5 -289zM614 1147h-286v-574h286q120 0 203.5 83.5t83.5 203.5t-83.5 203.5t-203.5 83.5z" />
    <glyph glyph-name="S" unicode="S" 
d="M342 1004q0 -28 22 -48.5t68 -37t91 -28t118.5 -29t124.5 -32.5q73 -21 125.5 -40.5t112.5 -53.5t97 -73.5t62 -99t25 -132.5q0 -209 -150 -319.5t-424 -110.5q-127 0 -267.5 18.5t-240.5 55.5l-65 26l115 279q274 -92 458 -92q273 0 273 143q0 28 -22 48.5t-67.5 36
t-91 26.5t-118 27.5t-123.5 31.5q-72 20 -126.5 40.5t-113.5 54t-97 74.5t-62.5 101t-24.5 134q0 207 152 318.5t421 111.5q116 0 249 -21t206 -65l47 -29l-115 -264q-201 92 -387 92q-272 0 -272 -143z" />
    <glyph glyph-name="T" unicode="T" 
d="M41 1147v287h1147v-287h-430v-1147h-287v1147h-430z" />
    <glyph glyph-name="U" unicode="U" 
d="M901 573v861h287v-861q0 -157 -76.5 -289t-208.5 -208t-289 -76q-118 0 -224 45t-182.5 121.5t-121.5 182.5t-45 224v861h287v-861q0 -120 83 -203t203 -83t203.5 83t83.5 203z" />
    <glyph glyph-name="V" unicode="V" horiz-adv-x="1372" 
d="M328 1434l358 -1102l358 1102h287l-465 -1434h-358l-467 1434h287z" />
    <glyph glyph-name="W" unicode="W" horiz-adv-x="2304" 
d="M1260 1434l358 -1102l358 1102h287l-465 -1434h-358l-287 883l-287 -883h-358l-467 1434h287l358 -1102l358 1102h216z" />
    <glyph glyph-name="X" unicode="X" horiz-adv-x="1372" 
d="M686 963l315 471h330l-479 -717l479 -717h-330l-315 471l-315 -471h-330l481 717l-481 717h330z" />
    <glyph glyph-name="Y" unicode="Y" horiz-adv-x="1300" 
d="M365 1434l286 -529l287 529h322l-465 -861v-573h-287v573l-467 861h324z" />
    <glyph glyph-name="Z" unicode="Z" 
d="M41 1147v287h1147v-215l-688 -932h688v-287h-1147v215l688 932h-688z" />
    <glyph glyph-name="bracketleft" unicode="[" horiz-adv-x="747" 
d="M102 1720h467v-286h-180v-1721h180v-286h-467v2293z" />
    <glyph glyph-name="backslash" unicode="\" horiz-adv-x="1157" 
d="M829 -573l-788 2293h287l788 -2293h-287z" />
    <glyph glyph-name="bracketright" unicode="]" horiz-adv-x="747" 
d="M178 1434v286h467v-2293h-467v286h180v1721h-180z" />
    <glyph glyph-name="asciicircum" unicode="^" horiz-adv-x="784" 
d="M535 1577l229 -322h-287l-86 121l-84 -121h-287l230 322h285z" />
    <glyph glyph-name="underscore" unicode="_" horiz-adv-x="1146" 
d="M0 -143h1147v-287h-1147v287z" />
    <glyph glyph-name="grave" unicode="`" horiz-adv-x="499" 
d="M20 1577h345l114 -358h-286z" />
    <glyph glyph-name="a" unicode="a" 
d="M901 1069v21l45 57h242v-1147h-287v78q-135 -78 -287 -78q-118 0 -224 45t-182.5 121.5t-121.5 182.5t-45 224q0 157 76 289t208 208.5t289 76.5q152 0 287 -78zM328 573q0 -120 83 -203t203 -83t203.5 83t83.5 203t-83.5 203.5t-203.5 83.5t-203 -83.5t-83 -203.5z" />
    <glyph glyph-name="b" unicode="b" 
d="M614 1147q157 0 289 -76.5t208.5 -208.5t76.5 -289t-76.5 -289t-208.5 -208t-289 -76q-151 0 -286 78v-78h-287v1577h287v-508q135 78 286 78zM328 573q0 -120 83 -203t203 -83t203.5 83t83.5 203t-83.5 203.5t-203.5 83.5t-203 -83.5t-83 -203.5z" />
    <glyph glyph-name="c" unicode="c" horiz-adv-x="1167" 
d="M614 287q81 0 150 42.5t106 114.5l256 -127q-70 -145 -210 -231t-302 -86q-118 0 -224 45t-182.5 121.5t-121.5 182.5t-45 224q0 157 76 289t208 208.5t289 76.5q164 0 302 -85.5t210 -232.5l-256 -127q-37 72 -106 115t-150 43q-120 0 -203 -83.5t-83 -203.5t83 -203
t203 -83z" />
    <glyph glyph-name="d" unicode="d" 
d="M901 1069v508h287v-1577h-287v78q-135 -78 -287 -78q-118 0 -224 45t-182.5 121.5t-121.5 182.5t-45 224q0 157 76 289t208 208.5t289 76.5q152 0 287 -78zM328 573q0 -120 83 -203t203 -83t203.5 83t83.5 203t-83.5 203.5t-203.5 83.5t-203 -83.5t-83 -203.5z" />
    <glyph glyph-name="e" unicode="e" 
d="M1188 573q0 -69 -19 -143h-817q61 -143 262 -143q172 0 254 73l248 -145q-48 -71 -137 -121.5t-181.5 -72t-183.5 -21.5q-120 0 -226 44.5t-182 120.5t-120.5 182t-44.5 226q0 157 76 289t208 208.5t289 76.5t289 -76.5t208.5 -208.5t76.5 -289zM360 717h508
q-73 143 -254 143t-254 -143z" />
    <glyph glyph-name="f" unicode="f" horiz-adv-x="972" 
d="M686 1305q-215 0 -215 -158h358v-287h-358v-860h-287v860h-143v287h147q19 201 145 315.5t353 114.5q71 0 144 -16.5t108 -36.5l35 -19l-86 -272q-72 72 -201 72z" />
    <glyph glyph-name="g" unicode="g" 
d="M901 1069v21l45 57h242v-1004q0 -233 -115 -368.5t-344 -192.5q-53 -9 -82 -12h-33q-116 0 -219.5 21.5t-169.5 54.5q-125 62 -168 116l-16 23l213 190q8 -8 39 -32q24 -19 121 -54q85 -32 200 -32q101 0 181 60t100 157q-133 -74 -281 -74q-118 0 -224 45t-182.5 121.5
t-121.5 182.5t-45 224q0 157 76 289t208 208.5t289 76.5q152 0 287 -78zM328 573q0 -120 83 -203t203 -83t203.5 83t83.5 203t-83.5 203.5t-203.5 83.5t-203 -83.5t-83 -203.5z" />
    <glyph glyph-name="h" unicode="h" horiz-adv-x="1157" 
d="M580 1147q146 0 269.5 -72t195 -195.5t71.5 -269.5v-610h-287v610q0 103 -73 176.5t-176 73.5q-104 0 -178 -73t-74 -177v-610h-287v1577h287v-492q121 62 252 62z" />
    <glyph glyph-name="i" unicode="i" horiz-adv-x="380" 
d="M313 1554q49 -51 49 -120.5t-49 -120.5q-51 -51 -123 -51q-69 0 -120 51t-51 120.5t51 120.5q49 52 120 52q74 0 123 -52zM334 1147v-1147h-287v1147h287z" />
    <glyph glyph-name="j" unicode="j" horiz-adv-x="774" 
d="M694 1554q51 -51 51 -120.5t-51 -120.5t-121 -51q-66 0 -120 51q-51 51 -51 120.5t51 120.5q52 52 120 52q72 0 121 -52zM430 72v1075h287v-1075q0 -209 -146.5 -355.5t-355.5 -146.5q-53 0 -107.5 16.5t-82.5 36.5l-25 19l63 280q53 -65 152 -65q215 0 215 215z" />
    <glyph glyph-name="k" unicode="k" 
d="M676 657l512 -657h-340l-352 455l-168 -187v-268h-287v1577h287v-918l436 488h352z" />
    <glyph glyph-name="l" unicode="l" horiz-adv-x="368" 
d="M328 1577v-1577h-287v1577h287z" />
    <glyph glyph-name="m" unicode="m" horiz-adv-x="1945" 
d="M1368 1147q146 0 269.5 -72t195.5 -195.5t72 -269.5v-610h-287v610q0 103 -73.5 176.5t-176.5 73.5q-104 0 -178 -73t-74 -177v-610h-287v610q0 103 -73 176.5t-176 73.5q-104 0 -178 -73t-74 -177v-610h-287v1147h242l45 -57v-5q121 62 252 62q234 0 393 -172
q159 172 395 172z" />
    <glyph glyph-name="n" unicode="n" horiz-adv-x="1157" 
d="M580 1147q146 0 269.5 -72t195 -195.5t71.5 -269.5v-610h-287v610q0 103 -73 176.5t-176 73.5q-104 0 -178 -73t-74 -177v-610h-287v1147h242l45 -57v-5q121 62 252 62z" />
    <glyph glyph-name="o" unicode="o" 
d="M41 573q0 157 76 289t208 208.5t289 76.5t289 -76.5t208.5 -208.5t76.5 -289t-76.5 -289t-208.5 -208t-289 -76q-118 0 -224 45t-182.5 121.5t-121.5 182.5t-45 224zM328 573q0 -120 83 -203t203 -83t203.5 83t83.5 203t-83.5 203.5t-203.5 83.5t-203 -83.5t-83 -203.5z
" />
    <glyph glyph-name="p" unicode="p" 
d="M614 1147q157 0 289 -76.5t208.5 -208.5t76.5 -289t-76.5 -289t-208.5 -208t-289 -76q-151 0 -286 78v-508h-287v1577h242l45 -57v-21q135 78 286 78zM328 573q0 -120 83 -203t203 -83t203.5 83t83.5 203t-83.5 203.5t-203.5 83.5t-203 -83.5t-83 -203.5z" />
    <glyph glyph-name="q" unicode="q" 
d="M901 1069v21l45 57h242v-1577h-287v508q-135 -78 -287 -78q-118 0 -224 45t-182.5 121.5t-121.5 182.5t-45 224q0 157 76 289t208 208.5t289 76.5q152 0 287 -78zM328 573q0 -120 83 -203t203 -83t203.5 83t83.5 203t-83.5 203.5t-203.5 83.5t-203 -83.5t-83 -203.5z" />
    <glyph glyph-name="r" unicode="r" horiz-adv-x="808" 
d="M614 1147q105 0 203 -37l-90 -272q-61 22 -113 22q-120 0 -203 -83.5t-83 -203.5v-573h-287v1147h242l45 -57v-21q135 78 286 78z" />
    <glyph glyph-name="s" unicode="s" horiz-adv-x="1085" 
d="M1044 358q0 -75 -31.5 -136.5t-82 -102t-117.5 -68t-134.5 -39.5t-135.5 -12q-106 0 -229 19.5t-212 54.5l-61 26l115 262q64 -47 173.5 -68.5t213.5 -21.5q55 0 96.5 8.5t63 19.5t35 26t17 25.5t3.5 19.5v16q-13 23 -67 31t-151 13.5t-161 17.5q-81 16 -139.5 39
t-105 61.5t-70 98t-23.5 140.5q0 75 31.5 137t82.5 102t117.5 68t134.5 40t136 12q243 0 387 -66l43 -20l-137 -252q-109 65 -293 65q-215 0 -215 -86q0 -31 45.5 -42t148.5 -18.5t164 -18.5q84 -17 144.5 -40.5t111 -63t76.5 -101.5t26 -146z" />
    <glyph glyph-name="t" unicode="t" horiz-adv-x="829" 
d="M758 352l12 15l59 -281q-42 -42 -127 -64t-159 -22q-151 0 -255 103.5t-104 254.5v502h-143v287h143v287h287v-287h315v-287h-315v-401q0 -58 33.5 -96.5t73.5 -43.5l36 -4q47 0 88 11.5t56 25.5z" />
    <glyph glyph-name="u" unicode="u" horiz-adv-x="1157" 
d="M829 539v608h287v-608q0 -146 -71 -270t-194.5 -196.5t-270.5 -72.5t-271 72t-196 196t-72 271v608h287v-608q0 -104 74 -178t178 -74t176.5 73.5t72.5 178.5z" />
    <glyph glyph-name="v" unicode="v" 
d="M328 1147l286 -764l287 764h287l-430 -1147h-287l-430 1147h287z" />
    <glyph glyph-name="w" unicode="w" horiz-adv-x="2017" 
d="M1403 383l287 764h286l-430 -1147h-286l-250 670l-252 -670h-287l-430 1147h287l286 -764q40 122 197 528q26 67 58 151l32 85h215q207 -537 287 -764z" />
    <glyph glyph-name="x" unicode="x" 
d="M614 819l230 328h344l-402 -574l402 -573h-344l-230 328l-229 -328h-344l401 573l-401 574h344z" />
    <glyph glyph-name="y" unicode="y" 
d="M328 1147l286 -764l287 764h287l-430 -1147q-27 -74 -55.5 -132.5t-70 -116t-89.5 -96t-114.5 -62t-143.5 -23.5q-161 0 -244 57l100 273q43 -43 144 -43q63 0 115 40.5t71 102.5l-430 1147h287z" />
    <glyph glyph-name="z" unicode="z" horiz-adv-x="1157" 
d="M41 860v287h1075v-143l-579 -717h579v-287h-1075v143l582 717h-582z" />
    <glyph glyph-name="braceleft" unicode="{" horiz-adv-x="921" 
d="M692 -283l37 -4l14 -286h-86q-151 0 -254.5 103.5t-103.5 254.5v502q0 58 -33 96t-73 43l-37 4v287q58 0 96 33t43 73l4 37v502q0 151 103.5 254.5t254.5 103.5h86l-14 -286q-58 0 -96 -33.5t-43 -73.5l-4 -37v-502q0 -118 -72 -215q72 -97 72 -215v-501q0 -59 33 -97
t73 -43z" />
    <glyph glyph-name="bar" unicode="|" horiz-adv-x="573" 
d="M430 -573h-287v2293h287v-2293z" />
    <glyph glyph-name="braceright" unicode="}" horiz-adv-x="921" 
d="M623 1362v-502q0 -58 33 -96t73 -43l37 -4v-287q-58 0 -96 -33t-43 -73l-4 -37v-502q0 -151 -104 -254.5t-255 -103.5h-86l15 286q58 0 96 33.5t43 73.5l4 37v501q0 118 72 215q-72 97 -72 215v502q0 58 -33.5 96.5t-73.5 43.5l-36 4l-15 286h86q151 0 255 -103.5
t104 -254.5z" />
    <glyph glyph-name="asciitilde" unicode="~" horiz-adv-x="897" 
d="M236 395l-216 144q4 18 43 73q92 140 279 140q50 0 123 -31q67 -33 98 -33q52 0 101 64l213 -144q-3 -17 -41 -73q-107 -140 -281 -140q-54 0 -121 33q-73 31 -100 31q-52 0 -98 -64z" />
    <glyph glyph-name="uni00A0" unicode="&#xa0;" horiz-adv-x="716" 
 />
    <glyph glyph-name="exclamdown" unicode="&#xa1;" horiz-adv-x="634" 
d="M197 725q-51 49 -51 121t51 123q49 49 120 49q74 0 123 -49q50 -51 50 -123t-50 -121q-51 -51 -123 -51q-69 0 -120 51zM489 -573h-344l29 1075h287z" />
    <glyph glyph-name="cent" unicode="&#xa2;" horiz-adv-x="1169" 
d="M614 430q81 0 150 43t106 115l256 -127q-54 -111 -150.5 -189.5t-217.5 -109.5v-162h-287v162q-190 47 -310 203t-120 352q0 197 119.5 352.5t310.5 202.5v162h287v-162q121 -31 217.5 -109.5t150.5 -189.5l-256 -127q-37 72 -106 115t-150 43q-120 0 -203 -83.5
t-83 -203.5t83 -203.5t203 -83.5z" />
    <glyph glyph-name="sterling" unicode="&#xa3;" 
d="M815 301q94 0 171 13.5t106 29.5l24 14l72 -286q-147 -72 -373 -72q-57 0 -147 23l-50 12q-86 22 -147 22q-47 0 -94 -13.5t-70 -29.5l-22 -14l-244 258q5 3 12.5 9t27.5 31.5t35 58t27.5 90.5t12.5 126h-115v287h74q-2 8 -2 37q0 241 145 389t385 148q216 0 363.5 -111
t181.5 -319l-287 -86q-28 111 -91 170t-181 59q-100 0 -165 -73.5t-65 -176.5q0 -29 2 -37h357v-287h-316q0 -95 -55 -223q36 8 84 8q72 0 184 -28q116 -29 160 -29z" />
    <glyph glyph-name="currency" unicode="&#xa4;" horiz-adv-x="1341" 
d="M1182 414l118 -117l-208 -211l-119 119q-168 -82 -301 -82q-145 0 -303 82l-117 -119l-211 211l119 117q-82 158 -82 303q0 133 82 301l-119 119l211 209l117 -119q158 82 303 82q133 0 301 -82l119 119l208 -209l-118 -119q82 -168 82 -301q0 -145 -82 -303zM672 420
q123 0 209 86.5t86 210.5q0 122 -86 208.5t-209 86.5q-122 0 -209.5 -86.5t-87.5 -208.5q0 -124 86 -210.5t211 -86.5z" />
    <glyph glyph-name="yen" unicode="&#xa5;" horiz-adv-x="1300" 
d="M651 905l287 529h322l-369 -680h153v-181h-249v-71h249v-178h-249v-324h-287v324h-252v178h252v71h-252v181h154l-369 680h324z" />
    <glyph glyph-name="brokenbar" unicode="&#xa6;" horiz-adv-x="573" 
d="M143 754v966h287v-966h-287zM430 -573h-287v968h287v-968z" />
    <glyph glyph-name="section" unicode="&#xa7;" horiz-adv-x="1413" 
d="M1085 471q123 -85 123 -256q0 -76 -31.5 -137.5t-82 -102t-117 -68t-134 -39t-136.5 -11.5q-249 0 -388 65l-43 21l138 252q111 -66 293 -66q215 0 215 86q0 31 -45.5 46t-149 31t-164.5 32q-65 17 -114.5 36.5t-97 49.5t-78.5 67t-49.5 91t-18.5 120q0 143 123 275
q-123 85 -123 256q0 75 31.5 136.5t82.5 102t117.5 68t134.5 39.5t136 12q243 0 387 -66l43 -20l-138 -252q-111 66 -292 66q-215 0 -215 -86q0 -31 45.5 -46t148.5 -31t164 -32q83 -22 142 -48t111 -67.5t78.5 -104t26.5 -145.5q0 -142 -123 -274zM492 688q0 -23 13.5 -40
t41 -27.5t43 -14.5t45.5 -10q14 -2 94 -16t102 -17q91 72 91 182q0 19 -11 34t-24 24t-37 17t-36.5 10.5t-35.5 7.5q-1 0 -87 14t-109 18q-90 -72 -90 -182z" />
    <glyph glyph-name="dieresis" unicode="&#xa8;" horiz-adv-x="972" 
d="M313 1554q51 -51 51 -120.5t-51 -120.5t-120 -51q-67 0 -121 51q-51 51 -51 120.5t51 120.5q52 52 121 52q71 0 120 -52zM903 1554q49 -51 49 -120.5t-49 -120.5q-51 -51 -123 -51q-70 0 -121 51t-51 120.5t51 120.5q49 52 121 52q74 0 123 -52z" />
    <glyph glyph-name="copyright" unicode="&#xa9;" horiz-adv-x="1576" 
d="M0 788q0 162 61.5 308.5t167 251.5t251.5 167t308 62q218 0 399 -104.5t285.5 -285.5t104.5 -399q0 -162 -62 -308t-167 -251.5t-251.5 -167t-308.5 -61.5q-214 0 -395.5 105.5t-287 287t-105.5 395.5zM1362 788q0 157 -76.5 289t-208.5 208.5t-289 76.5
q-116 0 -222 -45.5t-183 -123t-122.5 -183.5t-45.5 -222q0 -154 77.5 -286t209.5 -209.5t286 -77.5q116 0 222 45.5t183.5 122.5t123 183t45.5 222zM995 729l193 -98q-46 -121 -156.5 -197t-243.5 -76q-178 0 -304 126t-126 304q0 180 125 305.5t305 125.5q133 0 243.5 -76
t156.5 -197l-193 -98q-21 68 -77.5 112t-129.5 44q-89 0 -152 -63.5t-63 -152.5t63 -152t152 -63q73 0 129.5 44t77.5 112z" />
    <glyph glyph-name="ordfeminine" unicode="&#xaa;" horiz-adv-x="655" 
d="M436 1413l21 21h157v-574h-178v21q-58 -21 -108 -21q-120 0 -203.5 83.5t-83.5 203.5t83.5 203.5t203.5 83.5q50 0 108 -21zM252 1071q31 -31 76 -31q47 0 78 31t31 76.5t-31 77.5q-30 30 -78 30q-46 0 -76 -30q-31 -32 -31 -77.5t31 -76.5z" />
    <glyph glyph-name="guillemotleft" unicode="&#xab;" horiz-adv-x="1484" 
d="M807 1147l-358 -574l358 -573h-344l-359 573l359 574h344zM1380 1147l-358 -574l358 -573h-344l-358 573l358 574h344z" />
    <glyph glyph-name="logicalnot" unicode="&#xac;" horiz-adv-x="1249" 
d="M123 860h1003v-717h-286v430h-717v287z" />
    <glyph glyph-name="uni00AD" unicode="&#xad;" horiz-adv-x="204" 
 />
    <glyph glyph-name="registered" unicode="&#xae;" horiz-adv-x="1576" 
d="M0 788q0 162 61.5 308.5t167 251.5t251.5 167t308 62q218 0 399 -104.5t285.5 -285.5t104.5 -399q0 -162 -62 -308t-167 -251.5t-251.5 -167t-308.5 -61.5q-214 0 -395.5 105.5t-287 287t-105.5 395.5zM1042 602l132 -240q188 176 188 426q0 157 -76.5 289t-208.5 208.5
t-289 76.5q-116 0 -222 -45.5t-183 -123t-122.5 -183.5t-45.5 -222q0 -154 77.5 -286t209.5 -209.5t286 -77.5q221 0 379 143h-206l-97 174q-6 -2 -33 -2h-129v-172h-215v861h344q145 0 245 -100t100 -245q0 -162 -134 -272zM831 1004h-129v-259h129q54 0 92 37.5t38 91.5
t-38 92t-92 38z" />
    <glyph glyph-name="degree" unicode="&#xb0;" horiz-adv-x="1064" 
d="M102 1004q0 180 125 305t305 125q182 0 306.5 -124.5t124.5 -305.5q0 -180 -125.5 -305.5t-305.5 -125.5q-178 0 -304 126t-126 305zM635 1106q-41 41 -103 41q-59 0 -100 -41q-43 -43 -43 -102.5t43 -100.5q43 -43 100 -43q60 0 103 43q41 41 41 100.5t-41 102.5z" />
    <glyph glyph-name="plusminus" unicode="&#xb1;" horiz-adv-x="1249" 
d="M481 1219h287v-359h358v-287h-358v-356h-287v356h-358v287h358v359zM1126 2v-287h-1003v287h1003z" />
    <glyph glyph-name="twosuperior" unicode="&#xb2;" horiz-adv-x="727" 
d="M686 1327q0 -72 -46.5 -139.5t-113.5 -110.5q-22 -15 -60.5 -38.5t-51.5 -32.5q-54 -35 -56 -45h328v-173h-645v86q0 57 46 115t120 105q67 44 135 84q164 100 164 170q0 57 -35 93t-90 36q-124 0 -174 -158l-166 51q20 134 106 206.5t218 72.5q144 0 232.5 -87.5
t88.5 -234.5z" />
    <glyph glyph-name="threesuperior" unicode="&#xb3;" horiz-adv-x="727" 
d="M84 1477v172h602v-86l-149 -213q149 -79 149 -260q0 -138 -90.5 -220t-230.5 -82q-122 0 -211 74.5t-113 206.5l164 49q53 -157 168 -157q61 0 101 38t40 91q0 55 -39 91.5t-104 37.5h-62l-41 41l152 217h-336z" />
    <glyph glyph-name="acute" unicode="&#xb4;" horiz-adv-x="499" 
d="M479 1577l-172 -358h-287l115 358h344z" />
    <glyph glyph-name="uni00B5" unicode="&#xb5;" 
d="M829 539v608h287v-717q0 -29 21.5 -50.5t50.5 -21.5v-358q-159 0 -268 121q-148 -121 -340 -121q-133 0 -252 61v-491h-287v1577h287v-608q0 -104 74 -178t178 -74t176.5 73.5t72.5 178.5z" />
    <glyph glyph-name="paragraph" unicode="&#xb6;" horiz-adv-x="1986" 
d="M778 1434h1004v-1721h-287v1434h-143v-1434h-287v574h-287q-118 0 -224 45t-182.5 121.5t-121.5 182.5t-45 224q0 157 76 289t208 208.5t289 76.5z" />
    <glyph glyph-name="periodcentered" unicode="&#xb7;" horiz-adv-x="714" 
d="M358 803q95 0 161.5 -67.5t66.5 -162.5t-66.5 -162t-161.5 -67t-162 67t-67 162t67 162.5t162 67.5z" />
    <glyph glyph-name="cedilla" unicode="&#xb8;" horiz-adv-x="612" 
d="M141 72h285l37 -43q57 -23 93 -78.5t36 -118.5q0 -70 -32.5 -123t-87 -82t-115 -43t-126.5 -14q-93 0 -211 31l58 215q84 -23 129 -23q94 0 94 49q0 25 -22.5 43.5t-56.5 27t-63 12t-53 3.5v29z" />
    <glyph glyph-name="onesuperior" unicode="&#xb9;" horiz-adv-x="468" 
d="M250 1618l6 31h172v-861h-172v586q-111 -18 -215 -18v164q89 0 145.5 30.5t63.5 67.5z" />
    <glyph glyph-name="ordmasculine" unicode="&#xba;" horiz-adv-x="655" 
d="M328 860q-120 0 -203.5 83.5t-83.5 203.5t83.5 203.5t203.5 83.5t203 -83.5t83 -203.5t-83 -203.5t-203 -83.5zM406 1225q-30 30 -78 30q-46 0 -76 -30q-31 -32 -31 -77.5t31 -76.5t76 -31q47 0 78 31t31 76.5t-31 77.5z" />
    <glyph glyph-name="guillemotright" unicode="&#xbb;" horiz-adv-x="1484" 
d="M678 0l358 573l-358 574h344l358 -574l-358 -573h-344zM104 0l359 573l-359 574h345l358 -574l-358 -573h-345z" />
    <glyph glyph-name="onequarter" unicode="&#xbc;" horiz-adv-x="1869" 
d="M727 0h-215l502 1434h215zM317 1434h172v-861h-172v586q-111 -18 -215 -18v164q121 0 170 45q43 43 43 71zM1681 516v-172h86v-172h-86v-172h-172v172h-387l-2 86l242 602h207l-207 -516h147v152z" />
    <glyph glyph-name="onehalf" unicode="&#xbd;" horiz-adv-x="1869" 
d="M729 0h-215l502 1434h215zM317 1434h172v-861h-172v586q-111 -18 -215 -18v164q121 0 170 45q43 43 43 71zM1767 539q0 -72 -46 -139.5t-113 -110.5q-22 -15 -61 -39.5t-52 -32.5q-52 -34 -55 -45h327v-172h-645v86q0 57 46 114.5t120 104.5q68 43 135 84
q164 100 164 170q0 57 -35 93t-90 36q-124 0 -174 -158l-166 52q20 133 106 205.5t218 72.5q144 0 232.5 -87t88.5 -234z" />
    <glyph glyph-name="threequarters" unicode="&#xbe;" horiz-adv-x="1996" 
d="M426 573q-122 0 -211 74.5t-113 206.5l164 49q53 -158 168 -158q61 0 101 38t40 91q0 55 -39 92t-104 38h-61l-41 40l151 218h-336v172h603v-86l-150 -213q150 -79 150 -261q0 -138 -91 -219.5t-231 -81.5zM856 0h-215l502 1434h215zM1894 172h-86v-172h-172v172h-387v86
l242 602h205l-205 -516h145v152l172 20v-172h86v-172z" />
    <glyph glyph-name="questiondown" unicode="&#xbf;" horiz-adv-x="1280" 
d="M520 725q-51 49 -51 121t51 123q49 49 121 49q74 0 123 -49q50 -51 50 -123t-50 -121q-51 -51 -123 -51q-70 0 -121 51zM641 -573q-110 0 -203.5 26.5t-170.5 82t-121 152.5t-44 226q0 50 8 92t26.5 77.5t37.5 62t53.5 56.5t59.5 48.5t71 50.5q140 92 140 201h286
q0 -146 -63.5 -242t-192.5 -170q-66 -42 -102.5 -84t-36.5 -92q0 -201 252 -201q198 0 250 230l287 -86q-33 -193 -185.5 -311.5t-351.5 -118.5z" />
    <glyph glyph-name="Agrave" unicode="&#xc0;" horiz-adv-x="1372" 
d="M371 1864h344l114 -359h-286zM866 1434l465 -1434h-287l-92 287h-530l-94 -287h-287l467 1434h358zM858 573l-172 529l-172 -529h344z" />
    <glyph glyph-name="Aacute" unicode="&#xc1;" horiz-adv-x="1372" 
d="M543 1505l114 359h344l-172 -359h-286zM866 1434l465 -1434h-287l-92 287h-530l-94 -287h-287l467 1434h358zM858 573l-172 529l-172 -529h344z" />
    <glyph glyph-name="Acircumflex" unicode="&#xc2;" horiz-adv-x="1351" 
d="M1059 1542h-287l-86 121l-86 -121h-287l230 322h286zM866 1434l465 -1434h-287l-92 287h-530l-94 -287h-287l467 1434h358zM858 573l-172 529l-172 -529h344z" />
    <glyph glyph-name="Atilde" unicode="&#xc3;" horiz-adv-x="1372" 
d="M793 1540q-56 0 -123 33q-73 31 -101 31q-52 0 -98 -64l-215 143q4 19 43 76q46 69 119 104t160 35q54 0 124 -30q67 -33 99 -33q52 0 100 63l215 -143q-4 -19 -41 -74q-47 -68 -121.5 -104.5t-160.5 -36.5zM864 1434l467 -1434h-287l-94 287h-530l-92 -287h-287
l465 1434h358zM858 573l-172 529l-172 -529h344z" />
    <glyph glyph-name="Adieresis" unicode="&#xc4;" horiz-adv-x="1372" 
d="M938 1548q-72 0 -122 50t-50 122t50 122t122 50q69 0 120.5 -51.5t51.5 -120.5t-51.5 -120.5t-120.5 -51.5zM559 1599q-51 -51 -123 -51q-70 0 -121 51q-51 49 -51 121t51 123q49 49 121 49t123 -51q49 -51 49 -121t-49 -121zM866 1434l465 -1434h-287l-92 287h-530
l-94 -287h-287l467 1434h358zM858 573l-172 529l-172 -529h344z" />
    <glyph glyph-name="Aring" unicode="&#xc5;" horiz-adv-x="1372" 
d="M399 1792q0 120 83.5 203.5t203.5 83.5t203.5 -83.5t83.5 -203.5t-83.5 -203.5t-203.5 -83.5t-203.5 83.5t-83.5 203.5zM737 1843q-24 21 -51 21q-28 0 -49 -21q-22 -22 -22 -50t22 -50q21 -21 51 -21q28 0 49 21q21 22 21 49t-21 51zM41 0l467 1434h358l465 -1434h-287
l-92 287h-530l-94 -287h-287zM858 573l-172 529l-172 -529h344z" />
    <glyph glyph-name="AE" unicode="&#xc6;" horiz-adv-x="2017" 
d="M973 1434h1003v-287h-716v-287h573v-287h-573v-286h716v-287h-1003v287h-459l-186 -287h-287zM973 573v420l-273 -420h273z" />
    <glyph glyph-name="Ccedilla" unicode="&#xc7;" horiz-adv-x="1464" 
d="M758 289q139 0 251.5 82.5t155.5 214.5l258 -129q-63 -160 -193.5 -275.5t-295.5 -156.5q110 -67 110 -189q0 -70 -32.5 -123t-87 -82.5t-115.5 -44t-127 -14.5q-108 0 -211 33l55 213q76 -21 131 -21q90 0 93 43q0 27 -21.5 47t-55.5 29t-63 12.5t-55 3.5v29l20 64
q-235 62 -384.5 255t-149.5 437q0 197 95 362t260 260t362 95q224 0 403.5 -123t261.5 -332l-258 -129q-44 135 -154.5 216t-252.5 81q-180 0 -305 -125t-125 -305q0 -177 126.5 -302.5t303.5 -125.5z" />
    <glyph glyph-name="Egrave" unicode="&#xc8;" horiz-adv-x="1085" 
d="M227 1864h344l115 -359h-287zM41 1434h1003v-287h-716v-287h573v-287h-573v-286h716v-287h-1003v1434z" />
    <glyph glyph-name="Eacute" unicode="&#xc9;" horiz-adv-x="1085" 
d="M399 1505l115 359h344l-172 -359h-287zM41 1434h1003v-287h-716v-287h573v-287h-573v-286h716v-287h-1003v1434z" />
    <glyph glyph-name="Ecircumflex" unicode="&#xca;" horiz-adv-x="1085" 
d="M915 1542h-286l-86 121l-86 -121h-287l229 322h287zM41 1434h1003v-287h-716v-287h573v-287h-573v-286h716v-287h-1003v1434z" />
    <glyph glyph-name="Edieresis" unicode="&#xcb;" horiz-adv-x="1085" 
d="M795 1548q-72 0 -122 50t-50 122t50 122t122 50q69 0 120.5 -51.5t51.5 -120.5t-51.5 -120.5t-120.5 -51.5zM416 1599q-51 -51 -123 -51q-70 0 -121 51q-51 49 -51 121t51 123q49 49 121 49t123 -51q50 -51 50 -121t-50 -121zM41 1434h1003v-287h-716v-287h573v-287h-573
v-286h716v-287h-1003v1434z" />
    <glyph glyph-name="Igrave" unicode="&#xcc;" horiz-adv-x="368" 
d="M41 1505l-172 359h344l115 -359h-287zM328 0h-287v1434h287v-1434z" />
    <glyph glyph-name="Iacute" unicode="&#xcd;" horiz-adv-x="368" 
d="M500 1864l-172 -359h-287l115 359h344zM328 1434v-1434h-287v1434h287z" />
    <glyph glyph-name="Icircumflex" unicode="&#xce;" horiz-adv-x="368" 
d="M41 1864h287l229 -322h-287l-86 121l-86 -121h-286zM328 1434v-1434h-287v1434h287z" />
    <glyph glyph-name="Idieresis" unicode="&#xcf;" horiz-adv-x="370" 
d="M55 1841q51 -51 51 -121t-51 -121t-121 -51q-69 0 -120 51t-51 121t51 121q48 51 120 51q73 0 121 -51zM559 1841q49 -51 49 -121t-49 -121q-51 -51 -123 -51q-70 0 -121 51t-51 121t51 121q48 51 121 51q75 0 123 -51zM330 1434v-1434h-287v1434h287z" />
    <glyph glyph-name="Eth" unicode="&#xd0;" horiz-adv-x="1515" 
d="M184 860v574h574q197 0 362 -95t260 -260t95 -362q0 -196 -95.5 -361t-260.5 -260.5t-361 -95.5h-574v573h-143v287h143zM471 573v-286h287q180 0 305 125t125 305q0 181 -124 305.5t-306 124.5h-287v-287h143v-287h-143z" />
    <glyph glyph-name="Ntilde" unicode="&#xd1;" horiz-adv-x="1372" 
d="M793 1540q-56 0 -123 33q-73 31 -101 31q-52 0 -98 -64l-215 143q4 19 43 76q46 69 119 104t160 35q54 0 124 -30q67 -33 99 -33q52 0 100 63l215 -143q-4 -19 -41 -74q-47 -68 -121.5 -104.5t-160.5 -36.5zM328 1434l716 -904v904h287v-1434h-287l-716 903v-903h-287
v1434h287z" />
    <glyph glyph-name="Ograve" unicode="&#xd2;" horiz-adv-x="1515" 
d="M672 1505l-172 359h344l114 -359h-286zM41 717q0 196 95.5 361t260.5 260.5t361 95.5q197 0 362 -95t260 -260t95 -362q0 -196 -95.5 -361t-260.5 -260.5t-361 -95.5q-146 0 -279 56.5t-229 152.5t-152.5 229t-56.5 279zM328 717q0 -179 126 -304.5t304 -125.5
q180 0 305 125t125 305q0 181 -124 305.5t-306 124.5q-180 0 -305 -125t-125 -305z" />
    <glyph glyph-name="Oacute" unicode="&#xd3;" horiz-adv-x="1515" 
d="M1073 1864l-172 -359h-287l115 359h344zM41 717q0 196 95.5 361t260.5 260.5t361 95.5q197 0 362 -95t260 -260t95 -362q0 -196 -95.5 -361t-260.5 -260.5t-361 -95.5q-146 0 -279 56.5t-229 152.5t-152.5 229t-56.5 279zM328 717q0 -179 126 -304.5t304 -125.5
q180 0 305 125t125 305q0 181 -124 305.5t-306 124.5q-180 0 -305 -125t-125 -305z" />
    <glyph glyph-name="Ocircumflex" unicode="&#xd4;" horiz-adv-x="1515" 
d="M614 1864h287l229 -322h-286l-86 121l-86 -121h-287zM41 717q0 196 95.5 361t260.5 260.5t361 95.5q197 0 362 -95t260 -260t95 -362q0 -196 -95.5 -361t-260.5 -260.5t-361 -95.5q-146 0 -279 56.5t-229 152.5t-152.5 229t-56.5 279zM328 717q0 -179 126 -304.5
t304 -125.5q180 0 305 125t125 305q0 181 -124 305.5t-306 124.5q-180 0 -305 -125t-125 -305z" />
    <glyph glyph-name="Otilde" unicode="&#xd5;" horiz-adv-x="1515" 
d="M543 1540l-215 143q4 19 43 76q46 69 118.5 104t159.5 35q53 0 123 -30q67 -33 100 -33q53 0 101 63l215 -143q-4 -19 -41 -74q-46 -68 -121.5 -104.5t-161.5 -36.5q-56 0 -123 33q-73 31 -100 31q-52 0 -98 -64zM41 717q0 196 95.5 361t260.5 260.5t361 95.5
q197 0 362 -95t260 -260t95 -362q0 -196 -95.5 -361t-260.5 -260.5t-361 -95.5q-146 0 -279 56.5t-229 152.5t-152.5 229t-56.5 279zM328 717q0 -179 126 -304.5t304 -125.5q180 0 305 125t125 305q0 181 -124 305.5t-306 124.5q-180 0 -305 -125t-125 -305z" />
    <glyph glyph-name="Odieresis" unicode="&#xd6;" horiz-adv-x="1515" 
d="M629 1841q51 -51 51 -121t-51 -121t-121 -51q-72 0 -122 50t-50 122t50 122t122 50q70 0 121 -51zM1133 1841q49 -51 49 -121t-49 -121q-51 -51 -123 -51q-70 0 -121 51q-51 49 -51 121t51 123q49 49 121 49t123 -51zM41 717q0 196 95.5 361t260.5 260.5t361 95.5
q197 0 362 -95t260 -260t95 -362q0 -196 -95.5 -361t-260.5 -260.5t-361 -95.5q-146 0 -279 56.5t-229 152.5t-152.5 229t-56.5 279zM328 717q0 -179 126 -304.5t304 -125.5q180 0 305 125t125 305q0 181 -124 305.5t-306 124.5q-180 0 -305 -125t-125 -305z" />
    <glyph glyph-name="multiply" unicode="&#xd7;" horiz-adv-x="1249" 
d="M625 930l266 268l215 -215l-268 -266l268 -268l-215 -213l-266 266l-269 -266l-213 213l267 268l-267 266l213 215z" />
    <glyph glyph-name="Oslash" unicode="&#xd8;" horiz-adv-x="1515" 
d="M758 1434q221 0 395 -119l92 92l203 -203l-92 -92q119 -174 119 -395q0 -196 -95.5 -361t-260.5 -260.5t-361 -95.5q-222 0 -396 119l-92 -92l-202 202l92 93q-119 174 -119 395q0 196 95.5 361t260.5 260.5t361 95.5zM369 530l575 576q-90 41 -186 41q-180 0 -305 -125
t-125 -305q0 -97 41 -187zM758 287q180 0 305 125t125 305q0 96 -41 186l-576 -575q90 -41 187 -41z" />
    <glyph glyph-name="Ugrave" unicode="&#xd9;" 
d="M299 1864h344l115 -359h-287zM901 573v861h287v-861q0 -157 -76.5 -289t-208.5 -208t-289 -76q-118 0 -224 45t-182.5 121.5t-121.5 182.5t-45 224v861h287v-861q0 -120 83 -203t203 -83t203.5 83t83.5 203z" />
    <glyph glyph-name="Uacute" unicode="&#xda;" 
d="M471 1505l115 359h344l-172 -359h-287zM901 573v861h287v-861q0 -157 -76.5 -289t-208.5 -208t-289 -76q-118 0 -224 45t-182.5 121.5t-121.5 182.5t-45 224v861h287v-861q0 -120 83 -203t203 -83t203.5 83t83.5 203z" />
    <glyph glyph-name="Ucircumflex" unicode="&#xdb;" 
d="M987 1542h-287l-86 121l-86 -121h-286l229 322h287zM901 573v861h287v-861q0 -157 -76.5 -289t-208.5 -208t-289 -76q-118 0 -224 45t-182.5 121.5t-121.5 182.5t-45 224v861h287v-861q0 -120 83 -203t203 -83t203.5 83t83.5 203z" />
    <glyph glyph-name="Udieresis" unicode="&#xdc;" horiz-adv-x="1226" 
d="M485 1597q-51 -51 -123 -51q-69 0 -120 51q-51 49 -51 121t51 123q49 49 120 49q74 0 123 -49q49 -51 49 -123t-49 -121zM985 1597q-51 -51 -121 -51q-67 0 -121 51q-51 49 -51 121t51 123q49 49 121 49q74 0 123 -49q50 -51 49.5 -123t-51.5 -121zM901 573v859h287v-859
q0 -157 -76.5 -289t-208.5 -208t-289 -76q-118 0 -224 45t-182.5 121.5t-121.5 182.5t-45 224v859h287v-859q0 -120 83 -203t203 -83t203.5 83t83.5 203z" />
    <glyph glyph-name="Yacute" unicode="&#xdd;" horiz-adv-x="1300" 
d="M508 1505l115 359h344l-172 -359h-287zM365 1434l286 -529l287 529h322l-465 -861v-573h-287v573l-467 861h324z" />
    <glyph glyph-name="Thorn" unicode="&#xde;" 
d="M328 1434v-144h286q157 0 289 -76t208.5 -208t76.5 -289t-76.5 -289t-208.5 -208.5t-289 -76.5h-286v-143h-287v1434h287zM328 1004v-574h286q120 0 203.5 83.5t83.5 203.5t-83.5 203.5t-203.5 83.5h-286z" />
    <glyph glyph-name="germandbls" unicode="&#xdf;" horiz-adv-x="1157" 
d="M1001 717q115 -109 115 -287q0 -106 -37.5 -189t-103.5 -134.5t-153 -78t-191 -26.5q-75 0 -160 12l10 273q62 -6 107 -6q241 0 241 149q0 143 -344 143v287q344 0 344 144q0 143 -215 143q-38 0 -100 -29q-52 -22 -90.5 -68t-58 -103.5t-28.5 -114t-9 -115.5v-860h-287
v860q0 198 47 344t133 225q161 148 393 148q104 0 193.5 -26t159 -77t109.5 -135t40 -192q0 -178 -115 -287z" />
    <glyph glyph-name="agrave" unicode="&#xe0;" 
d="M299 1577h344l115 -358h-287zM901 1069v21l45 57h242v-1147h-287v78q-135 -78 -287 -78q-118 0 -224 45t-182.5 121.5t-121.5 182.5t-45 224q0 157 76 289t208 208.5t289 76.5q152 0 287 -78zM328 573q0 -120 83 -203t203 -83t203.5 83t83.5 203t-83.5 203.5t-203.5 83.5
t-203 -83.5t-83 -203.5z" />
    <glyph glyph-name="aacute" unicode="&#xe1;" 
d="M930 1577l-172 -358h-287l115 358h344zM901 1069v21l45 57h242v-1147h-287v78q-135 -78 -287 -78q-118 0 -224 45t-182.5 121.5t-121.5 182.5t-45 224q0 157 76 289t208 208.5t289 76.5q152 0 287 -78zM328 573q0 -120 83 -203t203 -83t203.5 83t83.5 203t-83.5 203.5
t-203.5 83.5t-203 -83.5t-83 -203.5z" />
    <glyph glyph-name="acircumflex" unicode="&#xe2;" 
d="M471 1577h287l229 -322h-287l-86 121l-86 -121h-286zM901 1071v19l45 57h242v-1147h-287v78q-135 -78 -287 -78q-118 0 -224 45t-182.5 121.5t-121.5 182.5t-45 224q0 157 76 289t208 208.5t289 76.5q153 0 287 -76zM328 573q0 -120 83 -203t203 -83t203.5 83t83.5 203
t-83.5 203.5t-203.5 83.5t-203 -83.5t-83 -203.5z" />
    <glyph glyph-name="atilde" unicode="&#xe3;" 
d="M471 1253l-215 144q4 19 43 76q46 69 119 104t160 35q51 0 124 -31q67 -33 99 -33q51 0 100 64l215 -144q-3 -17 -41 -73q-47 -68 -121.5 -105t-160.5 -37q-56 0 -123 33q-73 31 -101 31q-52 0 -98 -64zM901 1069v21l45 57h242v-1147h-287v78q-135 -78 -287 -78
q-118 0 -224 45t-182.5 121.5t-121.5 182.5t-45 224q0 157 76 289t208 208.5t289 76.5q152 0 287 -78zM328 573q0 -120 83 -203t203 -83t203.5 83t83.5 203t-83.5 203.5t-203.5 83.5t-203 -83.5t-83 -203.5z" />
    <glyph glyph-name="adieresis" unicode="&#xe4;" 
d="M485 1554q51 -51 51 -120.5t-51 -120.5t-120 -51q-72 0 -122 50t-50 122t50 122t122 50q68 0 120 -52zM989 1554q49 -51 49 -120.5t-49 -120.5q-51 -51 -123 -51q-70 0 -121 51q-51 50 -51 121t51 122q50 50 121 50t123 -52zM901 1069v21l45 57h242v-1147h-287v78
q-135 -78 -287 -78q-118 0 -224 45t-182.5 121.5t-121.5 182.5t-45 224q0 157 76 289t208 208.5t289 76.5q152 0 287 -78zM328 573q0 -120 83 -203t203 -83t203.5 83t83.5 203t-83.5 203.5t-203.5 83.5t-203 -83.5t-83 -203.5z" />
    <glyph glyph-name="aring" unicode="&#xe5;" 
d="M614 1219q-120 0 -203 83t-83 203t83 203.5t203 83.5t203.5 -83.5t83.5 -203.5t-83.5 -203t-203.5 -83zM666 1556q-24 21 -52 21t-49 -21q-22 -22 -22 -50t22 -50q20 -20 51 -20q30 0 50 20q21 22 21 49t-21 51zM614 0q-118 0 -224 45t-182.5 121.5t-121.5 182.5t-45 224
q0 157 76 289t208 208.5t289 76.5q152 0 287 -78v21l45 57h242v-1147h-287v78q-135 -78 -287 -78zM614 860q-120 0 -203 -83.5t-83 -203.5t83 -203t203 -83t203.5 83t83.5 203t-83.5 203.5t-203.5 83.5z" />
    <glyph glyph-name="ae" unicode="&#xe6;" horiz-adv-x="2017" 
d="M1976 573q0 -73 -18 -143h-817q61 -143 262 -143q172 0 254 73l248 -145q-48 -71 -137 -121.5t-181.5 -72t-183.5 -21.5q-254 0 -422 180q-158 -180 -438 -180q-71 0 -139.5 12.5t-135 40.5t-116.5 69.5t-80.5 104.5t-30.5 140q0 98 44.5 171.5t119 114t159.5 59.5
t179 19q155 0 243 -14q0 48 -43 84t-100 49q-58 10 -100 10q-199 0 -330 -76l-115 263q81 50 205 75t240 25q256 0 428 -199q82 94 195 146.5t237 52.5q157 0 289 -76.5t208 -208.5t76 -289zM1149 717h508q-73 143 -254 143t-254 -143zM543 287q84 0 154 38.5t89 104.5
q-85 14 -243 14q-187 0 -187 -77q0 -80 187 -80z" />
    <glyph glyph-name="ccedilla" unicode="&#xe7;" horiz-adv-x="1132" 
d="M596 315q79 0 145.5 42t102.5 112l248 -125q-108 -211 -332 -281q112 -57 112 -180q0 -15 -4 -51q-17 -94 -111.5 -151.5t-234.5 -57.5q-95 0 -205 29l56 209q73 -21 127 -21q87 0 90 45v2q0 40 -68 64q-47 20 -121 20v29l21 66q-170 55 -275.5 201t-105.5 325
q0 153 73.5 280.5t201 201t280.5 73.5q157 0 292 -84t204 -223l-248 -123q-36 70 -102.5 111.5t-145.5 41.5q-116 0 -197.5 -81.5t-81.5 -196.5t81.5 -196t197.5 -81z" />
    <glyph glyph-name="egrave" unicode="&#xe8;" 
d="M299 1577h344l115 -358h-287zM1188 573q0 -69 -19 -143h-817q61 -143 262 -143q172 0 254 73l248 -145q-48 -71 -137 -121.5t-181.5 -72t-183.5 -21.5q-120 0 -226 44.5t-182 120.5t-120.5 182t-44.5 226q0 157 76 289t208 208.5t289 76.5t289 -76.5t208.5 -208.5
t76.5 -289zM360 717h508q-73 143 -254 143t-254 -143z" />
    <glyph glyph-name="eacute" unicode="&#xe9;" 
d="M471 1219l115 358h344l-172 -358h-287zM1188 573q0 -69 -19 -143h-817q61 -143 262 -143q172 0 254 73l248 -145q-48 -71 -137 -121.5t-181.5 -72t-183.5 -21.5q-120 0 -226 44.5t-182 120.5t-120.5 182t-44.5 226q0 157 76 289t208 208.5t289 76.5t289 -76.5
t208.5 -208.5t76.5 -289zM360 717h508q-73 143 -254 143t-254 -143z" />
    <glyph glyph-name="ecircumflex" unicode="&#xea;" 
d="M987 1255h-287l-86 121l-86 -121h-286l229 322h287zM1188 573q0 -69 -19 -143h-817q61 -143 262 -143q172 0 254 73l248 -145q-48 -71 -137 -121.5t-181.5 -72t-183.5 -21.5q-120 0 -226 44.5t-182 120.5t-120.5 182t-44.5 226q0 157 76 289t208 208.5t289 76.5
t289 -76.5t208.5 -208.5t76.5 -289zM360 717h508q-73 143 -254 143t-254 -143z" />
    <glyph glyph-name="edieresis" unicode="&#xeb;" 
d="M365 1262q-72 0 -122 50t-50 122t50 122t122 50q69 0 120.5 -51.5t51.5 -120.5t-51.5 -120.5t-120.5 -51.5zM989 1313q-51 -51 -123 -51q-70 0 -121 51q-51 50 -51 121t51 122q50 50 121 50t123 -52q49 -51 49 -120.5t-49 -120.5zM1188 573q0 -69 -19 -143h-817
q61 -143 262 -143q172 0 254 73l248 -145q-48 -71 -137 -121.5t-181.5 -72t-183.5 -21.5q-120 0 -226 44.5t-182 120.5t-120.5 182t-44.5 226q0 157 76 289t208 208.5t289 76.5t289 -76.5t208.5 -208.5t76.5 -289zM360 717h508q-73 143 -254 143t-254 -143z" />
    <glyph glyph-name="igrave" unicode="&#xec;" horiz-adv-x="368" 
d="M-131 1577h344l115 -358h-287zM328 1147v-1147h-287v1147h287z" />
    <glyph glyph-name="iacute" unicode="&#xed;" horiz-adv-x="368" 
d="M500 1577l-172 -358h-287l115 358h344zM328 1147v-1147h-287v1147h287z" />
    <glyph glyph-name="icircumflex" unicode="&#xee;" horiz-adv-x="368" 
d="M41 1577h287l229 -322h-287l-86 121l-86 -121h-286zM328 1147v-1147h-287v1147h287z" />
    <glyph glyph-name="idieresis" unicode="&#xef;" horiz-adv-x="370" 
d="M55 1554q51 -51 51 -120.5t-51 -120.5t-121 -51q-69 0 -120 51t-51 120.5t51 120.5q49 52 120 52q72 0 121 -52zM559 1554q49 -51 49 -120.5t-49 -120.5q-51 -51 -123 -51q-70 0 -121 51t-51 120.5t51 120.5q49 52 121 52q74 0 123 -52zM330 1147v-1147h-287v1147h287z
" />
    <glyph glyph-name="eth" unicode="&#xf0;" horiz-adv-x="1085" 
d="M926 1397l53 -281l-80 -16q145 -251 145 -527q0 -93 -20 -177.5t-61 -157t-100 -125.5t-141 -83t-179 -30q-217 0 -359.5 142.5t-142.5 359.5q0 89 32.5 163.5t87.5 125.5t128 86.5t152.5 52t162.5 16.5h39q-24 45 -59 94l-310 -57l-53 281l139 26q-59 50 -118 86l372 58
q36 -26 88 -78zM543 287q92 0 146 56t54 159q0 113 -22 168l-6 18q-36 4 -72 4q-41 0 -80 -4t-83.5 -17t-76.5 -33t-53.5 -55t-21.5 -81q0 -100 60 -157.5t155 -57.5z" />
    <glyph glyph-name="ntilde" unicode="&#xf1;" horiz-adv-x="1157" 
d="M362 1253l-215 144q4 19 43 76q46 69 120 104t161 35q52 0 125 -31q67 -33 98 -33q53 0 99 64l215 -144q-3 -17 -41 -73q-47 -68 -121 -105t-160 -37q-58 0 -125 33q-73 31 -98 31q-52 0 -101 -64zM578 1147q147 0 271 -72t195.5 -196t71.5 -271v-608h-287v608
q0 104 -73.5 178t-177.5 74t-177 -74t-73 -178v-608h-287v1147h242l45 -57v-7q113 64 250 64z" />
    <glyph glyph-name="ograve" unicode="&#xf2;" 
d="M299 1577h344l115 -358h-287zM41 573q0 157 76 289t208 208.5t289 76.5t289 -76.5t208.5 -208.5t76.5 -289t-76.5 -289t-208.5 -208t-289 -76q-118 0 -224 45t-182.5 121.5t-121.5 182.5t-45 224zM328 573q0 -120 83 -203t203 -83t203.5 83t83.5 203t-83.5 203.5
t-203.5 83.5t-203 -83.5t-83 -203.5z" />
    <glyph glyph-name="oacute" unicode="&#xf3;" 
d="M930 1577l-172 -358h-287l115 358h344zM41 573q0 157 76 289t208 208.5t289 76.5t289 -76.5t208.5 -208.5t76.5 -289t-76.5 -289t-208.5 -208t-289 -76q-118 0 -224 45t-182.5 121.5t-121.5 182.5t-45 224zM328 573q0 -120 83 -203t203 -83t203.5 83t83.5 203
t-83.5 203.5t-203.5 83.5t-203 -83.5t-83 -203.5z" />
    <glyph glyph-name="ocircumflex" unicode="&#xf4;" 
d="M471 1577h287l229 -322h-287l-86 121l-86 -121h-286zM41 573q0 157 76 289t208 208.5t289 76.5t289 -76.5t208.5 -208.5t76.5 -289t-76.5 -289t-208.5 -208t-289 -76q-118 0 -224 45t-182.5 121.5t-121.5 182.5t-45 224zM328 573q0 -120 83 -203t203 -83t203.5 83
t83.5 203t-83.5 203.5t-203.5 83.5t-203 -83.5t-83 -203.5z" />
    <glyph glyph-name="otilde" unicode="&#xf5;" 
d="M399 1253l-215 144q4 19 43 76q46 69 119 104t160 35q50 0 123 -31q67 -33 100 -33q51 0 100 64l215 -144q-4 -19 -40 -73q-47 -68 -122 -105t-161 -37q-56 0 -123 33q-73 31 -100 31q-53 0 -99 -64zM41 573q0 157 76 289t208 208.5t289 76.5t289 -76.5t208.5 -208.5
t76.5 -289t-76.5 -289t-208.5 -208t-289 -76q-118 0 -224 45t-182.5 121.5t-121.5 182.5t-45 224zM328 573q0 -120 83 -203t203 -83t203.5 83t83.5 203t-83.5 203.5t-203.5 83.5t-203 -83.5t-83 -203.5z" />
    <glyph glyph-name="odieresis" unicode="&#xf6;" 
d="M494 1554q50 -51 50 -120.5t-50 -120.5q-51 -51 -123 -51q-70 0 -121 51t-51 120.5t51 120.5q49 52 121 52q74 0 123 -52zM993 1554q51 -51 51 -120.5t-51 -120.5t-121 -51q-66 0 -120 51q-51 51 -51 120.5t51 120.5q52 52 120 52q72 0 121 -52zM41 573q0 157 76 289
t208 208.5t289 76.5t289 -76.5t208.5 -208.5t76.5 -289t-76.5 -289t-208.5 -208t-289 -76q-118 0 -224 45t-182.5 121.5t-121.5 182.5t-45 224zM328 573q0 -120 83 -203t203 -83t203.5 83t83.5 203t-83.5 203.5t-203.5 83.5t-203 -83.5t-83 -203.5z" />
    <glyph glyph-name="divide" unicode="&#xf7;" horiz-adv-x="1249" 
d="M748 1313q50 -51 50 -123t-50 -121q-51 -51 -123 -51q-70 0 -121 51q-51 49 -51 121t51 123q49 49 121 49q74 0 123 -49zM123 860h1003v-287h-1003v287zM748 367q50 -51 50 -123t-50 -121q-51 -51 -123 -51q-70 0 -121 51q-51 50 -51 121.5t51 122.5q49 49 121 49
q74 0 123 -49z" />
    <glyph glyph-name="oslash" unicode="&#xf8;" 
d="M979 1141l203 -203l-74 -74q80 -133 80 -291q0 -157 -76.5 -289t-208.5 -208t-289 -76t-290 80l-74 -74l-203 203l74 74q-80 133 -80 290t76 289t208 208.5t289 76.5q158 0 291 -80zM328 573q0 -31 10 -73l350 350q-42 10 -74 10q-120 0 -203 -83.5t-83 -203.5zM614 287
q120 0 203.5 83t83.5 203q0 32 -10 74l-350 -350q42 -10 73 -10z" />
    <glyph glyph-name="ugrave" unicode="&#xf9;" horiz-adv-x="1157" 
d="M264 1577h344l115 -358h-287zM829 539v608h287v-608q0 -146 -71 -270t-194.5 -196.5t-270.5 -72.5t-271 72t-196 196t-72 271v608h287v-608q0 -104 74 -178t178 -74t176.5 73.5t72.5 178.5z" />
    <glyph glyph-name="uacute" unicode="&#xfa;" horiz-adv-x="1157" 
d="M895 1577l-172 -358h-287l115 358h344zM829 539v608h287v-608q0 -146 -71 -270t-194.5 -196.5t-270.5 -72.5t-271 72t-196 196t-72 271v608h287v-608q0 -104 74 -178t178 -74t176.5 73.5t72.5 178.5z" />
    <glyph glyph-name="ucircumflex" unicode="&#xfb;" horiz-adv-x="1157" 
d="M436 1577h287l229 -322h-286l-86 121l-86 -121h-287zM829 539v608h287v-608q0 -146 -71 -270t-194.5 -196.5t-270.5 -72.5t-271 72t-196 196t-72 271v608h287v-608q0 -104 74 -178t178 -74t176.5 73.5t72.5 178.5z" />
    <glyph glyph-name="udieresis" unicode="&#xfc;" horiz-adv-x="1177" 
d="M469 1554q51 -51 51 -120.5t-51 -120.5t-121 -51q-67 0 -121 51q-51 51 -51 120.5t51 120.5q52 52 121 52q72 0 121 -52zM973 1554q49 -51 49 -120.5t-49 -120.5q-51 -51 -123 -51q-70 0 -121 51t-51 120.5t51 120.5q49 52 121 52q74 0 123 -52zM850 539v608h287v-608
q0 -146 -71.5 -270t-195 -196.5t-270.5 -72.5t-271 72t-196 196t-72 271v608h287v-608q0 -104 74 -178t178 -74t177 74t73 178z" />
    <glyph glyph-name="yacute" unicode="&#xfd;" 
d="M471 1219l115 358h344l-172 -358h-287zM328 1147l286 -764l287 764h287l-430 -1147q-150 -430 -473 -430q-63 0 -126 13.5t-93 29.5l-25 14l100 273q43 -43 144 -43q59 0 108 33.5t64 72.5l14 37l-430 1147h287z" />
    <glyph glyph-name="thorn" unicode="&#xfe;" 
d="M614 1290q157 0 289 -76t208.5 -208t76.5 -289t-76.5 -289t-208.5 -208.5t-289 -76.5q-151 0 -286 78v-221h-287v1434h287v-222q135 78 286 78zM328 717q0 -120 83 -203.5t203 -83.5t203.5 83.5t83.5 203.5t-83.5 203.5t-203.5 83.5t-203 -83.5t-83 -203.5z" />
    <glyph glyph-name="ydieresis" unicode="&#xff;" horiz-adv-x="1230" 
d="M537 1436q0 -72 -50 -122t-122 -50q-71 0 -121.5 51t-50.5 121q0 72 50 122t122 50q70 0 121 -50.5t51 -121.5zM989 1315q-51 -51 -123 -51q-70 0 -121 51q-51 50 -51 121.5t51 122.5q49 49 121 49q74 0 123 -49q49 -51 49 -123t-49 -121zM328 1149l286 -766l287 766h289
l-432 -1149q-150 -430 -473 -430q-63 0 -126 13.5t-93 29.5l-25 14l100 273q43 -43 144 -43q59 0 108 33.5t64 72.5l14 37l-430 1149h287z" />
    <glyph glyph-name="Amacron" unicode="&#x100;" horiz-adv-x="1372" 
d="M399 1864h574v-287h-574v287zM866 1434l465 -1434h-287l-92 287h-530l-94 -287h-287l467 1434h358zM858 573l-172 529l-172 -529h344z" />
    <glyph glyph-name="amacron" unicode="&#x101;" 
d="M328 1577h573v-287h-573v287zM901 1069v21l45 57h242v-1147h-287v78q-135 -78 -287 -78q-118 0 -224 45t-182.5 121.5t-121.5 182.5t-45 224q0 157 76 289t208 208.5t289 76.5q152 0 287 -78zM328 573q0 -120 83 -203t203 -83t203.5 83t83.5 203t-83.5 203.5t-203.5 83.5
t-203 -83.5t-83 -203.5z" />
    <glyph glyph-name="Abreve" unicode="&#x102;" horiz-adv-x="1372" 
d="M1044 1864q0 -151 -103.5 -255t-254.5 -104t-254.5 104t-103.5 255h286q0 -29 21.5 -50.5t50.5 -21.5t50.5 21.5t21.5 50.5h286zM866 1434l465 -1434h-287l-92 287h-530l-94 -287h-287l467 1434h358zM858 573l-172 529l-172 -529h344z" />
    <glyph glyph-name="abreve" unicode="&#x103;" 
d="M543 1577q0 -28 21.5 -50t49.5 -22t50 21t22 51h287q0 -151 -104 -254.5t-255 -103.5t-254.5 103.5t-103.5 254.5h287zM901 1071v19l45 57h242v-1147h-287v78q-135 -78 -287 -78q-118 0 -224 45t-182.5 121.5t-121.5 182.5t-45 224q0 157 76 289t208 208.5t289 76.5
q153 0 287 -76zM328 573q0 -120 83 -203t203 -83t203.5 83t83.5 203t-83.5 203.5t-203.5 83.5t-203 -83.5t-83 -203.5z" />
    <glyph glyph-name="Aogonek" unicode="&#x104;" horiz-adv-x="1355" 
d="M1346 -139l71 -258q-106 -33 -200 -33q-126 0 -202.5 58.5t-94.5 160.5q-5 45 -5 51q0 127 109 219l-74 228h-530l-92 -287h-287l465 1434h358l467 -1434q-38 -2 -73.5 -11.5t-67 -35.5t-31.5 -64q0 -24 29 -43q21 -12 53 -12q47 0 105 27zM858 573l-172 531l-172 -531
h344z" />
    <glyph glyph-name="aogonek" unicode="&#x105;" horiz-adv-x="1234" 
d="M1202 -139l72 -258q-106 -33 -201 -33q-132 0 -216.5 69.5t-84.5 196.5q0 52 24.5 111t61.5 92q23 23 43 35v4q-135 -78 -287 -78q-118 0 -224 45t-182.5 121.5t-121.5 182.5t-45 224q0 157 76 289t208 208.5t289 76.5q152 0 287 -78v21l45 57h242v-1147q-27 -1 -54 -6.5
t-55 -17.5t-45.5 -34t-17.5 -51q0 -26 28 -45q21 -12 54 -12q46 0 104 27zM328 573q0 -120 83 -203t203 -83t203.5 83t83.5 203t-83.5 203.5t-203.5 83.5t-203 -83.5t-83 -203.5z" />
    <glyph glyph-name="Cacute" unicode="&#x106;" horiz-adv-x="1466" 
d="M1073 1864l-172 -359h-287l115 359h344zM758 287q138 0 252 82.5t157 214.5l258 -129q-82 -206 -264 -330.5t-403 -124.5q-146 0 -279 56.5t-229 152.5t-152.5 229t-56.5 279q0 196 95.5 361t260.5 260.5t361 95.5q224 0 404 -123t263 -332l-258 -129q-44 135 -156 216
t-253 81q-180 0 -305 -125t-125 -305q0 -179 126 -304.5t304 -125.5z" />
    <glyph glyph-name="cacute" unicode="&#x107;" horiz-adv-x="1167" 
d="M930 1577l-172 -358h-287l115 358h344zM614 287q81 0 150 42.5t106 114.5l256 -127q-70 -145 -210 -231t-302 -86q-118 0 -224 45t-182.5 121.5t-121.5 182.5t-45 224q0 157 76 289t208 208.5t289 76.5q164 0 302 -85.5t210 -232.5l-256 -127q-37 72 -106 115t-150 43
q-120 0 -203 -83.5t-83 -203.5t83 -203t203 -83z" />
    <glyph glyph-name="Ccircumflex" unicode="&#x108;" horiz-adv-x="1466" 
d="M614 1864h287l229 -322h-286l-86 121l-86 -121h-287zM758 287q138 0 252 82.5t157 214.5l258 -129q-82 -206 -264 -330.5t-403 -124.5q-146 0 -279 56.5t-229 152.5t-152.5 229t-56.5 279q0 196 95.5 361t260.5 260.5t361 95.5q224 0 404 -123t263 -332l-258 -129
q-44 135 -156 216t-253 81q-180 0 -305 -125t-125 -305q0 -179 126 -304.5t304 -125.5z" />
    <glyph glyph-name="ccircumflex" unicode="&#x109;" horiz-adv-x="1167" 
d="M471 1577h287l229 -322h-287l-86 121l-86 -121h-286zM614 287q81 0 150 42.5t106 114.5l256 -127q-70 -145 -210 -231t-302 -86q-118 0 -224 45t-182.5 121.5t-121.5 182.5t-45 224q0 157 76 289t208 208.5t289 76.5q164 0 302 -85.5t210 -232.5l-256 -127
q-37 72 -106 115t-150 43q-120 0 -203 -83.5t-83 -203.5t83 -203t203 -83z" />
    <glyph glyph-name="Cdotaccent" unicode="&#x10a;" horiz-adv-x="1466" 
d="M879 1841q51 -51 51 -121t-51 -121t-121 -51q-67 0 -121 51q-51 51 -51 121t51 121t121 51q73 0 121 -51zM758 287q138 0 252 82.5t157 214.5l258 -129q-82 -206 -264 -330.5t-403 -124.5q-146 0 -279 56.5t-229 152.5t-152.5 229t-56.5 279q0 196 95.5 361t260.5 260.5
t361 95.5q224 0 404 -123t263 -332l-258 -129q-44 135 -156 216t-253 81q-180 0 -305 -125t-125 -305q0 -179 126 -304.5t304 -125.5z" />
    <glyph glyph-name="cdotaccent" unicode="&#x10b;" horiz-adv-x="1167" 
d="M735 1554q51 -51 51 -120.5t-51 -120.5t-121 -51q-66 0 -120 51q-51 51 -51 120.5t51 120.5q52 52 120 52q72 0 121 -52zM614 287q81 0 150 42.5t106 114.5l256 -127q-70 -145 -210 -231t-302 -86q-118 0 -224 45t-182.5 121.5t-121.5 182.5t-45 224q0 157 76 289
t208 208.5t289 76.5q164 0 302 -85.5t210 -232.5l-256 -127q-37 72 -106 115t-150 43q-120 0 -203 -83.5t-83 -203.5t83 -203t203 -83z" />
    <glyph glyph-name="Ccaron" unicode="&#x10c;" horiz-adv-x="1466" 
d="M901 1542h-287l-229 322h287l86 -121l86 121h286zM758 287q138 0 252 82.5t157 214.5l258 -129q-82 -206 -264 -330.5t-403 -124.5q-146 0 -279 56.5t-229 152.5t-152.5 229t-56.5 279q0 196 95.5 361t260.5 260.5t361 95.5q224 0 404 -123t263 -332l-258 -129
q-44 135 -156 216t-253 81q-180 0 -305 -125t-125 -305q0 -179 126 -304.5t304 -125.5z" />
    <glyph glyph-name="ccaron" unicode="&#x10d;" horiz-adv-x="1167" 
d="M758 1255h-287l-229 322h286l86 -121l86 121h287zM614 287q81 0 150 42.5t106 114.5l256 -127q-70 -145 -210 -231t-302 -86q-118 0 -224 45t-182.5 121.5t-121.5 182.5t-45 224q0 157 76 289t208 208.5t289 76.5q164 0 302 -85.5t210 -232.5l-256 -127q-37 72 -106 115
t-150 43q-120 0 -203 -83.5t-83 -203.5t83 -203t203 -83z" />
    <glyph glyph-name="Dcaron" unicode="&#x10e;" horiz-adv-x="1372" 
d="M772 1864h287l-230 -322h-286l-230 322h287l86 -121zM41 0v1434h573q197 0 362 -95t260 -260t95 -362q0 -196 -95.5 -361t-260.5 -260.5t-361 -95.5h-573zM328 1147v-860h286q180 0 305 125t125 305q0 181 -124 305.5t-306 124.5h-286z" />
    <glyph glyph-name="dcaron" unicode="&#x10f;" horiz-adv-x="1687" 
d="M1589 1147h-286v502h344zM901 1069v508h287v-1577h-287v78q-135 -78 -287 -78q-118 0 -224 45t-182.5 121.5t-121.5 182.5t-45 224q0 157 76 289t208 208.5t289 76.5q152 0 287 -78zM328 573q0 -120 83 -203t203 -83t203.5 83t83.5 203t-83.5 203.5t-203.5 83.5
t-203 -83.5t-83 -203.5z" />
    <glyph glyph-name="Dcroat" unicode="&#x110;" horiz-adv-x="1515" 
d="M184 860v574h574q197 0 362 -95t260 -260t95 -362q0 -196 -95.5 -361t-260.5 -260.5t-361 -95.5h-574v573h-143v287h143zM471 573v-286h287q180 0 305 125t125 305q0 181 -124 305.5t-306 124.5h-287v-287h143v-287h-143z" />
    <glyph glyph-name="dcroat" unicode="&#x111;" horiz-adv-x="1372" 
d="M901 1577h287v-72h143v-286h-143v-1219h-287v78q-135 -78 -287 -78q-118 0 -224 45t-182.5 121.5t-121.5 182.5t-45 224q0 157 76 289t208 208.5t289 76.5q152 0 287 -78v150h-143v286h143v72zM328 573q0 -120 83 -203t203 -83t203.5 83t83.5 203t-83.5 203.5
t-203.5 83.5t-203 -83.5t-83 -203.5z" />
    <glyph glyph-name="Emacron" unicode="&#x112;" horiz-adv-x="1085" 
d="M256 1864h573v-287h-573v287zM41 1434h1003v-287h-716v-287h573v-287h-573v-286h716v-287h-1003v1434z" />
    <glyph glyph-name="emacron" unicode="&#x113;" 
d="M901 1290h-573v287h573v-287zM1169 430h-817q61 -143 262 -143q172 0 254 73l248 -145q-48 -71 -137 -121.5t-181.5 -72t-183.5 -21.5q-120 0 -226 44.5t-182 120.5t-120.5 182t-44.5 226q0 157 76 289t208 208.5t289 76.5t289 -76.5t208.5 -208.5t76.5 -289
q0 -69 -19 -143zM360 717h508q-73 143 -254 143t-254 -143z" />
    <glyph glyph-name="Ebreve" unicode="&#x114;" horiz-adv-x="1085" 
d="M901 1864q0 -151 -103.5 -255t-254.5 -104t-255 104t-104 255h287q0 -29 21.5 -50.5t50.5 -21.5t50 21.5t21 50.5h287zM41 1434h1003v-287h-716v-287h573v-287h-573v-286h716v-287h-1003v1434z" />
    <glyph glyph-name="ebreve" unicode="&#x115;" 
d="M973 1577q0 -151 -104 -254.5t-255 -103.5t-254.5 103.5t-103.5 254.5h287q0 -29 21 -50.5t50 -21.5t50.5 21.5t21.5 50.5h287zM1188 573q0 -69 -19 -143h-817q61 -143 262 -143q172 0 254 73l248 -145q-48 -71 -137 -121.5t-181.5 -72t-183.5 -21.5q-120 0 -226 44.5
t-182 120.5t-120.5 182t-44.5 226q0 157 76 289t208 208.5t289 76.5t289 -76.5t208.5 -208.5t76.5 -289zM360 717h508q-73 143 -254 143t-254 -143z" />
    <glyph glyph-name="Edotaccent" unicode="&#x116;" horiz-adv-x="1085" 
d="M666 1599q-51 -51 -123 -51q-70 0 -121 51t-51 121t51 121q48 51 121 51q75 0 123 -51q50 -51 50 -121t-50 -121zM41 1434h1003v-287h-716v-287h573v-287h-573v-286h716v-287h-1003v1434z" />
    <glyph glyph-name="edotaccent" unicode="&#x117;" horiz-adv-x="1249" 
d="M735 1313q-51 -51 -121 -51q-66 0 -120 51q-51 51 -51 120.5t51 120.5q52 52 120 52q72 0 121 -52q51 -51 51 -120.5t-51 -120.5zM1188 573q0 -69 -19 -143h-817q61 -143 262 -143q172 0 254 73l248 -145q-48 -71 -137 -121.5t-181.5 -72t-183.5 -21.5q-120 0 -226 44.5
t-182 120.5t-120.5 182t-44.5 226q0 157 76 289t208 208.5t289 76.5t289 -76.5t208.5 -208.5t76.5 -289zM360 717h508q-73 143 -254 143t-254 -143z" />
    <glyph glyph-name="Eogonek" unicode="&#x118;" horiz-adv-x="1085" 
d="M41 1434h1003v-287h-716v-287h573v-287h-573v-286h716v-287h-337q-38 -2 -73 -11.5t-66 -35.5t-31 -64q0 -24 28 -43q21 -12 53 -12q44 0 105 27l72 -258q-106 -33 -201 -33q-126 0 -203 58.5t-96 160.5q-4 32 -4 47q0 88 55 164h-305v1434z" />
    <glyph glyph-name="eogonek" unicode="&#x119;" 
d="M1188 573q0 -69 -19 -143h-817q61 -143 262 -143q173 0 254 75l248 -147q-46 -70 -142.5 -123t-191.5 -74q-62 -12 -117 -44.5t-55 -82.5q0 -53 74 -53q45 0 111 29l71 -258q-112 -33 -200 -33q-135 0 -219.5 70t-84.5 196q0 98 74 187q-180 58 -287.5 206.5
t-107.5 337.5q0 157 76 289t208 208.5t289 76.5t289 -76.5t208.5 -208.5t76.5 -289zM360 717h508q-70 143 -254 143t-254 -143z" />
    <glyph glyph-name="Ecaron" unicode="&#x11a;" horiz-adv-x="1085" 
d="M629 1864h286l-229 -322h-287l-229 322h287l86 -121zM41 1434h1003v-287h-716v-287h573v-287h-573v-286h716v-287h-1003v1434z" />
    <glyph glyph-name="ecaron" unicode="&#x11b;" 
d="M700 1577h287l-229 -322h-287l-229 322h286l86 -121zM1188 573q0 -69 -19 -143h-817q61 -143 262 -143q172 0 254 73l248 -145q-48 -71 -137 -121.5t-181.5 -72t-183.5 -21.5q-120 0 -226 44.5t-182 120.5t-120.5 182t-44.5 226q0 157 76 289t208 208.5t289 76.5
t289 -76.5t208.5 -208.5t76.5 -289zM360 717h508q-73 143 -254 143t-254 -143z" />
    <glyph glyph-name="Gcircumflex" unicode="&#x11c;" horiz-adv-x="1372" 
d="M1130 1542h-286l-86 121l-86 -121h-287l229 322h287zM1044 573h-286v287h573v-573q-40 -52 -67 -76q-208 -211 -506 -211q-146 0 -279 56.5t-229 152.5t-152.5 229t-56.5 279q0 196 95.5 361t260.5 260.5t361 95.5q180 0 314 -70t259 -213l-223 -184q-60 85 -152 132.5
t-198 47.5q-180 0 -305 -125t-125 -305q0 -179 126 -304.5t304 -125.5q167 0 286 110v176z" />
    <glyph glyph-name="gcircumflex" unicode="&#x11d;" 
d="M987 1255h-287l-86 121l-86 -121h-286l229 322h287zM901 1069v37l45 41h242v-1004q0 -157 -76.5 -289t-208.5 -208t-289 -76q-181 0 -312 41t-261 151l172 224q67 -56 187.5 -92.5t213.5 -36.5q95 0 169.5 61.5t105.5 151.5q-125 -70 -275 -70q-118 0 -224 45
t-182.5 121.5t-121.5 182.5t-45 224q0 157 76 289t208 208.5t289 76.5q152 0 287 -78zM328 573q0 -120 83 -203t203 -83t203.5 83t83.5 203t-83.5 203.5t-203.5 83.5t-203 -83.5t-83 -203.5z" />
    <glyph glyph-name="Gbreve" unicode="&#x11e;" horiz-adv-x="1372" 
d="M829 1864h287q0 -151 -103.5 -255t-254.5 -104q-149 0 -254 105t-105 254h287q0 -29 21.5 -50.5t50.5 -21.5t50 21.5t21 50.5zM758 1434q329 0 573 -283l-223 -184q-60 85 -152 132.5t-198 47.5q-180 0 -305 -125t-125 -305q0 -179 126 -304.5t304 -125.5q167 0 286 110
v176h-286v287h573v-573q-107 -138 -254.5 -212.5t-318.5 -74.5q-146 0 -279 56.5t-229 152.5t-152.5 229t-56.5 279q0 196 95.5 361t260.5 260.5t361 95.5z" />
    <glyph glyph-name="gbreve" unicode="&#x11f;" horiz-adv-x="1226" 
d="M502 1577q0 -28 21.5 -50t49.5 -22t50 21t22 51h287q0 -151 -104 -254.5t-255 -103.5t-254.5 103.5t-103.5 254.5h287zM860 1069v21l45 57h242v-1004q0 -233 -115 -368.5t-344 -192.5q-53 -9 -82 -12h-33q-116 0 -219.5 21.5t-169.5 54.5q-125 62 -168 116l-16 23
l213 190q7 -8 39 -32q24 -19 121 -54q85 -32 200 -32q101 0 181 60t100 157q-133 -74 -281 -74q-118 0 -224 45t-182.5 121.5t-121.5 182.5t-45 224q0 157 76 289t208 208.5t289 76.5q152 0 287 -78zM287 573q0 -120 83 -203t203 -83t203.5 83t83.5 203t-83.5 203.5
t-203.5 83.5t-203 -83.5t-83 -203.5z" />
    <glyph glyph-name="Gdotaccent" unicode="&#x120;" horiz-adv-x="1372" 
d="M637 1841q51 51 121 51q73 0 121 -51q51 -51 51 -121t-51 -121t-121 -51q-67 0 -121 51q-51 51 -51 121t51 121zM41 717q0 196 95.5 361t260.5 260.5t361 95.5q180 0 314 -70t259 -213l-223 -184q-60 85 -152 132.5t-198 47.5q-180 0 -305 -125t-125 -305
q0 -179 126 -304.5t304 -125.5q167 0 286 110v176h-286v287h573v-573q-40 -52 -67 -76q-208 -211 -506 -211q-146 0 -279 56.5t-229 152.5t-152.5 229t-56.5 279z" />
    <glyph glyph-name="gdotaccent" unicode="&#x121;" horiz-adv-x="1230" 
d="M786 1436q0 -72 -50 -122t-122 -50q-70 0 -121 51t-51 121q0 71 51 121.5t121 50.5q72 0 122 -50t50 -122zM901 1071v21l45 57h244v-1006q0 -114 -31 -210t-84 -156q-171 -189 -428 -207h-33q-116 0 -219.5 21.5t-169.5 54.5q-125 62 -168 116l-16 23l213 192
q8 -10 39 -34q60 -40 151 -63t170 -23q101 0 181 60t100 157q-130 -74 -281 -74q-118 0 -224 45t-182.5 121.5t-121.5 182.5t-45 224q0 157 76 289.5t208 209.5t289 77q152 0 287 -78zM328 573q0 -120 83 -203t203 -83t203.5 83t83.5 203q0 121 -83 205t-204 84
q-120 0 -203 -84.5t-83 -204.5z" />
    <glyph glyph-name="uni0122" unicode="&#x122;" horiz-adv-x="1372" 
d="M1044 573h-286v287h573v-573q-40 -52 -67 -76q-208 -211 -506 -211q-146 0 -279 56.5t-229 152.5t-152.5 229t-56.5 279q0 196 95.5 361t260.5 260.5t361 95.5q180 0 314 -70t259 -213l-223 -184q-60 85 -152 132.5t-198 47.5q-180 0 -305 -125t-125 -305
q0 -179 126 -304.5t304 -125.5q167 0 286 110v176zM805 -72q63 -17 95 -65t32 -96q0 -20 -8 -52q-34 -105 -119.5 -186t-190.5 -102l-114 108q90 18 157 88q-71 51 -71 141q0 71 50 122t122 51q26 0 47 -9z" />
    <glyph glyph-name="uni0123" unicode="&#x123;" horiz-adv-x="1226" 
d="M573 1305q-70 0 -122 50t-52 120q0 13 9 49q36 106 120.5 185t188.5 97l114 -100q-92 -22 -157 -90q71 -51 71 -139q0 -71 -50 -121.5t-122 -50.5zM860 1069v21l45 57h242v-1004q0 -233 -115 -368.5t-344 -192.5q-53 -9 -82 -12h-33q-116 0 -219.5 21.5t-169.5 54.5
q-125 62 -168 116l-16 23l213 190q7 -8 39 -32q24 -19 121 -54q85 -32 200 -32q101 0 181 60t100 157q-133 -74 -281 -74q-118 0 -224 45t-182.5 121.5t-121.5 182.5t-45 224q0 157 76 289t208 208.5t289 76.5q152 0 287 -78zM287 573q0 -120 83 -203t203 -83t203.5 83
t83.5 203t-83.5 203.5t-203.5 83.5t-203 -83.5t-83 -203.5z" />
    <glyph glyph-name="Hcircumflex" unicode="&#x124;" 
d="M987 1542h-287l-86 121l-86 -121h-286l229 322h287zM328 860h573v574h287v-1434h-287v573h-573v-573h-287v1434h287v-574z" />
    <glyph glyph-name="hcircumflex" unicode="&#x125;" horiz-adv-x="1157" 
d="M557 1686h-287l-86 120l-86 -120h-286l229 321h287zM580 1147q146 0 269.5 -72t195 -195.5t71.5 -269.5v-610h-287v610q0 103 -73 176.5t-176 73.5q-104 0 -178 -73t-74 -177v-610h-287v1577h287v-492q121 62 252 62z" />
    <glyph glyph-name="Hbar" unicode="&#x126;" horiz-adv-x="1515" 
d="M1331 1434v-144h144v-286h-144v-1004h-287v573h-573v-573h-287v1004h-143v286h143v144h287v-144h573v144h287zM471 1004v-144h573v144h-573z" />
    <glyph glyph-name="hbar" unicode="&#x127;" horiz-adv-x="1280" 
d="M723 1147q146 0 269.5 -72t195.5 -195.5t72 -269.5v-610h-287v610q0 103 -73.5 176.5t-176.5 73.5q-104 0 -178 -73t-74 -177v-610h-287v1219h-143v286h143v72h287v-72h143v-286h-143v-134q121 62 252 62z" />
    <glyph glyph-name="Itilde" unicode="&#x128;" horiz-adv-x="368" 
d="M-31 1540l-215 143q4 18 41 76q106 139 281 139q52 0 123 -30q67 -33 100 -33q52 0 100 63l215 -143q-4 -19 -41 -74q-47 -68 -121.5 -104.5t-160.5 -36.5q-54 0 -121 33q-73 31 -100 31q-55 0 -101 -64zM328 1434v-1434h-287v1434h287z" />
    <glyph glyph-name="itilde" unicode="&#x129;" horiz-adv-x="368" 
d="M-31 1253l-215 144q4 18 41 76q106 139 281 139q50 0 123 -31q67 -33 100 -33q51 0 100 64l215 -144q-3 -17 -41 -73q-47 -68 -121.5 -105t-160.5 -37q-54 0 -121 33q-73 31 -100 31q-55 0 -101 -64zM328 1147v-1147h-287v1147h287z" />
    <glyph glyph-name="Imacron" unicode="&#x12a;" horiz-adv-x="368" 
d="M-102 1864h573v-287h-573v287zM328 1434v-1434h-287v1434h287z" />
    <glyph glyph-name="imacron" unicode="&#x12b;" horiz-adv-x="368" 
d="M-102 1577h573v-287h-573v287zM328 1147v-1147h-287v1147h287z" />
    <glyph glyph-name="Iogonek" unicode="&#x12e;" horiz-adv-x="393" 
d="M342 -139l72 -258q-103 -33 -201 -33q-132 0 -216.5 69.5t-84.5 196.5q0 124 113 225l16 11v1362h287v-1434q-38 -2 -73 -11.5t-66 -35.5t-31 -64q0 -24 28 -43q21 -12 54 -12q44 0 102 27z" />
    <glyph glyph-name="iogonek" unicode="&#x12f;" horiz-adv-x="419" 
d="M334 1313q-51 -51 -123 -51q-70 0 -121 51t-51 120.5t51 120.5q49 52 123 52q71 0 121 -50q50 -51 50 -122.5t-50 -120.5zM369 -141l71 -258q-115 -31 -200 -31q-133 0 -217 68.5t-84 197.5q0 55 26.5 114.5t63.5 90.5l39 31v1075h286v-1147q-38 -2 -73 -11.5t-66 -35.5
t-31 -64q0 -24 29 -43q21 -12 53 -12q45 0 103 25z" />
    <glyph glyph-name="Idotaccent" unicode="&#x130;" horiz-adv-x="380" 
d="M313 1841q49 -51 49 -121t-49 -121q-51 -51 -123 -51q-69 0 -120 51t-51 121t51 121q48 51 120 51q75 0 123 -51zM328 1434v-1434h-287v1434h287z" />
    <glyph glyph-name="dotlessi" unicode="&#x131;" horiz-adv-x="368" 
d="M328 1147v-1147h-287v1147h287z" />
    <glyph glyph-name="Jcircumflex" unicode="&#x134;" horiz-adv-x="1021" 
d="M1208 1542h-286l-86 121l-86 -121h-287l229 322h287zM692 573v861h287v-861q0 -118 -45 -224t-121.5 -182.5t-182.5 -121.5t-224 -45q-238 0 -406 168l203 203q84 -84 203 -84q120 0 203 83t83 203z" />
    <glyph glyph-name="jcircumflex" unicode="&#x135;" horiz-adv-x="792" 
d="M946 1255h-287l-86 121l-86 -121h-286l229 322h287zM430 72v1075h287v-1075q0 -209 -146.5 -355.5t-355.5 -146.5q-53 0 -107.5 16.5t-82.5 36.5l-25 19l63 280q53 -65 152 -65q215 0 215 215z" />
    <glyph glyph-name="uni0136" unicode="&#x136;" horiz-adv-x="1372" 
d="M993 1434h338l-598 -666l598 -768h-354l-432 557l-217 -242v-315h-287v1434h287v-742zM686 -72q70 0 122 -49t52 -119q0 -19 -8 -51q-36 -106 -120.5 -185t-188.5 -97l-115 100q93 22 158 90q-72 52 -72 139q0 71 50 121.5t122 50.5z" />
    <glyph glyph-name="uni0137" unicode="&#x137;" 
d="M764 1147h352l-438 -490l510 -657h-340l-352 455l-168 -187v-268h-287v1577h287v-915zM614 -72q70 0 122 -50t52 -120q0 -17 -8 -49q-36 -106 -120.5 -185t-188.5 -97l-115 100q93 22 158 90q-72 52 -72 139q0 71 50 121.5t122 50.5z" />
    <glyph glyph-name="kgreenlandic" unicode="&#x138;" 
d="M676 657l512 -657h-340l-352 455l-168 -187v-268h-287v1147h287v-488l436 488h352z" />
    <glyph glyph-name="Lacute" unicode="&#x139;" horiz-adv-x="1085" 
d="M41 1505l115 359h344l-172 -359h-287zM41 1434h287v-1147h716v-287h-1003v1434z" />
    <glyph glyph-name="lacute" unicode="&#x13a;" horiz-adv-x="368" 
d="M500 2007l-172 -358h-287l115 358h344zM328 1577v-1577h-287v1577h287z" />
    <glyph glyph-name="uni013B" unicode="&#x13b;" horiz-adv-x="1085" 
d="M41 1434h287v-1147h716v-287h-1003v1434zM543 -72q70 0 122 -50t52 -120q0 -17 -8 -49q-36 -106 -121 -185t-189 -97l-114 100q92 22 157 90q-71 51 -71 139q0 71 50 121.5t122 50.5z" />
    <glyph glyph-name="uni013C" unicode="&#x13c;" horiz-adv-x="399" 
d="M63 0v1577h287v-1577h-287zM207 -72q70 0 122 -50t52 -120q0 -17 -8 -49q-36 -106 -121 -185t-189 -97l-114 100q92 22 157 90q-71 51 -71 139q0 71 50 121.5t122 50.5z" />
    <glyph glyph-name="Lcaron" unicode="&#x13d;" horiz-adv-x="1085" 
d="M700 1147v502h344l-57 -502h-287zM41 0v1434h287v-1147h716v-287h-1003z" />
    <glyph glyph-name="lcaron" unicode="&#x13e;" horiz-adv-x="815" 
d="M471 1649h344l-57 -502h-287v502zM328 1577v-1577h-287v1577h287z" />
    <glyph glyph-name="Ldot" unicode="&#x13f;" horiz-adv-x="1085" 
d="M41 1434h287v-1147h716v-287h-1003v1434zM952 596q-51 -51 -123 -51q-69 0 -120 51t-51 121t51 121q48 51 120 51q75 0 123 -51q50 -51 50 -121t-50 -121z" />
    <glyph glyph-name="ldot" unicode="&#x140;" horiz-adv-x="856" 
d="M328 1577v-1577h-287v1577h287zM764 911q51 -51 51 -122t-51 -121q-52 -52 -121 -52q-66 0 -121 52q-51 50 -51 121t51 122q53 50 121 50q71 0 121 -50z" />
    <glyph glyph-name="Lslash" unicode="&#x141;" horiz-adv-x="1345" 
d="M889 807l-301 -172v-348h717v-287h-1004v469l-158 -92l-143 250l301 172v635h287v-469l157 92z" />
    <glyph glyph-name="lslash" unicode="&#x142;" horiz-adv-x="888" 
d="M588 1036l157 92l144 -249l-301 -172v-707h-287v541l-158 -92l-143 249l301 172v707h287v-541z" />
    <glyph glyph-name="Nacute" unicode="&#x143;" horiz-adv-x="1372" 
d="M551 1505l115 359h344l-172 -359h-287zM328 1434l716 -904v904h287v-1434h-287l-716 903v-903h-287v1434h287z" />
    <glyph glyph-name="nacute" unicode="&#x144;" horiz-adv-x="1157" 
d="M895 1577l-172 -358h-287l115 358h344zM580 1147q146 0 269.5 -72t195 -195.5t71.5 -269.5v-610h-287v610q0 103 -73 176.5t-176 73.5q-104 0 -178 -73t-74 -177v-610h-287v1147h242l45 -57v-5q121 62 252 62z" />
    <glyph glyph-name="uni0145" unicode="&#x145;" horiz-adv-x="1372" 
d="M328 1434l716 -904v904h287v-1434h-287l-716 903v-903h-287v1434h287zM686 -72q70 0 122 -50t52 -120q0 -17 -8 -49q-36 -106 -120.5 -185t-188.5 -97l-115 100q93 22 158 90q-72 52 -72 139q0 71 50 121.5t122 50.5z" />
    <glyph glyph-name="uni0146" unicode="&#x146;" horiz-adv-x="1157" 
d="M580 1147q146 0 269.5 -72t195 -195.5t71.5 -269.5v-610h-287v610q0 103 -73 176.5t-176 73.5q-104 0 -178 -73t-74 -177v-610h-287v1147h242l45 -57v-5q121 62 252 62zM578 -72q71 0 122.5 -49.5t51.5 -120.5q0 -13 -9 -49q-36 -107 -119.5 -185.5t-187.5 -96.5
l-114 100q92 22 157 90q-71 51 -71 139q0 71 49.5 121.5t120.5 50.5z" />
    <glyph glyph-name="Ncaron" unicode="&#x147;" horiz-adv-x="1372" 
d="M772 1864h287l-230 -322h-286l-230 322h287l86 -121zM328 1434l716 -904v904h287v-1434h-287l-716 903v-903h-287v1434h287z" />
    <glyph glyph-name="ncaron" unicode="&#x148;" horiz-adv-x="1157" 
d="M723 1255h-287l-229 322h287l86 -121l86 121h286zM580 1147q146 0 269.5 -72t195 -195.5t71.5 -269.5v-610h-287v610q0 103 -73 176.5t-176 73.5q-104 0 -178 -73t-74 -177v-610h-287v1147h242l45 -57v-5q121 62 252 62z" />
    <glyph glyph-name="napostrophe" unicode="&#x149;" horiz-adv-x="1730" 
d="M41 1649h377l-64 -549h-313v549zM1102 1255q161 0 296.5 -78t213.5 -213t78 -296v-668h-314v668q0 116 -79 195t-195 79q-115 0 -196 -79.5t-81 -194.5v-668h-313v1255h264l49 -61v-6q128 67 277 67z" />
    <glyph glyph-name="Eng" unicode="&#x14a;" horiz-adv-x="1372" 
d="M1044 1434h287v-1362q0 -209 -146.5 -355.5t-355.5 -146.5q-53 0 -107.5 16.5t-82.5 36.5l-25 19l64 280q53 -65 151 -65q182 0 209 151l-710 895v-903h-287v1434h287l716 -904v904z" />
    <glyph glyph-name="eng" unicode="&#x14b;" horiz-adv-x="1157" 
d="M580 1147q146 0 269.5 -72t195 -195.5t71.5 -269.5v-553q-6 -205 -151 -346t-351 -141q-53 0 -106.5 16.5t-81.5 36.5l-27 19l64 280q53 -65 151 -65q215 0 215 215v538q0 103 -73 176.5t-176 73.5q-104 0 -178 -73t-74 -177v-610h-287v1147h242l45 -57v-5q121 62 252 62
z" />
    <glyph glyph-name="Omacron" unicode="&#x14c;" horiz-adv-x="1515" 
d="M471 1864h573v-287h-573v287zM41 717q0 196 95.5 361t260.5 260.5t361 95.5q197 0 362 -95t260 -260t95 -362q0 -196 -95.5 -361t-260.5 -260.5t-361 -95.5q-146 0 -279 56.5t-229 152.5t-152.5 229t-56.5 279zM328 717q0 -179 126 -304.5t304 -125.5q180 0 305 125
t125 305q0 181 -124 305.5t-306 124.5q-180 0 -305 -125t-125 -305z" />
    <glyph glyph-name="omacron" unicode="&#x14d;" 
d="M328 1577h573v-287h-573v287zM41 573q0 157 76 289t208 208.5t289 76.5t289 -76.5t208.5 -208.5t76.5 -289t-76.5 -289t-208.5 -208t-289 -76q-118 0 -224 45t-182.5 121.5t-121.5 182.5t-45 224zM328 573q0 -120 83 -203t203 -83t203.5 83t83.5 203t-83.5 203.5
t-203.5 83.5t-203 -83.5t-83 -203.5z" />
    <glyph glyph-name="Obreve" unicode="&#x14e;" horiz-adv-x="1515" 
d="M686 1864q0 -28 22 -50t50 -22t49.5 21t21.5 51h287q0 -151 -103.5 -255t-254.5 -104t-255 104t-104 255h287zM41 717q0 196 95.5 361t260.5 260.5t361 95.5q197 0 362 -95t260 -260t95 -362q0 -196 -95.5 -361t-260.5 -260.5t-361 -95.5q-146 0 -279 56.5t-229 152.5
t-152.5 229t-56.5 279zM328 717q0 -179 126 -304.5t304 -125.5q180 0 305 125t125 305q0 181 -124 305.5t-306 124.5q-180 0 -305 -125t-125 -305z" />
    <glyph glyph-name="obreve" unicode="&#x14f;" 
d="M543 1577q0 -28 21.5 -50t49.5 -22t50 21t22 51h287q0 -151 -104 -254.5t-255 -103.5t-254.5 103.5t-103.5 254.5h287zM41 573q0 157 76 289t208 208.5t289 76.5t289 -76.5t208.5 -208.5t76.5 -289t-76.5 -289t-208.5 -208t-289 -76q-118 0 -224 45t-182.5 121.5
t-121.5 182.5t-45 224zM328 573q0 -120 83 -203t203 -83t203.5 83t83.5 203t-83.5 203.5t-203.5 83.5t-203 -83.5t-83 -203.5z" />
    <glyph glyph-name="Ohungarumlaut" unicode="&#x150;" horiz-adv-x="1515" 
d="M858 1864l-172 -359h-287l115 359h344zM1288 1864l-172 -359h-287l115 359h344zM41 717q0 196 95.5 361t260.5 260.5t361 95.5q197 0 362 -95t260 -260t95 -362q0 -196 -95.5 -361t-260.5 -260.5t-361 -95.5q-146 0 -279 56.5t-229 152.5t-152.5 229t-56.5 279zM328 717
q0 -179 126 -304.5t304 -125.5q180 0 305 125t125 305q0 181 -124 305.5t-306 124.5q-180 0 -305 -125t-125 -305z" />
    <glyph glyph-name="ohungarumlaut" unicode="&#x151;" 
d="M715 1577l-172 -358h-287l115 358h344zM1145 1577l-172 -358h-287l115 358h344zM41 573q0 157 76 289t208 208.5t289 76.5t289 -76.5t208.5 -208.5t76.5 -289t-76.5 -289t-208.5 -208t-289 -76q-118 0 -224 45t-182.5 121.5t-121.5 182.5t-45 224zM328 573
q0 -120 83 -203t203 -83t203.5 83t83.5 203t-83.5 203.5t-203.5 83.5t-203 -83.5t-83 -203.5z" />
    <glyph glyph-name="OE" unicode="&#x152;" horiz-adv-x="2017" 
d="M758 1434h1218v-287h-716v-287h573v-287h-573v-286h716v-287h-1218q-146 0 -279 56.5t-229 152.5t-152.5 229t-56.5 279q0 196 95.5 361t260.5 260.5t361 95.5zM758 287h215v860h-215q-180 0 -305 -125t-125 -305q0 -179 126 -304.5t304 -125.5z" />
    <glyph glyph-name="oe" unicode="&#x153;" horiz-adv-x="2088" 
d="M2048 573q0 -73 -18 -143h-818q61 -143 263 -143q172 0 254 73l247 -145q-71 -105 -214.5 -160t-286.5 -55q-124 0 -238 50.5t-195 142.5q-82 -91 -194.5 -142t-233.5 -51q-118 0 -224 45t-182.5 121.5t-121.5 182.5t-45 224q0 157 76 289t208 208.5t289 76.5
q256 0 430 -195q174 195 431 195q157 0 289 -76.5t208 -208.5t76 -289zM1221 717h508q-73 143 -254 143t-254 -143zM328 573q0 -120 83 -203t203 -83t203.5 83t83.5 203t-83.5 203.5t-203.5 83.5t-203 -83.5t-83 -203.5z" />
    <glyph glyph-name="Racute" unicode="&#x154;" horiz-adv-x="1226" 
d="M471 1505l115 359h344l-172 -359h-287zM1188 860q0 -146 -69 -273t-189 -206l258 -381h-316l-196 291q-54 -4 -62 -4h-286v-287h-287v1434h573q157 0 289 -76.5t208.5 -208.5t76.5 -289zM614 1147h-286v-574h286q120 0 203.5 83.5t83.5 203.5t-83.5 203.5t-203.5 83.5z
" />
    <glyph glyph-name="racute" unicode="&#x155;" horiz-adv-x="837" 
d="M285 1219l114 358h344l-172 -358h-286zM614 1147q110 0 203 -37l-90 -272q-58 22 -113 22q-120 0 -203 -83.5t-83 -203.5v-573h-287v1147h242l45 -57v-21q135 78 286 78z" />
    <glyph glyph-name="uni0156" unicode="&#x156;" 
d="M1188 860q0 -146 -69 -273t-189 -206l258 -381h-316l-196 291q-54 -4 -62 -4h-286v-287h-287v1434h573q157 0 289 -76.5t208.5 -208.5t76.5 -289zM614 1147h-286v-574h286q120 0 203.5 83.5t83.5 203.5t-83.5 203.5t-203.5 83.5zM614 -72q70 0 122 -50t52 -120
q0 -17 -8 -49q-36 -106 -120.5 -185t-188.5 -97l-115 100q93 22 158 90q-72 52 -72 139q0 71 50 121.5t122 50.5z" />
    <glyph glyph-name="uni0157" unicode="&#x157;" horiz-adv-x="837" 
d="M614 1147q110 0 203 -37l-90 -272q-58 22 -113 22q-120 0 -203 -83.5t-83 -203.5v-573h-287v1147h242l45 -57v-21q135 78 286 78zM184 -72q70 0 122 -50t52 -120q0 -17 -8 -49q-36 -106 -120.5 -185t-188.5 -97l-115 100q93 22 158 90q-72 52 -72 139q0 71 50 121.5
t122 50.5z" />
    <glyph glyph-name="Rcaron" unicode="&#x158;" 
d="M686 1864h287l-230 -322h-286l-230 322h287l86 -121zM1188 860q0 -146 -69 -273t-189 -206l258 -381h-316l-196 291q-54 -4 -62 -4h-286v-287h-287v1434h573q157 0 289 -76.5t208.5 -208.5t76.5 -289zM614 1147h-286v-574h286q120 0 203.5 83.5t83.5 203.5t-83.5 203.5
t-203.5 83.5z" />
    <glyph glyph-name="rcaron" unicode="&#x159;" horiz-adv-x="858" 
d="M522 1577h287l-229 -322h-287l-230 322h287l86 -121zM614 1147q110 0 203 -37l-90 -272q-58 22 -113 22q-120 0 -203 -83.5t-83 -203.5v-573h-287v1147h242l45 -57v-21q135 78 286 78z" />
    <glyph glyph-name="Sacute" unicode="&#x15a;" 
d="M915 1864l-172 -359h-286l114 359h344zM342 1004q0 -28 22 -48.5t68 -37t91 -28t118.5 -29t124.5 -32.5q73 -21 125.5 -40.5t112.5 -53.5t97 -73.5t62 -99t25 -132.5q0 -209 -150 -319.5t-424 -110.5q-127 0 -267.5 18.5t-240.5 55.5l-65 26l115 279q274 -92 458 -92
q273 0 273 143q0 28 -22 48.5t-67.5 36t-91 26.5t-118 27.5t-123.5 31.5q-72 20 -126.5 40.5t-113.5 54t-97 74.5t-62.5 101t-24.5 134q0 207 152 318.5t421 111.5q116 0 249 -21t206 -65l47 -29l-115 -264q-201 92 -387 92q-272 0 -272 -143z" />
    <glyph glyph-name="sacute" unicode="&#x15b;" horiz-adv-x="1085" 
d="M858 1577l-172 -358h-287l115 358h344zM1044 358q0 -75 -31.5 -136.5t-82 -102t-117.5 -68t-134.5 -39.5t-135.5 -12q-106 0 -229 19.5t-212 54.5l-61 26l115 262q64 -47 173.5 -68.5t213.5 -21.5q55 0 96.5 8.5t63 19.5t35 26t17 25.5t3.5 19.5v16q-13 23 -67 31
t-151 13.5t-161 17.5q-81 16 -139.5 39t-105 61.5t-70 98t-23.5 140.5q0 75 31.5 137t82.5 102t117.5 68t134.5 40t136 12q243 0 387 -66l43 -20l-137 -252q-109 65 -293 65q-215 0 -215 -86q0 -31 45.5 -42t148.5 -18.5t164 -18.5q84 -17 144.5 -40.5t111 -63t76.5 -101.5
t26 -146z" />
    <glyph glyph-name="Scircumflex" unicode="&#x15c;" 
d="M471 1864h287l229 -322h-287l-86 121l-86 -121h-286zM342 1004q0 -28 22 -48.5t68 -37t91 -28t118.5 -29t124.5 -32.5q73 -21 125.5 -40.5t112.5 -53.5t97 -73.5t62 -99t25 -132.5q0 -209 -150 -319.5t-424 -110.5q-127 0 -267.5 18.5t-240.5 55.5l-65 26l115 279
q274 -92 458 -92q273 0 273 143q0 28 -22 48.5t-67.5 36t-91 26.5t-118 27.5t-123.5 31.5q-72 20 -126.5 40.5t-113.5 54t-97 74.5t-62.5 101t-24.5 134q0 207 152 318.5t421 111.5q116 0 249 -21t206 -65l47 -29l-115 -264q-201 92 -387 92q-272 0 -272 -143z" />
    <glyph glyph-name="scircumflex" unicode="&#x15d;" horiz-adv-x="1085" 
d="M399 1577h287l229 -322h-286l-86 121l-86 -121h-287zM1044 358q0 -75 -31.5 -136.5t-82 -102t-117.5 -68t-134.5 -39.5t-135.5 -12q-106 0 -229 19.5t-212 54.5l-61 26l115 262q64 -47 173.5 -68.5t213.5 -21.5q55 0 96.5 8.5t63 19.5t35 26t17 25.5t3.5 19.5v16
q-13 23 -67 31t-151 13.5t-161 17.5q-81 16 -139.5 39t-105 61.5t-70 98t-23.5 140.5q0 75 31.5 137t82.5 102t117.5 68t134.5 40t136 12q243 0 387 -66l43 -20l-137 -252q-109 65 -293 65q-215 0 -215 -86q0 -31 45.5 -42t148.5 -18.5t164 -18.5q84 -17 144.5 -40.5
t111 -63t76.5 -101.5t26 -146z" />
    <glyph glyph-name="Scedilla" unicode="&#x15e;" 
d="M897 -213q-17 -98 -114.5 -157.5t-243.5 -59.5q-93 0 -211 31l57 215q77 -21 129 -21q88 0 94 43q0 27 -21.5 47t-55 29t-62.5 12.5t-55 3.5v29l14 49q-100 11 -197.5 33t-144.5 41l-45 18l115 277q278 -90 458 -90q273 0 273 143q0 28 -22 48.5t-67.5 36t-91 26.5
t-118 27.5t-123.5 31.5q-72 20 -126.5 40.5t-113.5 54t-97 74.5t-62.5 101t-24.5 134q0 207 152 318.5t421 111.5q116 0 249 -21t206 -65l47 -29l-115 -264q-201 92 -387 92q-272 0 -272 -143q0 -28 22 -48.5t68 -37t91 -28t118.5 -29t124.5 -32.5q73 -21 125.5 -40.5
t112.5 -53.5t97 -73.5t62 -99t25 -132.5q0 -346 -387 -416q46 -26 73 -74t27 -102q0 -15 -4 -51z" />
    <glyph glyph-name="scedilla" unicode="&#x15f;" horiz-adv-x="1085" 
d="M1047 358q0 -122 -87.5 -211.5t-236.5 -126.5q108 -64 108 -186q0 -56 -22 -102t-57.5 -76t-83.5 -50.5t-97.5 -29t-101.5 -8.5q-107 0 -213 33l57 215q81 -23 131 -23q92 0 95 45v2q0 33 -40.5 55t-81.5 28.5t-75 6.5v29l16 53q-80 11 -160 33t-120 41l-37 14l115 262
q64 -47 173.5 -68.5t213.5 -21.5q55 0 96.5 8.5t63 19.5t35 26t17 25.5t3.5 19.5v16q-13 23 -67 31t-151 13.5t-161 17.5q-81 16 -139.5 39t-105 61.5t-70 98t-23.5 140.5q0 75 31.5 137t82.5 102t117.5 68t134.5 40t136 12q243 0 387 -66l43 -20l-137 -252q-109 65 -293 65
q-215 0 -215 -86q0 -31 45.5 -42t149 -18.5t165.5 -18.5q84 -17 144.5 -40.5t111.5 -63t77 -101.5t26 -146z" />
    <glyph glyph-name="Scaron" unicode="&#x160;" 
d="M758 1542h-287l-229 322h286l86 -121l86 121h287zM342 1004q0 -28 22 -48.5t68 -37t91 -28t118.5 -29t124.5 -32.5q73 -21 125.5 -40.5t112.5 -53.5t97 -73.5t62 -99t25 -132.5q0 -209 -150 -319.5t-424 -110.5q-127 0 -267.5 18.5t-240.5 55.5l-65 26l115 279
q274 -92 458 -92q273 0 273 143q0 28 -22 48.5t-67.5 36t-91 26.5t-118 27.5t-123.5 31.5q-72 20 -126.5 40.5t-113.5 54t-97 74.5t-62.5 101t-24.5 134q0 207 152 318.5t421 111.5q116 0 249 -21t206 -65l47 -29l-115 -264q-201 92 -387 92q-272 0 -272 -143z" />
    <glyph glyph-name="scaron" unicode="&#x161;" horiz-adv-x="1085" 
d="M686 1255h-287l-229 322h287l86 -121l86 121h286zM1044 358q0 -75 -31.5 -136.5t-82 -102t-117.5 -68t-134.5 -39.5t-135.5 -12q-106 0 -229 19.5t-212 54.5l-61 26l115 262q64 -47 173.5 -68.5t213.5 -21.5q55 0 96.5 8.5t63 19.5t35 26t17 25.5t3.5 19.5v16
q-13 23 -67 31t-151 13.5t-161 17.5q-81 16 -139.5 39t-105 61.5t-70 98t-23.5 140.5q0 75 31.5 137t82.5 102t117.5 68t134.5 40t136 12q243 0 387 -66l43 -20l-137 -252q-109 65 -293 65q-215 0 -215 -86q0 -31 45.5 -42t148.5 -18.5t164 -18.5q84 -17 144.5 -40.5
t111 -63t76.5 -101.5t26 -146z" />
    <glyph glyph-name="uni0162" unicode="&#x162;" 
d="M41 1434h1147v-287h-430v-1073l14 -43q15 -4 53 -33q76 -67 76 -164q0 -69 -33 -122t-87 -83t-115.5 -44.5t-126.5 -14.5q-108 0 -211 33l57 215q81 -23 131 -23q94 0 100 47q0 26 -21 44.5t-53.5 27.5t-60.5 12.5t-53 3.5v29l43 115v1073h-430v287z" />
    <glyph glyph-name="uni0163" unicode="&#x163;" horiz-adv-x="829" 
d="M645 18q109 -62 109 -178q0 -70 -32.5 -124t-86 -84.5t-115.5 -46t-129 -15.5q-95 0 -213 31l58 215q76 -21 131 -21q89 0 92 43q0 27 -21.5 47t-55.5 29t-63 12.5t-55 3.5v29l33 107q-154 109 -154 294v502h-143v287h143v285h287v-285h313v-287h-313v-401
q0 -58 33.5 -96t73.5 -43l36 -5q47 0 87.5 12.5t56.5 26.5l12 13l59 -281q-47 -44 -143 -70z" />
    <glyph glyph-name="Tcaron" unicode="&#x164;" 
d="M700 1864h287l-229 -322h-287l-229 322h286l86 -121zM41 1147v287h1147v-287h-430v-1147h-287v1147h-430z" />
    <glyph glyph-name="tcaron" unicode="&#x165;" horiz-adv-x="1243" 
d="M858 1649h344l-57 -502h-287v502zM758 352l12 15l59 -281q-42 -42 -127 -64t-159 -22q-151 0 -255 103.5t-104 254.5v502h-143v287h143v287h287v-287h315v-287h-315v-401q0 -58 33.5 -96.5t73.5 -43.5l36 -4q47 0 88 11.5t56 25.5z" />
    <glyph glyph-name="Tbar" unicode="&#x166;" 
d="M41 1434h1147v-287h-430v-287h186v-287h-186v-573h-287v573h-186v287h186v287h-430v287z" />
    <glyph glyph-name="tbar" unicode="&#x167;" horiz-adv-x="829" 
d="M758 352l12 15l59 -281q-42 -42 -127 -64t-159 -22q-151 0 -255 103.5t-104 254.5v72h-143v287h143v143h-143v287h143v287h287v-287h315v-287h-315v-143h315v-287h-313q7 -47 42 -78t69 -33l30 -4q47 0 88 11.5t56 25.5z" />
    <glyph glyph-name="Utilde" unicode="&#x168;" 
d="M721 1540q-56 0 -123 33q-73 31 -100 31q-53 0 -99 -64l-215 143q4 19 43 76q46 69 119 104t160 35q52 0 123 -30q67 -33 100 -33q52 0 100 63l215 -143q-4 -21 -40 -74q-46 -68 -121.5 -104.5t-161.5 -36.5zM901 573v861h287v-861q0 -157 -76.5 -289t-208.5 -208
t-289 -76q-118 0 -224 45t-182.5 121.5t-121.5 182.5t-45 224v861h287v-861q0 -120 83 -203t203 -83t203.5 83t83.5 203z" />
    <glyph glyph-name="utilde" unicode="&#x169;" horiz-adv-x="1157" 
d="M362 1253l-215 144q4 19 43 76q46 69 120 104t161 35q52 0 125 -31q67 -33 98 -33q53 0 99 64l215 -144q-3 -17 -41 -73q-47 -68 -121 -105t-160 -37q-58 0 -125 33q-73 31 -98 31q-52 0 -101 -64zM829 537v610h287v-610q0 -147 -71.5 -270.5t-195.5 -195t-271 -71.5
q-146 0 -269.5 72t-195.5 195.5t-72 269.5v610h287v-610q0 -103 73.5 -176.5t176.5 -73.5q104 0 177.5 73t73.5 177z" />
    <glyph glyph-name="Umacron" unicode="&#x16a;" 
d="M328 1864h573v-287h-573v287zM901 573v861h287v-861q0 -157 -76.5 -289t-208.5 -208t-289 -76q-118 0 -224 45t-182.5 121.5t-121.5 182.5t-45 224v861h287v-861q0 -120 83 -203t203 -83t203.5 83t83.5 203z" />
    <glyph glyph-name="umacron" unicode="&#x16b;" horiz-adv-x="1157" 
d="M293 1577h573v-287h-573v287zM829 539v608h287v-608q0 -146 -71 -270t-194.5 -196.5t-270.5 -72.5t-271 72t-196 196t-72 271v608h287v-608q0 -104 74 -178t178 -74t176.5 73.5t72.5 178.5z" />
    <glyph glyph-name="Ubreve" unicode="&#x16c;" 
d="M973 1864q0 -151 -104 -255t-255 -104t-254.5 104t-103.5 255h287q0 -29 21 -50.5t50 -21.5t50.5 21.5t21.5 50.5h287zM901 573v861h287v-861q0 -157 -76.5 -289t-208.5 -208t-289 -76q-118 0 -224 45t-182.5 121.5t-121.5 182.5t-45 224v861h287v-861q0 -120 83 -203
t203 -83t203.5 83t83.5 203z" />
    <glyph glyph-name="ubreve" unicode="&#x16d;" horiz-adv-x="1157" 
d="M580 1505q29 0 50 21.5t21 50.5h287q0 -151 -103.5 -254.5t-254.5 -103.5t-255 103.5t-104 254.5h287q0 -30 21 -51t51 -21zM829 539v608h287v-608q0 -146 -71 -270t-194.5 -196.5t-270.5 -72.5t-271 72t-196 196t-72 271v608h287v-608q0 -104 74 -178t178 -74
t176.5 73.5t72.5 178.5z" />
    <glyph glyph-name="Uring" unicode="&#x16e;" 
d="M901 1792q0 -120 -83.5 -203.5t-203.5 -83.5t-203 83.5t-83 203.5t83 204.5t203 84.5q121 0 204 -84t83 -205zM686 1792q0 31 -20.5 51.5t-51.5 20.5q-29 0 -50 -20t-21 -52q0 -29 21 -50.5t50 -21.5t50.5 21.5t21.5 50.5zM901 573v861h287v-861q0 -157 -76.5 -289
t-208.5 -208t-289 -76q-118 0 -224 45t-182.5 121.5t-121.5 182.5t-45 224v861h287v-861q0 -120 83 -203t203 -83t203.5 83t83.5 203z" />
    <glyph glyph-name="uring" unicode="&#x16f;" horiz-adv-x="1157" 
d="M293 1505q0 120 83.5 203.5t203.5 83.5t203 -83.5t83 -203.5t-83 -203t-203 -83t-203.5 83t-83.5 203zM580 1577q-30 0 -51 -21t-21 -51q0 -29 21 -50t51 -21q29 0 50 21t21 50t-21 50.5t-50 21.5zM829 539v608h287v-608q0 -146 -71 -270t-194.5 -196.5t-270.5 -72.5
t-271 72t-196 196t-72 271v608h287v-608q0 -104 74 -178t178 -74t176.5 73.5t72.5 178.5z" />
    <glyph glyph-name="Uhungarumlaut" unicode="&#x170;" horiz-adv-x="1226" 
d="M256 1505l115 359h344l-172 -359h-287zM801 1864h344l-172 -359h-287zM901 573v861h287v-861q0 -157 -76.5 -289t-208.5 -208t-289 -76q-118 0 -224 45t-182.5 121.5t-121.5 182.5t-45 224v861h287v-861q0 -120 83 -203t203 -83t203.5 83t83.5 203z" />
    <glyph glyph-name="uhungarumlaut" unicode="&#x171;" horiz-adv-x="1157" 
d="M680 1577l-172 -358h-287l115 358h344zM1110 1577l-172 -358h-287l115 358h344zM829 539v608h287v-608q0 -146 -71 -270t-194.5 -196.5t-270.5 -72.5t-271 72t-196 196t-72 271v608h287v-608q0 -104 74 -178t178 -74t176.5 73.5t72.5 178.5z" />
    <glyph glyph-name="Uogonek" unicode="&#x172;" 
d="M901 573v861h287v-861q0 -188 -113.5 -340t-294.5 -208q-60 -19 -115 -57.5t-55 -88.5q0 -24 22 -35.5t48 -11.5q46 0 115 29l69 -258q-103 -33 -200 -33q-125 0 -201.5 58.5t-95.5 160.5q-5 40 -5 49q0 102 78 189q-178 57 -288.5 208.5t-110.5 337.5v861h287v-861
q0 -120 83 -203t203 -83t203.5 83t83.5 203z" />
    <glyph glyph-name="uogonek" unicode="&#x173;" horiz-adv-x="1157" 
d="M829 537v610h287v-610q0 -174 -103.5 -316t-269.5 -196q-27 -9 -52.5 -21t-53.5 -30t-45 -43.5t-17 -53.5q0 -31 39 -43q20 -4 33 -4q42 0 111 29l71 -258q-103 -33 -200 -33q-133 0 -217 70t-84 198q0 104 78 191q-163 57 -264 198t-101 312v610h287v-610
q0 -104 74 -177t178 -73q103 0 176 73.5t73 176.5z" />
    <glyph glyph-name="Wcircumflex" unicode="&#x174;" horiz-adv-x="2304" 
d="M1526 1542h-287l-86 121l-86 -121h-287l230 322h286zM1260 1434l358 -1102l358 1102h287l-465 -1434h-358l-287 883l-287 -883h-358l-467 1434h287l358 -1102l358 1102h216z" />
    <glyph glyph-name="wcircumflex" unicode="&#x175;" horiz-adv-x="2017" 
d="M1382 1255h-286l-86 121l-86 -121h-287l229 322h287zM1116 1147l287 -764l287 764h286l-430 -1147h-286l-250 670l-252 -670h-287l-430 1147h287l286 -764l287 764h215z" />
    <glyph glyph-name="Ycircumflex" unicode="&#x176;" horiz-adv-x="1300" 
d="M1024 1542h-287l-86 121l-86 -121h-286l229 322h287zM365 1434l286 -529l287 529h322l-465 -861v-573h-287v573l-467 861h324z" />
    <glyph glyph-name="ycircumflex" unicode="&#x177;" 
d="M987 1255h-287l-86 121l-86 -121h-286l229 322h287zM328 1147l286 -764l287 764h287l-430 -1147q-150 -430 -473 -430q-63 0 -126 13.5t-93 29.5l-25 14l100 273q43 -43 144 -43q59 0 108 33.5t64 72.5l14 37l-430 1147h287z" />
    <glyph glyph-name="Ydieresis" unicode="&#x178;" horiz-adv-x="1304" 
d="M573 1726q0 -72 -50 -123t-122 -51t-123 51t-51 123t51 122t123 50q70 0 121 -50.5t51 -121.5zM1026 1604q-52 -52 -123 -52q-69 0 -121 52q-51 51 -51 122.5t51 122.5q49 49 121 49q74 0 123 -49q51 -51 51 -122.5t-51 -122.5zM365 1438l286 -531l289 531h324l-467 -863
v-575h-289v575l-467 863h324z" />
    <glyph glyph-name="Zacute" unicode="&#x179;" 
d="M471 1505l115 359h344l-172 -359h-287zM41 1147v287h1147v-215l-688 -932h688v-287h-1147v215l688 932h-688z" />
    <glyph glyph-name="zacute" unicode="&#x17a;" horiz-adv-x="1157" 
d="M895 1577l-172 -358h-287l115 358h344zM41 860v287h1075v-143l-579 -717h579v-287h-1075v143l582 717h-582z" />
    <glyph glyph-name="Zdotaccent" unicode="&#x17b;" 
d="M735 1841q51 -51 51 -121t-51 -121t-121 -51q-66 0 -120 51q-51 51 -51 121t51 121t120 51q73 0 121 -51zM41 1147v287h1147v-215l-688 -932h688v-287h-1147v215l688 932h-688z" />
    <glyph glyph-name="zdotaccent" unicode="&#x17c;" horiz-adv-x="1157" 
d="M694 1554q50 -51 50 -120.5t-50 -120.5q-51 -51 -123 -51q-69 0 -120 51t-51 120.5t51 120.5q49 52 120 52q74 0 123 -52zM41 860v287h1075v-143l-579 -717h579v-287h-1075v143l582 717h-582z" />
    <glyph glyph-name="Zcaron" unicode="&#x17d;" 
d="M758 1542h-287l-229 322h286l86 -121l86 121h287zM41 1147v287h1147v-215l-688 -932h688v-287h-1147v215l688 932h-688z" />
    <glyph glyph-name="zcaron" unicode="&#x17e;" horiz-adv-x="1157" 
d="M723 1255h-287l-229 322h287l86 -121l86 121h286zM41 860v287h1075v-143l-579 -717h579v-287h-1075v143l582 717h-582z" />
    <glyph glyph-name="longs" unicode="&#x17f;" horiz-adv-x="829" 
d="M543 1577q71 0 144 -16.5t108 -36.5l34 -19l-86 -272q-72 72 -200 72q-215 0 -215 -230v-1075h-287v1075q0 238 132 370t370 132z" />
    <glyph glyph-name="florin" unicode="&#x192;" horiz-adv-x="1249" 
d="M983 1577q58 0 114 -14t79 -29l22 -14l-59 -281q-39 51 -156 51q-143 0 -195 -143h195v-287h-215v-430q0 -295 -139 -434q-142 -139 -363 -139q-58 0 -113.5 14t-78.5 29l-23 14l60 281q40 -52 155 -52q48 0 85.5 16.5t61.5 44t39.5 65.5t22 77.5t6.5 83.5v430h-143v287
h154q31 213 161.5 321.5t329.5 108.5z" />
    <glyph glyph-name="uni01CD" unicode="&#x1cd;" horiz-adv-x="1351" 
d="M772 1864h287l-230 -322h-286l-230 322h287l86 -121zM866 1434l465 -1434h-287l-92 287h-530l-94 -287h-287l467 1434h358zM858 573l-172 529l-172 -529h344z" />
    <glyph glyph-name="uni01CE" unicode="&#x1ce;" 
d="M758 1255h-287l-229 322h286l86 -121l86 121h287zM901 1071v19l45 57h242v-1147h-287v78q-135 -78 -287 -78q-118 0 -224 45t-182.5 121.5t-121.5 182.5t-45 224q0 157 76 289t208 208.5t289 76.5q153 0 287 -76zM328 573q0 -120 83 -203t203 -83t203.5 83t83.5 203
t-83.5 203.5t-203.5 83.5t-203 -83.5t-83 -203.5z" />
    <glyph glyph-name="uni0218" unicode="&#x218;" 
d="M342 1004q0 -28 22 -48.5t68 -37t91 -28t118.5 -29t124.5 -32.5q73 -21 125.5 -40.5t112.5 -53.5t97 -73.5t62 -99t25 -132.5q0 -209 -150 -319.5t-424 -110.5q-127 0 -267.5 18.5t-240.5 55.5l-65 26l115 279q274 -92 458 -92q273 0 273 143q0 28 -22 48.5t-67.5 36
t-91 26.5t-118 27.5t-123.5 31.5q-72 20 -126.5 40.5t-113.5 54t-97 74.5t-62.5 101t-24.5 134q0 207 152 318.5t421 111.5q116 0 249 -21t206 -65l47 -29l-115 -264q-201 92 -387 92q-272 0 -272 -143zM614 -72q70 0 122 -50t52 -120q0 -17 -8 -49q-36 -106 -120.5 -185
t-188.5 -97l-115 100q93 22 158 90q-72 52 -72 139q0 71 50 121.5t122 50.5z" />
    <glyph glyph-name="uni0219" unicode="&#x219;" horiz-adv-x="1085" 
d="M328 788q0 -31 57 -43t183 -23q9 -1 14 -1q76 -7 135.5 -18.5t123.5 -37.5t106 -63.5t69.5 -100t27.5 -143.5q0 -75 -31.5 -136.5t-82 -102t-117.5 -68t-134.5 -39.5t-135.5 -12q-106 0 -229 19.5t-212 54.5l-61 26l115 262q64 -47 173.5 -68.5t213.5 -21.5
q55 0 96.5 8.5t63 19.5t35 26t17 25.5t3.5 19.5v16q-13 23 -67 31t-151 13.5t-161 17.5q-81 16 -139.5 39t-105 61.5t-70 98t-23.5 140.5q0 75 31.5 137t82.5 102t117.5 68t134.5 40t136 12q243 0 387 -66l43 -20l-139 -252q-106 65 -291 65q-215 0 -215 -86zM543 -72
q71 0 121.5 -50t50.5 -122q0 -23 -6 -47q-36 -106 -121 -185t-189 -97l-114 100q92 22 157 90q-71 51 -71 139q0 71 50 121.5t122 50.5z" />
    <glyph glyph-name="uni021A" unicode="&#x21a;" 
d="M41 1147v287h1147v-287h-430v-1147h-287v1147h-430zM614 -72q70 0 122 -50t52 -120q0 -17 -8 -49q-36 -106 -120.5 -185t-188.5 -97l-115 100q93 22 158 90q-72 52 -72 139q0 71 50 121.5t122 50.5z" />
    <glyph glyph-name="uni021B" unicode="&#x21b;" horiz-adv-x="870" 
d="M543 0q-151 0 -255 103.5t-104 254.5v502h-143v287h143v287h287v-287h315v-287h-315v-401q0 -58 33.5 -96.5t73.5 -43.5l36 -4q47 0 88 11.5t56 25.5l12 15l59 -281q-42 -42 -127 -64t-159 -22zM506 -72q71 0 122.5 -49.5t51.5 -120.5q0 -17 -8 -49
q-36 -107 -119.5 -185.5t-187.5 -96.5l-115 100q93 22 158 90q-72 52 -72 139q0 71 49.5 121.5t120.5 50.5z" />
    <glyph glyph-name="caron" unicode="&#x2c7;" horiz-adv-x="784" 
d="M535 1255h-285l-230 322h287l84 -121l86 121h287z" />
    <glyph glyph-name="uni02C9" unicode="&#x2c9;" horiz-adv-x="616" 
d="M20 1577h576v-287h-576v287z" />
    <glyph glyph-name="breve" unicode="&#x2d8;" horiz-adv-x="753" 
d="M305 1575q0 -28 22 -50t50 -22t50 21t22 51h284q0 -149 -103.5 -252.5t-252.5 -103.5t-253 103.5t-104 252.5h285z" />
    <glyph glyph-name="dotaccent" unicode="&#x2d9;" horiz-adv-x="385" 
d="M72 1554q52 52 121 52q71 0 120 -52q51 -51 51 -120.5t-51 -120.5t-120 -51q-67 0 -121 51q-51 51 -51 120.5t51 120.5z" />
    <glyph glyph-name="ring" unicode="&#x2da;" horiz-adv-x="614" 
d="M20 1505q0 120 83.5 203.5t203.5 83.5t203.5 -83.5t83.5 -203.5t-83.5 -203t-203.5 -83t-203.5 83t-83.5 203zM358 1556q-24 21 -51 21q-28 0 -49 -21q-22 -22 -22 -50t22 -50q20 -20 51 -20q29 0 49 20q21 22 21 49t-21 51z" />
    <glyph glyph-name="hungarumlaut" unicode="&#x2dd;" horiz-adv-x="929" 
d="M479 1577l-172 -358h-287l115 358h344zM909 1577l-172 -358h-286l114 358h344z" />
    <glyph glyph-name="uni0312" unicode="&#x312;" horiz-adv-x="471" 
d="M293 1573q72 -51 72 -139q0 -69 -51.5 -120.5t-120.5 -51.5t-121 51.5t-52 120.5q0 5 3.5 24t3.5 23l2 8q1 2 2 4.5t1.5 3.5t0.5 2q39 99 121.5 172t181.5 92l115 -100q-96 -22 -158 -90z" />
    <glyph glyph-name="uni0326" unicode="&#x326;" horiz-adv-x="471" 
d="M438 -307q-37 -101 -119.5 -176t-183.5 -90l-115 100q89 18 158 90q-72 54 -72 139q0 71 51.5 121.5t121.5 50.5t121 -50.5t51 -121.5q0 -34 -13 -63z" />
    <glyph glyph-name="uni0328" unicode="&#x328;" horiz-adv-x="540" 
d="M150 72l284 -72q-26 -2 -53 -8t-54.5 -18t-45 -33.5t-17.5 -49.5t24 -43.5t58 -15.5q45 0 103 27l71 -258q-112 -31 -198 -31q-135 0 -218.5 69t-83.5 195q0 68 36.5 134.5t93.5 103.5z" />
    <glyph glyph-name="Alphatonos" unicode="&#x386;" horiz-adv-x="1443" 
d="M41 1147l115 358h344l-172 -358h-287zM938 1434l465 -1434h-287l-92 287h-530l-95 -287h-286l467 1434h358zM930 573l-172 529l-172 -529h344z" />
    <glyph glyph-name="Epsilontonos" unicode="&#x388;" horiz-adv-x="1615" 
d="M500 1505l-172 -358h-287l115 358h344zM571 1434h1004v-287h-717v-287h574v-287h-574v-286h717v-287h-1004v1434z" />
    <glyph glyph-name="Etatonos" unicode="&#x389;" horiz-adv-x="1759" 
d="M500 1505l-172 -358h-287l115 358h344zM858 860h574v574h286v-1434h-286v573h-574v-573h-287v1434h287v-574z" />
    <glyph glyph-name="Iotatonos" unicode="&#x38a;" horiz-adv-x="899" 
d="M500 1505l-172 -358h-287l115 358h344zM858 0h-287v1434h287v-1434z" />
    <glyph glyph-name="Omicrontonos" unicode="&#x38c;" horiz-adv-x="1888" 
d="M500 1505l-172 -358h-287l115 358h344zM414 717q0 196 95 361t260 260.5t361 95.5q197 0 362 -95t260 -260t95 -362q0 -196 -95.5 -361t-260.5 -260.5t-361 -95.5q-195 0 -360 96t-260.5 261t-95.5 360zM700 717q0 -179 126 -304.5t304 -125.5q180 0 305.5 125t125.5 305
q0 181 -124.5 305.5t-306.5 124.5q-180 0 -305 -125t-125 -305z" />
    <glyph glyph-name="Upsilontonos" unicode="&#x38e;" horiz-adv-x="1830" 
d="M500 1505l-172 -358h-287l115 358h344zM895 1434l287 -529l286 529h322l-465 -861v-573h-287v573l-467 861h324z" />
    <glyph glyph-name="Omegatonos" unicode="&#x38f;" horiz-adv-x="1759" 
d="M328 1147h-287l115 358h344zM1718 788q0 -141 -50.5 -279.5t-147.5 -221.5h198v-287h-573v215q29 18 100 100q89 100 138 221.5t49 251.5q0 163 -98 261t-261 98t-260.5 -98t-97.5 -261q0 -96 28.5 -192.5t73.5 -163.5q86 -134 154 -192l30 -25v-215h-573v287h199
q-97 83 -148 222t-51 279q0 177 85.5 325.5t234 234.5t325.5 86t325.5 -86t234 -234.5t85.5 -325.5z" />
    <glyph glyph-name="Alpha" unicode="&#x391;" horiz-adv-x="1372" 
d="M866 1434l465 -1434h-287l-92 287h-530l-94 -287h-287l467 1434h358zM858 573l-172 529l-172 -529h344z" />
    <glyph glyph-name="Beta" unicode="&#x392;" horiz-adv-x="1157" 
d="M965 754q151 -124 151 -324q0 -128 -64 -227.5t-169 -151t-232 -51.5h-610v1434h539q129 0 233.5 -51t167.5 -150.5t63 -228.5q0 -143 -79 -250zM580 1147h-252v-287h252q60 0 101.5 42t41.5 102t-41.5 101.5t-101.5 41.5zM328 573v-286h323q60 0 102 41.5t42 101.5
t-42 101.5t-102 41.5h-323z" />
    <glyph glyph-name="Gamma" unicode="&#x393;" horiz-adv-x="1085" 
d="M41 0v1434h1003v-287h-716v-1147h-287z" />
    <glyph glyph-name="uni0394" unicode="&#x394;" horiz-adv-x="1372" 
d="M41 0l467 1434h358l465 -1434h-1290zM952 287l-266 815l-264 -815h530z" />
    <glyph glyph-name="Epsilon" unicode="&#x395;" horiz-adv-x="1085" 
d="M41 1434h1003v-287h-716v-287h573v-287h-573v-286h716v-287h-1003v1434z" />
    <glyph glyph-name="Zeta" unicode="&#x396;" 
d="M41 1147v287h1147v-215l-688 -932h688v-287h-1147v215l688 932h-688z" />
    <glyph glyph-name="Eta" unicode="&#x397;" 
d="M328 860h573v574h287v-1434h-287v573h-573v-573h-287v1434h287v-574z" />
    <glyph glyph-name="Theta" unicode="&#x398;" horiz-adv-x="1515" 
d="M41 717q0 196 95.5 361t260.5 260.5t361 95.5q197 0 362 -95t260 -260t95 -362q0 -196 -95.5 -361t-260.5 -260.5t-361 -95.5q-146 0 -279 56.5t-229 152.5t-152.5 229t-56.5 279zM328 717q0 -179 126 -304.5t304 -125.5q180 0 305 125t125 305q0 181 -124 305.5
t-306 124.5q-180 0 -305 -125t-125 -305zM614 573v287h287v-287h-287z" />
    <glyph glyph-name="Iota" unicode="&#x399;" horiz-adv-x="368" 
d="M41 1434h287v-1434h-287v1434z" />
    <glyph glyph-name="Kappa" unicode="&#x39a;" horiz-adv-x="1372" 
d="M328 692l665 742h338l-598 -666l598 -768h-354l-432 557l-217 -242v-315h-287v1434h287v-742z" />
    <glyph glyph-name="Lambda" unicode="&#x39b;" horiz-adv-x="1372" 
d="M508 1434h358l465 -1434h-287l-358 1102l-358 -1102h-287z" />
    <glyph glyph-name="Mu" unicode="&#x39c;" horiz-adv-x="1658" 
d="M829 657l502 777h287v-1434h-287v860l-430 -645h-143l-430 645v-860h-287v1434h287z" />
    <glyph glyph-name="Nu" unicode="&#x39d;" horiz-adv-x="1372" 
d="M328 1434l716 -904v904h287v-1434h-287l-716 903v-903h-287v1434h287z" />
    <glyph glyph-name="Xi" unicode="&#x39e;" 
d="M1188 1434v-287h-1147v287h1147zM1044 860v-287h-860v287h860zM1188 287v-287h-1147v287h1147z" />
    <glyph glyph-name="Omicron" unicode="&#x39f;" horiz-adv-x="1515" 
d="M41 717q0 196 95.5 361t260.5 260.5t361 95.5q197 0 362 -95t260 -260t95 -362q0 -196 -95.5 -361t-260.5 -260.5t-361 -95.5q-146 0 -279 56.5t-229 152.5t-152.5 229t-56.5 279zM328 717q0 -179 126 -304.5t304 -125.5q180 0 305 125t125 305q0 181 -124 305.5
t-306 124.5q-180 0 -305 -125t-125 -305z" />
    <glyph glyph-name="Pi" unicode="&#x3a0;" 
d="M41 0v1434h1147v-1434h-287v1147h-573v-1147h-287z" />
    <glyph glyph-name="Rho" unicode="&#x3a1;" 
d="M41 0v1434h573q157 0 289 -76.5t208.5 -208.5t76.5 -289t-76.5 -289t-208.5 -208t-289 -76h-286v-287h-287zM328 1147v-574h286q120 0 203.5 83.5t83.5 203.5t-83.5 203.5t-203.5 83.5h-286z" />
    <glyph glyph-name="Sigma" unicode="&#x3a3;" 
d="M399 717l-358 717h1147v-287h-660l215 -430l-215 -430h660v-287h-1147z" />
    <glyph glyph-name="Tau" unicode="&#x3a4;" 
d="M41 1147v287h1147v-287h-430v-1147h-287v1147h-430z" />
    <glyph glyph-name="Upsilon" unicode="&#x3a5;" horiz-adv-x="1300" 
d="M365 1434l286 -529l287 529h322l-465 -861v-573h-287v573l-467 861h324z" />
    <glyph glyph-name="Phi" unicode="&#x3a6;" horiz-adv-x="1802" 
d="M758 1434v71h286v-71q197 0 362 -95t260 -260t95 -362q0 -196 -95.5 -361t-260.5 -260.5t-361 -95.5v-72h-286v72q-146 0 -279 56.5t-229 152.5t-152.5 229t-56.5 279q0 196 95.5 361t260.5 260.5t361 95.5zM1044 1147v-860q180 0 305.5 125t125.5 305
q0 181 -124.5 305.5t-306.5 124.5zM758 287v860q-180 0 -305 -125t-125 -305q0 -179 126 -304.5t304 -125.5z" />
    <glyph glyph-name="Chi" unicode="&#x3a7;" horiz-adv-x="1372" 
d="M686 963l315 471h330l-479 -717l479 -717h-330l-315 471l-315 -471h-330l481 717l-481 717h330z" />
    <glyph glyph-name="Psi" unicode="&#x3a8;" horiz-adv-x="1515" 
d="M1188 860v574h287v-574q0 -157 -76.5 -289t-208.5 -208t-289 -76v-287h-287v287q-118 0 -224 45t-182.5 121.5t-121.5 182.5t-45 224v574h287v-574q0 -120 83 -203.5t203 -83.5v861h287v-861q120 0 203.5 83.5t83.5 203.5z" />
    <glyph glyph-name="uni03A9" unicode="&#x3a9;" horiz-adv-x="1372" 
d="M41 788q0 177 85.5 325.5t234 234.5t325.5 86t325.5 -86t234 -234.5t85.5 -325.5q0 -141 -50.5 -279.5t-147.5 -221.5h198v-287h-573v215q29 18 100 100q89 100 137.5 221.5t48.5 251.5q0 163 -97.5 261t-260.5 98t-260.5 -98t-97.5 -261q0 -96 28.5 -192.5t73.5 -163.5
q88 -137 156 -192l28 -25v-215h-573v287h199q-97 83 -148 222t-51 279z" />
    <glyph glyph-name="Iotadieresis" unicode="&#x3aa;" horiz-adv-x="370" 
d="M55 1841q51 -51 51 -121t-51 -121t-121 -51q-69 0 -120 51t-51 121t51 121q48 51 120 51q73 0 121 -51zM559 1841q49 -51 49 -121t-49 -121q-51 -51 -123 -51q-70 0 -121 51t-51 121t51 121q48 51 121 51q75 0 123 -51zM43 1434h287v-1434h-287v1434z" />
    <glyph glyph-name="Upsilondieresis" unicode="&#x3ab;" horiz-adv-x="1300" 
d="M522 1599q-51 -51 -123 -51q-69 0 -120 51t-51 121t51 121q48 51 120 51q75 0 123 -51q50 -51 50 -121t-50 -121zM1022 1599q-51 -51 -121 -51q-67 0 -121 51q-51 51 -51 121t51 121t121 51q73 0 121 -51q51 -51 51 -121t-51 -121zM365 1434l286 -529l287 529h322
l-465 -861v-573h-287v573l-467 861h324z" />
    <glyph glyph-name="alphatonos" unicode="&#x3ac;" 
d="M471 1219l115 358h344l-172 -358h-287zM901 1069v21l45 57h242v-1147h-287v78q-135 -78 -287 -78q-118 0 -224 45t-182.5 121.5t-121.5 182.5t-45 224q0 157 76 289t208 208.5t289 76.5q152 0 287 -78zM328 573q0 -120 83 -203t203 -83t203.5 83t83.5 203t-83.5 203.5
t-203.5 83.5t-203 -83.5t-83 -203.5z" />
    <glyph glyph-name="epsilontonos" unicode="&#x3ad;" horiz-adv-x="993" 
d="M354 1219l115 358h344l-172 -358h-287zM328 358q0 -86 184 -86q79 0 150 16.5t96 41.5l194 -197q-148 -133 -409 -133q-233 0 -367.5 92.5t-134.5 251.5q0 142 106 229q-106 87 -106 230q0 159 134.5 251.5t367.5 92.5q261 0 409 -133l-194 -197q-24 24 -95.5 40.5
t-150.5 16.5q-184 0 -184 -86q0 -50 77 -68t267 -18v-258q-190 0 -267 -18t-77 -68z" />
    <glyph glyph-name="etatonos" unicode="&#x3ae;" horiz-adv-x="1157" 
d="M436 1219l115 358h344l-172 -358h-287zM580 1147q146 0 269.5 -72t195 -195.5t71.5 -269.5v-1040h-287v1040q0 103 -73 176.5t-176 73.5q-104 0 -178 -73t-74 -177v-610h-287v1147h242l45 -57v-5q121 62 252 62z" />
    <glyph glyph-name="iotatonos" unicode="&#x3af;" horiz-adv-x="368" 
d="M500 1577l-172 -358h-287l115 358h344zM328 1147v-1147h-287v1147h287z" />
    <glyph glyph-name="alpha" unicode="&#x3b1;" 
d="M901 1069v21l45 57h242v-1147h-287v78q-135 -78 -287 -78q-118 0 -224 45t-182.5 121.5t-121.5 182.5t-45 224q0 157 76 289t208 208.5t289 76.5q152 0 287 -78zM328 573q0 -120 83 -203t203 -83t203.5 83t83.5 203t-83.5 203.5t-203.5 83.5t-203 -83.5t-83 -203.5z" />
    <glyph glyph-name="beta" unicode="&#x3b2;" horiz-adv-x="1085" 
d="M930 717q114 -108 114 -287q0 -87 -26 -158.5t-72 -121.5t-109.5 -84t-137 -50t-156.5 -16q-127 0 -215 33v-320h-287v1291q0 107 40 191t110 135t159.5 77.5t192.5 26.5q83 0 156.5 -16t137 -50t109.5 -84t72 -121.5t26 -158.5q0 -179 -114 -287zM328 969v-502
q0 -85 65.5 -133.5t161.5 -48.5q87 0 145 39.5t58 105.5q0 83 -78.5 113t-280.5 30v287q202 0 280.5 30.5t78.5 113.5q0 66 -58 105.5t-145 39.5q-96 0 -161.5 -48.5t-65.5 -131.5z" />
    <glyph glyph-name="gamma" unicode="&#x3b3;" 
d="M614 383l287 764h287l-430 -1147v-287h-287v287l-430 1147h287z" />
    <glyph glyph-name="delta" unicode="&#x3b4;" 
d="M41 1434h1147v-287h-359v-6q73 -65 130 -126t112.5 -138.5t86 -164t30.5 -173.5q0 -165 -76 -288.5t-205 -187t-293 -63.5t-293 64t-204.5 187.5t-75.5 287.5q0 85 34 160.5t91.5 130t131.5 94.5t155 60t161 20q-119 92 -269.5 166t-303.5 120v144zM901 539
q0 62 -20 117.5t-45 80.5l-21 23q-487 0 -487 -221q0 -124 77 -188t209 -64t209.5 64t77.5 188z" />
    <glyph glyph-name="epsilon" unicode="&#x3b5;" horiz-adv-x="995" 
d="M328 358q0 -86 184 -86q79 0 150 16.5t96 41.5l194 -197q-148 -133 -409 -133q-233 0 -367.5 92.5t-134.5 251.5q0 142 106 229q-106 87 -106 230q0 159 134.5 251.5t367.5 92.5q261 0 409 -133l-194 -197q-24 24 -95.5 40.5t-150.5 16.5q-184 0 -184 -86q0 -50 77 -68
t267 -18v-258q-190 0 -267 -18t-77 -68z" />
    <glyph glyph-name="zeta" unicode="&#x3b6;" 
d="M399 1147h-358v287h1147v-144q-322 -105 -590 -293q-270 -188 -270 -323q0 -52 60.5 -94t162.5 -70q95 -27 207 -68q46 -18 68.5 -26.5t66.5 -27t67 -31.5t59.5 -35.5t56.5 -42t44.5 -48t37 -58t21.5 -66.5t9 -78q0 -117 -48.5 -207.5t-131 -144t-182.5 -80.5t-212 -27
q-89 0 -178.5 16.5t-136.5 36.5l-43 19l115 264q162 -58 305 -58q225 0 225 181q0 48 -60.5 89t-162.5 70q-86 25 -152 47t-155.5 58t-158.5 80.5t-108 93.5q-63 75 -63 178q0 77 36 158t91 141q105 114 194 174l37 23v6z" />
    <glyph glyph-name="eta" unicode="&#x3b7;" horiz-adv-x="1157" 
d="M580 1147q146 0 269.5 -72t195 -195.5t71.5 -269.5v-1040h-287v1040q0 103 -73 176.5t-176 73.5q-104 0 -178 -73t-74 -177v-610h-287v1147h242l45 -57v-5q121 62 252 62z" />
    <glyph glyph-name="theta" unicode="&#x3b8;" 
d="M614 1577q243 0 408 -223q166 -224 166 -566q0 -339 -166 -563q-166 -225 -408 -225q-243 0 -407 221q-166 217 -166 567t166 570q165 219 407 219zM614 1290q-109 0 -182 -94t-96 -264h555q-23 166 -97 262t-180 96zM614 287q106 0 180 96t97 262h-555q23 -170 96 -264
t182 -94z" />
    <glyph glyph-name="iota" unicode="&#x3b9;" horiz-adv-x="368" 
d="M328 1147v-1147h-287v1147h287z" />
    <glyph glyph-name="kappa" unicode="&#x3ba;" 
d="M676 657l512 -657h-340l-352 455l-168 -187v-268h-287v1147h287v-488l436 488h352z" />
    <glyph glyph-name="lambda" unicode="&#x3bb;" 
d="M758 1147l430 -1147h-287l-287 764l-286 -764h-287l430 1147q-4 18 -22.5 47t-34.5 47q-53 49 -129 49q-42 0 -79 -10t-50 -23l-15 -10l-100 273q83 57 244 57q323 0 473 -430z" />
    <glyph glyph-name="uni03BC" unicode="&#x3bc;" horiz-adv-x="1157" 
d="M829 539v608h287v-1147h-287v61q-119 -61 -249 -61q-133 0 -252 61v-491h-287v1577h287v-608q0 -104 74 -178t178 -74t176.5 73.5t72.5 178.5z" />
    <glyph glyph-name="nu" unicode="&#x3bd;" 
d="M328 1147l286 -764l287 764h287l-430 -1147h-287l-430 1147h287z" />
    <glyph glyph-name="xi" unicode="&#x3be;" 
d="M543 397l71 -2q96 0 170.5 -7.5t153.5 -32.5t131 -67t85.5 -115t33.5 -173q0 -430 -574 -430q-89 0 -178.5 16.5t-136.5 36.5l-43 19l115 264q165 -51 313 -51q217 0 217 145q0 36 -44 61.5t-89 34.5t-82 10l-72 3q-307 0 -438 67q-135 68 -135 254q0 181 127 287
q-127 106 -127 287q0 202 147.5 316t425.5 114q112 0 233.5 -27.5t209.5 -79.5l59 -37l-172 -229q-145 86 -330 86q-34 0 -100 -8q-186 -36 -186 -135q0 -81 86 -111q82 -33 344 -33v-287q-246 0 -336 -20q-94 -21 -94 -66q0 -24 26 -42.5t64 -28t69.5 -14t55.5 -5.5z" />
    <glyph glyph-name="omicron" unicode="&#x3bf;" 
d="M41 573q0 157 76 289t208 208.5t289 76.5t289 -76.5t208.5 -208.5t76.5 -289t-76.5 -289t-208.5 -208t-289 -76q-118 0 -224 45t-182.5 121.5t-121.5 182.5t-45 224zM328 573q0 -120 83 -203t203 -83t203.5 83t83.5 203t-83.5 203.5t-203.5 83.5t-203 -83.5t-83 -203.5z
" />
    <glyph glyph-name="pi" unicode="&#x3c0;" 
d="M41 860v287h1147v-287h-72v-860h-287v860h-430v-860h-286v860h-72z" />
    <glyph glyph-name="rho" unicode="&#x3c1;" horiz-adv-x="1230" 
d="M614 1147q157 0 289.5 -76.5t209.5 -208.5t77 -289q0 -156 -77 -288.5t-209 -209.5t-288 -77q-150 0 -288 78v-506h-287v1005q2 156 78 287.5t207 208t288 76.5zM328 571q0 -119 84.5 -202.5t203.5 -83.5q120 0 203.5 84.5t83.5 203.5q0 120 -84.5 203.5t-204.5 83.5
t-203 -84.5t-83 -204.5z" />
    <glyph glyph-name="uni03C2" unicode="&#x3c2;" horiz-adv-x="1167" 
d="M334 631q0 -165 239 -228q71 -18 181 -53q46 -15 77.5 -26.5t72.5 -30t68.5 -36.5t57 -45t47 -56.5t28.5 -69.5t11 -86q0 -109 -39.5 -193t-109 -135t-159 -76.5t-194.5 -25.5q-128 0 -307 53l-51 19l115 249q139 -43 266 -43q178 0 178 115q0 45 -55 77t-146 46
q-98 17 -186 47q-96 30 -162 63.5t-119.5 84.5t-79.5 123t-26 169q0 157 76 289t208 208.5t289 76.5q164 0 302 -85.5t210 -232.5l-256 -127q-81 158 -256 158q-64 0 -127.5 -27t-108 -81t-44.5 -121z" />
    <glyph glyph-name="sigma" unicode="&#x3c3;" horiz-adv-x="1298" 
d="M612 1145v2h645v-287h-149q78 -135 78 -287q0 -156 -76.5 -288t-208 -208.5t-287.5 -76.5q-117 0 -223 45t-182.5 121.5t-122 182t-45.5 222.5q0 156 76 288t207.5 209t287.5 77zM328 571q0 -118 83.5 -201t202.5 -83q121 0 203 83t82 203q0 121 -83 203t-204 82
q-118 0 -201 -84t-83 -203z" />
    <glyph glyph-name="tau" unicode="&#x3c4;" horiz-adv-x="1085" 
d="M399 860h-358v287h1003v-287h-358v-860h-287v860z" />
    <glyph glyph-name="upsilon" unicode="&#x3c5;" horiz-adv-x="1157" 
d="M829 539v608h287v-608q0 -146 -71 -270t-194.5 -196.5t-270.5 -72.5t-271 72t-196 196t-72 271v608h287v-608q0 -104 74 -178t178 -74t176.5 73.5t72.5 178.5z" />
    <glyph glyph-name="phi" unicode="&#x3c6;" horiz-adv-x="1515" 
d="M614 1362h287v-215q157 0 289 -76.5t208.5 -208.5t76.5 -289t-76.5 -289t-208.5 -208t-289 -76v-215h-287v215q-118 0 -224 45t-182.5 121.5t-121.5 182.5t-45 224q0 157 76 289t208 208.5t289 76.5v215zM614 287v573q-120 0 -203 -83.5t-83 -203.5t83 -203t203 -83z
M901 860v-573q120 0 203.5 83t83.5 203t-83.5 203.5t-203.5 83.5z" />
    <glyph glyph-name="chi" unicode="&#x3c7;" horiz-adv-x="1372" 
d="M686 676l315 471h330l-479 -717l479 -717h-330l-315 471l-315 -471h-330l481 717l-481 717h330z" />
    <glyph glyph-name="psi" unicode="&#x3c8;" horiz-adv-x="1515" 
d="M1188 573v431h287v-431q0 -157 -76.5 -289t-208.5 -208t-289 -76v-287h-287v287q-118 0 -224 45t-182.5 121.5t-121.5 182.5t-45 224v431h287v-431q0 -120 83 -203t203 -83v860h287v-860q120 0 203.5 83t83.5 203z" />
    <glyph glyph-name="omega" unicode="&#x3c9;" horiz-adv-x="1515" 
d="M1047 954l-17 21l230 172q109 -109 162 -258t53 -316q0 -278 -114.5 -425.5t-316.5 -147.5q-180 0 -286 127q-106 -127 -287 -127q-202 0 -316 147.5t-114 425.5q0 104 21.5 204t54.5 167q63 129 116 182l23 21l229 -172q-26 -30 -43 -57q-43 -59 -78.5 -166t-35.5 -179
q-4 -33 2 -100q2 -34 10.5 -65t24.5 -59t43 -45t63 -17q77 0 111 94q32 88 32 336h287q0 -246 33 -336q34 -94 110 -94q39 0 68.5 20.5t45.5 53.5t24 69t8 72l-2 71q0 111 -47 217t-94 164z" />
    <glyph glyph-name="iotadieresis" unicode="&#x3ca;" horiz-adv-x="370" 
d="M55 1554q51 -51 51 -120.5t-51 -120.5t-121 -51q-69 0 -120 51t-51 120.5t51 120.5q49 52 120 52q72 0 121 -52zM559 1554q49 -51 49 -120.5t-49 -120.5q-51 -51 -123 -51q-70 0 -121 51t-51 120.5t51 120.5q49 52 121 52q74 0 123 -52zM330 1147v-1147h-287v1147h287z
" />
    <glyph glyph-name="upsilondieresis" unicode="&#x3cb;" horiz-adv-x="1157" 
d="M449 1554q51 -51 51 -120.5t-51 -120.5t-121 -51q-67 0 -121 51q-51 51 -51 120.5t51 120.5q52 52 121 52q72 0 121 -52zM952 1554q50 -51 50 -120.5t-50 -120.5q-51 -51 -123 -51q-69 0 -120 51t-51 120.5t51 120.5q49 52 120 52q74 0 123 -52zM829 539v608h287v-608
q0 -146 -71 -270t-194.5 -196.5t-270.5 -72.5t-271 72t-196 196t-72 271v608h287v-608q0 -104 74 -178t178 -74t176.5 73.5t72.5 178.5z" />
    <glyph glyph-name="omicrontonos" unicode="&#x3cc;" 
d="M930 1577l-172 -358h-287l115 358h344zM41 573q0 157 76 289t208 208.5t289 76.5t289 -76.5t208.5 -208.5t76.5 -289t-76.5 -289t-208.5 -208t-289 -76q-118 0 -224 45t-182.5 121.5t-121.5 182.5t-45 224zM328 573q0 -120 83 -203t203 -83t203.5 83t83.5 203
t-83.5 203.5t-203.5 83.5t-203 -83.5t-83 -203.5z" />
    <glyph glyph-name="upsilontonos" unicode="&#x3cd;" horiz-adv-x="1157" 
d="M895 1577l-172 -358h-287l115 358h344zM829 539v608h287v-608q0 -146 -71 -270t-194.5 -196.5t-270.5 -72.5t-271 72t-196 196t-72 271v608h287v-608q0 -104 74 -178t178 -74t176.5 73.5t72.5 178.5z" />
    <glyph glyph-name="omegatonos" unicode="&#x3ce;" horiz-adv-x="1515" 
d="M614 1219l115 358h344l-172 -358h-287zM1047 954l-17 21l230 172q109 -109 162 -258t53 -316q0 -278 -114.5 -425.5t-316.5 -147.5q-180 0 -286 127q-106 -127 -287 -127q-202 0 -316 147.5t-114 425.5q0 104 21.5 204t54.5 167q63 129 116 182l23 21l229 -172
q-26 -30 -43 -57q-43 -59 -78.5 -166t-35.5 -179q-4 -33 2 -100q2 -34 10.5 -65t24.5 -59t43 -45t63 -17q77 0 111 94q32 88 32 336h287q0 -246 33 -336q34 -94 110 -94q39 0 68.5 20.5t45.5 53.5t24 69t8 72l-2 71q0 111 -47 217t-94 164z" />
    <glyph glyph-name="uni0400" unicode="&#x400;" horiz-adv-x="1085" 
d="M227 1864h344l115 -359h-287zM41 1434h1003v-287h-716v-287h573v-287h-573v-286h716v-287h-1003v1434z" />
    <glyph glyph-name="uni0401" unicode="&#x401;" horiz-adv-x="1085" 
d="M795 1548q-72 0 -122 50t-50 122t50 122t122 50q69 0 120.5 -51.5t51.5 -120.5t-51.5 -120.5t-120.5 -51.5zM416 1599q-51 -51 -123 -51q-70 0 -121 51q-51 49 -51 121t51 123q49 49 121 49t123 -51q50 -51 50 -121t-50 -121zM41 1434h1003v-287h-716v-287h573v-287h-573
v-286h716v-287h-1003v1434z" />
    <glyph glyph-name="uni0402" unicode="&#x402;" horiz-adv-x="1587" 
d="M973 860q92 0 171.5 -12t155 -43t128.5 -78.5t85.5 -123t32.5 -173.5q0 -97 -31.5 -172.5t-84 -123.5t-126.5 -78.5t-153 -43t-170 -12.5v287q147 0 213 31.5t66 111.5q0 143 -287 143q-52 0 -105.5 -9.5t-81.5 -22.5l-28 -11v-530h-287v1147h-430v287h1147v-287h-430
v-316q148 29 215 29z" />
    <glyph glyph-name="uni0403" unicode="&#x403;" horiz-adv-x="1085" 
d="M399 1505l115 359h344l-172 -359h-287zM41 0v1434h1003v-287h-716v-1147h-287z" />
    <glyph glyph-name="uni0404" unicode="&#x404;" horiz-adv-x="1466" 
d="M758 287q138 0 252 82.5t157 214.5l258 -129q-82 -206 -264 -330.5t-403 -124.5q-146 0 -279 56.5t-229 152.5t-152.5 229t-56.5 279q0 196 95.5 361t260.5 260.5t361 95.5q224 0 404 -123t263 -332l-258 -129q-44 135 -156 216t-253 81q-137 0 -248 -78.5t-158 -208.5
h621v-287h-621q47 -129 158 -207.5t248 -78.5z" />
    <glyph glyph-name="uni0405" unicode="&#x405;" 
d="M342 1004q0 -28 22 -48.5t68 -37t91 -28t118.5 -29t124.5 -32.5q73 -21 125.5 -40.5t112.5 -53.5t97 -73.5t62 -99t25 -132.5q0 -209 -150 -319.5t-424 -110.5q-127 0 -267.5 18.5t-240.5 55.5l-65 26l115 279q274 -92 458 -92q273 0 273 143q0 28 -22 48.5t-67.5 36
t-91 26.5t-118 27.5t-123.5 31.5q-72 20 -126.5 40.5t-113.5 54t-97 74.5t-62.5 101t-24.5 134q0 207 152 318.5t421 111.5q116 0 249 -21t206 -65l47 -29l-115 -264q-201 92 -387 92q-272 0 -272 -143z" />
    <glyph glyph-name="uni0406" unicode="&#x406;" horiz-adv-x="368" 
d="M41 1434h287v-1434h-287v1434z" />
    <glyph glyph-name="uni0407" unicode="&#x407;" horiz-adv-x="370" 
d="M55 1841q51 -51 51 -121t-51 -121t-121 -51q-69 0 -120 51t-51 121t51 121q48 51 120 51q73 0 121 -51zM559 1841q49 -51 49 -121t-49 -121q-51 -51 -123 -51q-70 0 -121 51t-51 121t51 121q48 51 121 51q75 0 123 -51zM330 1434v-1434h-287v1434h287z" />
    <glyph glyph-name="uni0408" unicode="&#x408;" horiz-adv-x="1019" 
d="M692 573v861h287v-861q0 -118 -45 -224t-121.5 -182.5t-182.5 -121.5t-224 -45q-238 0 -406 168l203 203q84 -84 203 -84q120 0 203 83t83 203z" />
    <glyph glyph-name="uni0409" unicode="&#x409;" horiz-adv-x="1908" 
d="M1075 1434v-537h344q188 0 318.5 -130.5t130.5 -317.5t-131 -318t-318 -131h-631v1147h-143v-789q0 -151 -103.5 -254.5t-254.5 -103.5q-85 0 -158 20.5t-102 45.5l-27 20l59 281q40 -52 156 -52q64 0 103.5 39.5t39.5 104.5v975h717zM1075 610v-323h344q66 0 114 47.5
t48 114.5q0 66 -48 113.5t-114 47.5h-344z" />
    <glyph glyph-name="uni040A" unicode="&#x40a;" horiz-adv-x="1949" 
d="M1116 1434v-537h344q188 0 318.5 -130.5t130.5 -317.5t-130.5 -318t-318.5 -131h-631v573h-501v-573h-287v1434h287v-574h501v574h287zM1116 610v-323h344q66 0 114 47.5t48 114.5q0 66 -48 113.5t-114 47.5h-344z" />
    <glyph glyph-name="uni040B" unicode="&#x40b;" horiz-adv-x="1587" 
d="M973 860q118 0 224 -45t182.5 -121.5t121.5 -182.5t45 -224v-287h-286v287q0 130 -85 208t-217 78q-52 0 -101.5 -9.5t-74.5 -22.5l-24 -11v-530h-287v1147h-430v287h1147v-287h-430v-316q110 29 215 29z" />
    <glyph glyph-name="uni040C" unicode="&#x40c;" horiz-adv-x="1372" 
d="M1001 1864l-172 -359h-286l114 359h344zM328 692l665 742h338l-598 -666l598 -768h-354l-432 557l-217 -242v-315h-287v1434h287v-742z" />
    <glyph glyph-name="uni040D" unicode="&#x40d;" horiz-adv-x="1372" 
d="M371 1864h344l114 -359h-286zM328 1434v-904l716 904h287v-1434h-287v903l-716 -903h-287v1434h287z" />
    <glyph glyph-name="uni040E" unicode="&#x40e;" horiz-adv-x="1157" 
d="M973 1864q0 -151 -104 -255t-255 -104t-254.5 104t-103.5 255h287q0 -29 21 -50.5t50 -21.5t50.5 21.5t21.5 50.5h287zM328 1434l252 -703l249 703h287l-358 -1004q-150 -430 -473 -430q-63 0 -126 13.5t-93 29.5l-25 14l100 273q58 -43 115 -43q47 0 84 33t49 73l10 37
l-358 1004h287z" />
    <glyph glyph-name="uni040F" unicode="&#x40f;" 
d="M328 287h573v1147h287v-1434h-430v-143h-287v143h-430v1434h287v-1147z" />
    <glyph glyph-name="uni0410" unicode="&#x410;" horiz-adv-x="1372" 
d="M866 1434l465 -1434h-287l-92 287h-530l-94 -287h-287l467 1434h358zM858 573l-172 529l-172 -529h344z" />
    <glyph glyph-name="uni0411" unicode="&#x411;" 
d="M1188 430q0 -126 -63.5 -225t-167 -151t-228.5 -54h-688v1434h1003v-287h-716v-287h415q124 -6 224.5 -59t160.5 -150t60 -221zM328 573v-286h395q60 0 101.5 41.5t41.5 101.5t-41.5 101.5t-101.5 41.5h-395z" />
    <glyph glyph-name="uni0412" unicode="&#x412;" horiz-adv-x="1157" 
d="M965 754q151 -124 151 -324q0 -128 -64 -227.5t-169 -151t-232 -51.5h-610v1434h539q129 0 233.5 -51t167.5 -150.5t63 -228.5q0 -143 -79 -250zM580 1147h-252v-287h252q60 0 101.5 42t41.5 102t-41.5 101.5t-101.5 41.5zM328 573v-286h323q60 0 102 41.5t42 101.5
t-42 101.5t-102 41.5h-323z" />
    <glyph glyph-name="uni0413" unicode="&#x413;" horiz-adv-x="1085" 
d="M41 0v1434h1003v-287h-716v-1147h-287z" />
    <glyph glyph-name="uni0414" unicode="&#x414;" horiz-adv-x="1372" 
d="M471 1434h789v-1147h71v-430h-287v143h-716v-143h-287v430h145q285 624 285 1147zM502 287h471v860h-207q-59 -409 -264 -860z" />
    <glyph glyph-name="uni0415" unicode="&#x415;" horiz-adv-x="1085" 
d="M41 1434h1003v-287h-716v-287h573v-287h-573v-286h716v-287h-1003v1434z" />
    <glyph glyph-name="uni0416" unicode="&#x416;" horiz-adv-x="2023" 
d="M1155 860h117l381 574h329l-479 -717l479 -717h-329l-381 571h-117v-571h-287v571h-116l-381 -571h-330l481 717l-481 717h330l381 -574h116v574h287v-574z" />
    <glyph glyph-name="uni0417" unicode="&#x417;" 
d="M1061 717q127 -106 127 -287q0 -201 -148 -315.5t-426 -114.5q-104 0 -203.5 21.5t-166.5 54.5q-129 63 -183 117l-20 22l172 229q30 -26 57 -43q57 -43 165 -78.5t179 -35.5q12 -2 45 -2q32 0 61.5 3t63.5 12.5t59 25t41.5 42.5t16.5 62q0 77 -94 111q-88 32 -336 32
v287q262 0 344 33q86 30 86 111q0 34 -22 61.5t-56.5 43t-69.5 24t-67 10.5l-72 4q-72 0 -150 -17.5t-138 -48.5l-41 -20l-172 229q96 68 235.5 106t265.5 38q278 0 426 -114.5t148 -315.5q0 -181 -127 -287z" />
    <glyph glyph-name="uni0418" unicode="&#x418;" horiz-adv-x="1372" 
d="M328 1434v-904l716 904h287v-1434h-287v903l-716 -903h-287v1434h287z" />
    <glyph glyph-name="uni0419" unicode="&#x419;" horiz-adv-x="1372" 
d="M1044 1864q0 -151 -103.5 -255t-254.5 -104t-254.5 104t-103.5 255h258q0 -49 32 -74t68 -25t68 25t32 74h258zM328 1434v-904l716 904h287v-1434h-287v903l-716 -903h-287v1434h287z" />
    <glyph glyph-name="uni041A" unicode="&#x41a;" horiz-adv-x="1372" 
d="M328 692l665 742h338l-598 -666l598 -768h-354l-432 557l-217 -242v-315h-287v1434h287v-742z" />
    <glyph glyph-name="uni041B" unicode="&#x41b;" horiz-adv-x="1300" 
d="M471 1434h789v-1434h-287v1147h-207q-51 -346 -182 -668q-116 -286 -195 -420l-33 -59h-315q21 32 47 82q42 83 102 215q281 621 281 1137z" />
    <glyph glyph-name="uni041C" unicode="&#x41c;" horiz-adv-x="1658" 
d="M829 657l502 777h287v-1434h-287v860l-430 -645h-143l-430 645v-860h-287v1434h287z" />
    <glyph glyph-name="uni041D" unicode="&#x41d;" 
d="M328 860h573v574h287v-1434h-287v573h-573v-573h-287v1434h287v-574z" />
    <glyph glyph-name="uni041E" unicode="&#x41e;" horiz-adv-x="1515" 
d="M41 717q0 196 95.5 361t260.5 260.5t361 95.5q197 0 362 -95t260 -260t95 -362q0 -196 -95.5 -361t-260.5 -260.5t-361 -95.5q-146 0 -279 56.5t-229 152.5t-152.5 229t-56.5 279zM328 717q0 -179 126 -304.5t304 -125.5q180 0 305 125t125 305q0 181 -124 305.5
t-306 124.5q-180 0 -305 -125t-125 -305z" />
    <glyph glyph-name="uni041F" unicode="&#x41f;" 
d="M41 0v1434h1147v-1434h-287v1147h-573v-1147h-287z" />
    <glyph glyph-name="uni0420" unicode="&#x420;" 
d="M41 0v1434h573q157 0 289 -76.5t208.5 -208.5t76.5 -289t-76.5 -289t-208.5 -208t-289 -76h-286v-287h-287zM328 1147v-574h286q120 0 203.5 83.5t83.5 203.5t-83.5 203.5t-203.5 83.5h-286z" />
    <glyph glyph-name="uni0421" unicode="&#x421;" horiz-adv-x="1466" 
d="M758 287q138 0 252 82.5t157 214.5l258 -129q-82 -206 -264 -330.5t-403 -124.5q-146 0 -279 56.5t-229 152.5t-152.5 229t-56.5 279q0 196 95.5 361t260.5 260.5t361 95.5q224 0 404 -123t263 -332l-258 -129q-44 135 -156 216t-253 81q-180 0 -305 -125t-125 -305
q0 -179 126 -304.5t304 -125.5z" />
    <glyph glyph-name="uni0422" unicode="&#x422;" 
d="M41 1147v287h1147v-287h-430v-1147h-287v1147h-430z" />
    <glyph glyph-name="uni0423" unicode="&#x423;" horiz-adv-x="1157" 
d="M328 1434l252 -703l249 703h287l-358 -1004q-150 -430 -473 -430q-63 0 -126 13.5t-93 29.5l-25 14l100 273q58 -43 115 -43q47 0 84 33t49 73l10 37l-358 1004h287z" />
    <glyph glyph-name="uni0424" unicode="&#x424;" horiz-adv-x="1802" 
d="M758 1434v143h286v-143q197 0 362 -95t260 -260t95 -362q0 -196 -95.5 -361t-260.5 -260.5t-361 -95.5v-143h-286v143q-146 0 -279 56.5t-229 152.5t-152.5 229t-56.5 279q0 196 95.5 361t260.5 260.5t361 95.5zM1044 1147v-860q180 0 305.5 125t125.5 305
q0 181 -124.5 305.5t-306.5 124.5zM758 287v860q-180 0 -305 -125t-125 -305q0 -179 126 -304.5t304 -125.5z" />
    <glyph glyph-name="uni0425" unicode="&#x425;" horiz-adv-x="1372" 
d="M686 963l315 471h330l-479 -717l479 -717h-330l-315 471l-315 -471h-330l481 717l-481 717h330z" />
    <glyph glyph-name="uni0426" unicode="&#x426;" horiz-adv-x="1300" 
d="M901 1434h287v-1076h72v-501h-287v143h-932v1434h287v-1147h573v1147z" />
    <glyph glyph-name="uni0427" unicode="&#x427;" horiz-adv-x="1157" 
d="M807 606l22 10v818h287v-1434h-287v315q-106 -28 -215 -28q-118 0 -224 45t-182.5 121.5t-121.5 182.5t-45 224v574h287v-574q0 -128 85.5 -207.5t215.5 -79.5q110 0 178 33z" />
    <glyph glyph-name="uni0428" unicode="&#x428;" horiz-adv-x="2023" 
d="M1155 287h541v1147h286v-1434h-1941v1434h287v-1147h540v1147h287v-1147z" />
    <glyph glyph-name="uni0429" unicode="&#x429;" horiz-adv-x="2095" 
d="M1696 1434h286v-1076h72v-501h-287v143h-1726v1434h287v-1147h540v1147h287v-1147h541v1147z" />
    <glyph glyph-name="uni042A" unicode="&#x42a;" horiz-adv-x="1304" 
d="M471 1434v-537h344q188 0 318.5 -130.5t130.5 -317.5t-131 -318t-318 -131h-631v1147h-143v287h430zM471 610v-323h344q66 0 114 47.5t48 114.5q0 66 -48 113.5t-114 47.5h-344z" />
    <glyph glyph-name="uni042B" unicode="&#x42b;" horiz-adv-x="1515" 
d="M1475 0h-287v1434h287v-1434zM328 1434v-537h344q188 0 318 -130.5t130 -317.5q0 -188 -130.5 -318.5t-317.5 -130.5h-631v1434h287zM328 610v-323h344q66 0 114 47.5t48 114.5q0 66 -48 113.5t-114 47.5h-344z" />
    <glyph glyph-name="uni042C" unicode="&#x42c;" horiz-adv-x="1161" 
d="M328 1434v-537h344q188 0 318 -130.5t130 -317.5q0 -188 -130.5 -318.5t-317.5 -130.5h-631v1434h287zM328 610v-323h344q66 0 114 47.5t48 114.5q0 66 -48 113.5t-114 47.5h-344z" />
    <glyph glyph-name="uni042D" unicode="&#x42d;" horiz-adv-x="1466" 
d="M709 1434q148 0 280.5 -56t228 -151.5t151.5 -228.5t56 -281q0 -196 -95 -361t-260 -260.5t-361 -95.5q-220 0 -404.5 125.5t-263.5 329.5l258 129q43 -132 157 -214.5t253 -82.5q137 0 247.5 78t157.5 208h-620v287h620q-48 130 -158 208.5t-247 78.5q-141 0 -253.5 -81
t-156.5 -216l-258 129q82 207 263.5 331t404.5 124z" />
    <glyph glyph-name="uni042E" unicode="&#x42e;" horiz-adv-x="1873" 
d="M1116 1434q197 0 362 -95t260 -260t95 -362q0 -196 -95.5 -361t-260.5 -260.5t-361 -95.5q-168 0 -317 73t-250.5 204t-134.5 296h-86v-573h-287v1434h287v-574h86q51 253 248 413.5t454 160.5zM686 717q0 -179 126 -304.5t304 -125.5q180 0 305 125t125 305
q0 181 -124 305.5t-306 124.5q-180 0 -305 -125t-125 -305z" />
    <glyph glyph-name="uni042F" unicode="&#x42f;" 
d="M614 1434h574v-1434h-287v287h-301q-11 0 -47 4l-197 -291h-315l258 381q-120 79 -189 206t-69 273q0 157 76 289t208 208.5t289 76.5zM614 573h287v574h-287q-120 0 -203 -83.5t-83 -203.5t83 -203.5t203 -83.5z" />
    <glyph glyph-name="uni0430" unicode="&#x430;" horiz-adv-x="1157" 
d="M543 1147q290 0 431.5 -142t141.5 -432v-573h-287v57q-69 -57 -286 -57q-89 0 -174 20.5t-160.5 62t-121.5 115t-46 169.5q0 97 45.5 170.5t120.5 114t160 60t176 19.5q150 0 215 -10l28 -4q0 51 -51 94q-65 49 -192 49q-85 0 -168 -17.5t-125 -39.5l-37 -19l-115 263
q8 4 54 28q77 35 186 53.5t205 18.5zM543 287q63 0 111.5 14t74 36t38 42t15.5 37l4 14q-80 14 -243 14q-187 0 -187 -77q0 -80 187 -80z" />
    <glyph glyph-name="uni0431" unicode="&#x431;" horiz-adv-x="1226" 
d="M393 1038l-8 -20q112 33 233 33q161 0 288 -59t203.5 -178.5t76.5 -281.5q0 -157 -76.5 -279t-204.5 -186.5t-284 -64.5q-257 0 -418 205q-162 201 -162 584q0 311 176 514q176 200 412 200q113 0 200.5 16.5t116.5 37.5l25 18l71 -287q-8 -8 -26 -20q-44 -25 -149.5 -38
t-180.5 -13q-54 0 -101.5 -14t-79.5 -34.5t-56.5 -46t-37.5 -47t-18 -39.5zM623 289q109 0 199.5 71.5t90.5 178.5q0 109 -84 178t-239 69q-112 0 -242 -34q-8 -70 -8 -107q0 -71 15 -132t47 -113t88.5 -81.5t132.5 -29.5z" />
    <glyph glyph-name="uni0432" unicode="&#x432;" horiz-adv-x="1013" 
d="M860 621q113 -107 113 -263q0 -151 -104 -254.5t-255 -103.5h-573v1147h530v-2q140 -9 235 -112t95 -245q0 -90 -41 -167zM543 860h-215v-143h215q32 1 51.5 21t19.5 50q0 29 -21 50.5t-50 21.5zM328 430v-143h286q29 0 50.5 21t21.5 50q0 26 -18.5 46.5t-44.5 25.5h-295
z" />
    <glyph glyph-name="uni0433" unicode="&#x433;" horiz-adv-x="1013" 
d="M41 0v1147h932v-287h-645v-860h-287z" />
    <glyph glyph-name="uni0434" unicode="&#x434;" horiz-adv-x="1300" 
d="M471 1147h717v-789h72v-501h-287v143h-645v-143h-287v501h65q100 115 177 235.5t132.5 270t55.5 283.5zM901 287v573h-182q-33 -127 -105 -269.5t-155 -238.5l-60 -65h502z" />
    <glyph glyph-name="uni0435" unicode="&#x435;" 
d="M1188 573q0 -69 -19 -143h-817q61 -143 262 -143q172 0 254 73l248 -145q-48 -71 -137 -121.5t-181.5 -72t-183.5 -21.5q-120 0 -226 44.5t-182 120.5t-120.5 182t-44.5 226q0 157 76 289t208 208.5t289 76.5t289 -76.5t208.5 -208.5t76.5 -289zM360 717h508
q-73 143 -254 143t-254 -143z" />
    <glyph glyph-name="uni0436" unicode="&#x436;" horiz-adv-x="1736" 
d="M1061 719l305 428h330l-408 -574l408 -573h-330l-305 428h-49v-428h-287v428h-49l-305 -428h-330l410 573l-410 574h330l305 -428h49v428h287v-428h49z" />
    <glyph glyph-name="uni0437" unicode="&#x437;" horiz-adv-x="1013" 
d="M872 573q101 -91 101 -229q0 -159 -134.5 -251.5t-367.5 -92.5q-93 0 -206.5 22.5t-178.5 63.5l-45 29l143 286q93 -112 260 -112q70 0 120 20t50 49q0 25 -19.5 39.5t-80.5 23.5t-172 9v287q111 0 172 9t80.5 23t19.5 39q0 29 -50.5 49.5t-119.5 20.5q-166 0 -260 -113
l-143 287q17 13 49 33q26 16 143 51q115 31 238 31q233 0 367.5 -92.5t134.5 -251.5q0 -139 -101 -230z" />
    <glyph glyph-name="uni0438" unicode="&#x438;" 
d="M328 1147v-645l573 645h287v-1147h-287v645l-573 -645h-287v1147h287z" />
    <glyph glyph-name="uni0439" unicode="&#x439;" 
d="M973 1577q0 -151 -104 -254.5t-255 -103.5t-254.5 103.5t-103.5 254.5h258q0 -49 32 -73.5t68 -24.5t68.5 24.5t32.5 73.5h258zM328 1147v-645l573 645h287v-1147h-287v645l-573 -645h-287v1147h287z" />
    <glyph glyph-name="uni043A" unicode="&#x43a;" 
d="M676 657l512 -657h-340l-352 455l-168 -187v-268h-287v1147h287v-488l436 488h352z" />
    <glyph glyph-name="uni043B" unicode="&#x43b;" 
d="M471 1147h717v-1147h-287v860h-176q-37 -174 -109.5 -377t-154.5 -364l-62 -119h-358q26 38 47 80q78 147 130.5 254t118 261t100 294t34.5 258z" />
    <glyph glyph-name="uni043C" unicode="&#x43c;" horiz-adv-x="1486" 
d="M743 522l416 625h287v-1147h-287v588l-344 -516h-143l-344 516v-588h-287v1147h287z" />
    <glyph glyph-name="uni043D" unicode="&#x43d;" horiz-adv-x="1085" 
d="M328 717h430v430h286v-1147h-286v430h-430v-430h-287v1147h287v-430z" />
    <glyph glyph-name="uni043E" unicode="&#x43e;" 
d="M41 573q0 157 76 289t208 208.5t289 76.5t289 -76.5t208.5 -208.5t76.5 -289t-76.5 -289t-208.5 -208t-289 -76q-118 0 -224 45t-182.5 121.5t-121.5 182.5t-45 224zM328 573q0 -120 83 -203t203 -83t203.5 83t83.5 203t-83.5 203.5t-203.5 83.5t-203 -83.5t-83 -203.5z
" />
    <glyph glyph-name="uni043F" unicode="&#x43f;" horiz-adv-x="1085" 
d="M41 0v1147h1003v-1147h-286v860h-430v-860h-287z" />
    <glyph glyph-name="uni0440" unicode="&#x440;" 
d="M614 1147q157 0 289 -76.5t208.5 -208.5t76.5 -289t-76.5 -289t-208.5 -208t-289 -76q-151 0 -286 78v-508h-287v1577h242l45 -57v-21q135 78 286 78zM328 573q0 -120 83 -203t203 -83t203.5 83t83.5 203t-83.5 203.5t-203.5 83.5t-203 -83.5t-83 -203.5z" />
    <glyph glyph-name="uni0441" unicode="&#x441;" horiz-adv-x="1167" 
d="M614 287q81 0 150 42.5t106 114.5l256 -127q-70 -145 -210 -231t-302 -86q-118 0 -224 45t-182.5 121.5t-121.5 182.5t-45 224q0 157 76 289t208 208.5t289 76.5q164 0 302 -85.5t210 -232.5l-256 -127q-37 72 -106 115t-150 43q-120 0 -203 -83.5t-83 -203.5t83 -203
t203 -83z" />
    <glyph glyph-name="uni0442" unicode="&#x442;" horiz-adv-x="1085" 
d="M399 860h-358v287h1003v-287h-358v-860h-287v860z" />
    <glyph glyph-name="uni0443" unicode="&#x443;" horiz-adv-x="1157" 
d="M328 1147l252 -703l249 703h287l-358 -1004q-150 -430 -473 -430q-63 0 -126 13.5t-93 29.5l-25 15l100 272q58 -43 115 -43q47 0 84 33t49 73l10 37l-358 1004h287z" />
    <glyph glyph-name="uni0444" unicode="&#x444;" horiz-adv-x="1515" 
d="M614 1434h287v-287q157 0 289 -76.5t208.5 -208.5t76.5 -289t-76.5 -289t-208.5 -208t-289 -76v-287h-287v287q-118 0 -224 45t-182.5 121.5t-121.5 182.5t-45 224q0 157 76 289t208 208.5t289 76.5v287zM614 287v573q-120 0 -203 -83.5t-83 -203.5t83 -203t203 -83z
M901 860v-573q120 0 203.5 83t83.5 203t-83.5 203.5t-203.5 83.5z" />
    <glyph glyph-name="uni0445" unicode="&#x445;" 
d="M614 819l230 328h344l-406 -569l406 -578h-344l-234 336l-239 -336h-330l401 573l-401 574h344z" />
    <glyph glyph-name="uni0446" unicode="&#x446;" horiz-adv-x="1157" 
d="M758 1147h286v-789h72v-501h-287v143h-788v1147h287v-860h430v860z" />
    <glyph glyph-name="uni0447" unicode="&#x447;" horiz-adv-x="1157" 
d="M807 606l22 10v531h287v-1147h-287v315q-106 -28 -215 -28q-118 0 -224 45t-182.5 121.5t-121.5 182.5t-45 224v287h287v-287q0 -128 85.5 -207.5t215.5 -79.5q110 0 178 33z" />
    <glyph glyph-name="uni0448" unicode="&#x448;" horiz-adv-x="1736" 
d="M1012 287h397v860h287v-1147h-1655v1147h287v-860h397v860h287v-860z" />
    <glyph glyph-name="uni0449" unicode="&#x449;" horiz-adv-x="1808" 
d="M1409 1147h287v-789h71v-501h-286v143h-1440v1147h287v-860h397v860h287v-860h397v860z" />
    <glyph glyph-name="uni044A" unicode="&#x44a;" horiz-adv-x="1304" 
d="M471 1147v-250h344q188 0 318.5 -130.5t130.5 -317.5t-131 -318t-318 -131h-631v860h-143v287h430zM471 610v-323h344q66 0 114 47.5t48 114.5q0 66 -48 113.5t-114 47.5h-344z" />
    <glyph glyph-name="uni044B" unicode="&#x44b;" horiz-adv-x="1515" 
d="M1475 0h-287v1147h287v-1147zM328 1147v-250h344q188 0 318 -130.5t130 -317.5q0 -188 -130.5 -318.5t-317.5 -130.5h-631v1147h287zM328 610v-323h344q66 0 114 47.5t48 114.5q0 66 -48 113.5t-114 47.5h-344z" />
    <glyph glyph-name="uni044C" unicode="&#x44c;" horiz-adv-x="1161" 
d="M328 1147v-250h344q188 0 318 -130.5t130 -317.5q0 -188 -130.5 -318.5t-317.5 -130.5h-631v1147h287zM328 610v-323h344q66 0 114 47.5t48 114.5q0 66 -48 113.5t-114 47.5h-344z" />
    <glyph glyph-name="uni044D" unicode="&#x44d;" horiz-adv-x="1171" 
d="M1110 717h2q40 -143 0 -287h-2q-47 -191 -203 -310.5t-354 -119.5q-162 0 -302 86t-210 231l256 127q37 -70 106.5 -113.5t149.5 -43.5q165 0 250 143h-318v287h318q-85 143 -250 143q-80 0 -149 -43.5t-107 -114.5l-256 127q72 147 210 232.5t302 85.5q198 0 354 -119.5
t203 -310.5z" />
    <glyph glyph-name="uni044E" unicode="&#x44e;" horiz-adv-x="1587" 
d="M973 1147q157 0 289 -76.5t208 -208.5t76 -289q0 -118 -45 -224t-121.5 -182.5t-182.5 -121.5t-224 -45q-187 0 -336.5 109t-208.5 286h-100v-395h-287v1147h287v-393h100q60 177 209 285t336 108zM686 573q0 -120 83.5 -203t203.5 -83t203.5 83t83.5 203t-83.5 203.5
t-203.5 83.5t-203.5 -83.5t-83.5 -203.5z" />
    <glyph glyph-name="uni044F" unicode="&#x44f;" horiz-adv-x="1085" 
d="M500 1147h544v-1147h-286v229h-258q-35 0 -45 2l-127 -231h-287l178 326q-83 62 -130.5 158t-47.5 204q0 192 133.5 325.5t325.5 133.5zM500 516h258v344h-258q-69 0 -120.5 -51.5t-51.5 -120.5t51.5 -120.5t120.5 -51.5z" />
    <glyph glyph-name="uni0450" unicode="&#x450;" 
d="M299 1577h344l115 -358h-287zM1188 573q0 -69 -19 -143h-817q61 -143 262 -143q172 0 254 73l248 -145q-48 -71 -137 -121.5t-181.5 -72t-183.5 -21.5q-120 0 -226 44.5t-182 120.5t-120.5 182t-44.5 226q0 157 76 289t208 208.5t289 76.5t289 -76.5t208.5 -208.5
t76.5 -289zM360 717h508q-70 143 -254 143t-254 -143z" />
    <glyph glyph-name="uni0451" unicode="&#x451;" 
d="M365 1262q-72 0 -122 50t-50 122t50 122t122 50q69 0 120.5 -51.5t51.5 -120.5t-51.5 -120.5t-120.5 -51.5zM989 1313q-51 -51 -123 -51q-70 0 -121 51q-51 50 -51 121t51 122q50 50 121 50t123 -52q49 -51 49 -120.5t-49 -120.5zM1188 573q0 -69 -19 -143h-817
q61 -143 262 -143q172 0 254 73l248 -145q-48 -71 -137 -121.5t-181.5 -72t-183.5 -21.5q-120 0 -226 44.5t-182 120.5t-120.5 182t-44.5 226q0 157 76 289t208 208.5t289 76.5t289 -76.5t208.5 -208.5t76.5 -289zM360 717h508q-73 143 -254 143t-254 -143z" />
    <glyph glyph-name="uni0452" unicode="&#x452;" horiz-adv-x="1337" 
d="M758 1147q146 0 270 -71.5t196 -195t72 -270.5v-538q0 -151 -103.5 -255t-254.5 -104q-85 0 -158 20.5t-102 45.5l-27 20l58 281q42 -51 157 -51q65 0 104.5 39.5t39.5 103.5v438q0 104 -74 177t-178 73q-103 0 -176.5 -73.5t-73.5 -176.5v-610h-287v1219h-180v286h180
v72h287v-72h178v-286h-178v-134q118 62 250 62z" />
    <glyph glyph-name="uni0453" unicode="&#x453;" horiz-adv-x="1013" 
d="M350 1219l115 358h344l-172 -358h-287zM41 0v1147h932v-287h-645v-860h-287z" />
    <glyph glyph-name="uni0454" unicode="&#x454;" horiz-adv-x="1167" 
d="M614 287q81 0 150 42.5t106 114.5l256 -127q-70 -145 -210 -231t-302 -86q-118 0 -224 45t-182.5 121.5t-121.5 182.5t-45 224q0 157 76 289t208 208.5t289 76.5q164 0 302 -85.5t210 -232.5l-256 -127q-37 72 -106 115t-150 43q-78 0 -144 -38.5t-103 -104.5h323v-287
h-323q37 -66 103 -104.5t144 -38.5z" />
    <glyph glyph-name="uni0455" unicode="&#x455;" horiz-adv-x="1085" 
d="M1044 358q0 -75 -31.5 -136.5t-82 -102t-117.5 -68t-134.5 -39.5t-135.5 -12q-106 0 -229 19.5t-212 54.5l-61 26l115 262q64 -47 173.5 -68.5t213.5 -21.5q55 0 96.5 8.5t63 19.5t35 26t17 25.5t3.5 19.5v16q-13 23 -67 31t-151 13.5t-161 17.5q-81 16 -139.5 39
t-105 61.5t-70 98t-23.5 140.5q0 75 31.5 137t82.5 102t117.5 68t134.5 40t136 12q243 0 387 -66l43 -20l-137 -252q-109 65 -293 65q-215 0 -215 -86q0 -31 45.5 -42t148.5 -18.5t164 -18.5q84 -17 144.5 -40.5t111 -63t76.5 -101.5t26 -146z" />
    <glyph glyph-name="uni0456" unicode="&#x456;" horiz-adv-x="380" 
d="M313 1554q49 -51 49 -120.5t-49 -120.5q-51 -51 -123 -51q-69 0 -120 51t-51 120.5t51 120.5q49 52 120 52q74 0 123 -52zM334 1147v-1147h-287v1147h287z" />
    <glyph glyph-name="uni0457" unicode="&#x457;" horiz-adv-x="370" 
d="M55 1554q51 -51 51 -120.5t-51 -120.5t-121 -51q-69 0 -120 51t-51 120.5t51 120.5q49 52 120 52q72 0 121 -52zM315 1554q49 52 121 52q74 0 123 -52q49 -51 49 -120.5t-49 -120.5q-51 -51 -123 -51q-70 0 -121 51t-51 120.5t51 120.5zM330 1147v-1147h-287v1147h287z
" />
    <glyph glyph-name="uni0458" unicode="&#x458;" horiz-adv-x="774" 
d="M694 1313q-51 -51 -121 -51q-66 0 -120 51q-51 51 -51 120.5t51 120.5q52 52 120 52q72 0 121 -52q51 -51 51 -120.5t-51 -120.5zM430 72v1075h287v-1075q0 -209 -146.5 -355.5t-355.5 -146.5q-53 0 -107.5 16.5t-82.5 36.5l-25 19l63 280q53 -65 152 -65q215 0 215 215z
" />
    <glyph glyph-name="uni0459" unicode="&#x459;" horiz-adv-x="1908" 
d="M1075 1147v-250h344q188 0 318.5 -130.5t130.5 -317.5t-131 -318t-318 -131h-631v860h-143v-502q0 -151 -103.5 -254.5t-254.5 -103.5q-85 0 -158 20.5t-102 45.5l-27 20l59 281q40 -52 156 -52q64 0 103.5 39.5t39.5 104.5v688h717zM1075 610v-323h344q66 0 114 47.5
t48 114.5q0 66 -48 113.5t-114 47.5h-344z" />
    <glyph glyph-name="uni045A" unicode="&#x45a;" horiz-adv-x="1878" 
d="M1044 1147v-250h345q187 0 317.5 -130.5t130.5 -317.5q0 -188 -130.5 -318.5t-317.5 -130.5h-631v430h-430v-430h-287v1147h287v-430h430v430h286zM1044 610v-323h345q66 0 113.5 47.5t47.5 114.5q0 66 -47.5 113.5t-113.5 47.5h-345z" />
    <glyph glyph-name="uni045B" unicode="&#x45b;" horiz-adv-x="1337" 
d="M758 1147q146 0 270 -71.5t196 -195t72 -270.5v-610h-286v610q0 104 -74 177t-178 73q-103 0 -176.5 -73.5t-73.5 -176.5v-610h-287v1219h-180v286h180v72h287v-72h178v-286h-178v-134q118 62 250 62z" />
    <glyph glyph-name="uni045C" unicode="&#x45c;" horiz-adv-x="1114" 
d="M414 1219l114 358h344l-172 -358h-286zM328 709l401 438h344l-487 -533l487 -614h-352l-326 408l-67 -76v-332h-287v1147h287v-438z" />
    <glyph glyph-name="uni045D" unicode="&#x45d;" 
d="M299 1577h344l115 -358h-287zM328 1147v-645l573 645h287v-1147h-287v645l-573 -645h-287v1147h287z" />
    <glyph glyph-name="uni045E" unicode="&#x45e;" horiz-adv-x="1157" 
d="M580 1219q-151 0 -255 103.5t-104 254.5h287q0 -30 21 -51t51 -21q29 0 50 21.5t21 50.5h287q0 -151 -103.5 -254.5t-254.5 -103.5zM328 1147l252 -703l249 703h287l-358 -1004q-150 -430 -473 -430q-63 0 -126 13.5t-93 29.5l-25 15l100 272q58 -43 115 -43q47 0 84 33
t49 73l10 37l-358 1004h287z" />
    <glyph glyph-name="uni045F" unicode="&#x45f;" horiz-adv-x="1085" 
d="M328 287h430v860h286v-1147h-350v-143h-286v143h-367v1147h287v-860z" />
    <glyph glyph-name="uni0462" unicode="&#x462;" horiz-adv-x="1318" 
d="M485 1075v-178h344q188 0 318.5 -130.5t130.5 -317.5t-131 -318t-318 -131h-630v1075h-158v287h158v72h286v-72h488v-287h-488zM485 610v-323h344q66 0 114 47.5t48 114.5q0 66 -48 113.5t-114 47.5h-344z" />
    <glyph glyph-name="uni0463" unicode="&#x463;" horiz-adv-x="1339" 
d="M508 1075v-178h344q187 0 316.5 -130.5t129.5 -317.5t-129.5 -318t-316.5 -131h-631v1075h-180v287h180v72h287v-72h178v-287h-178zM508 610v-323h344q66 0 113 47.5t47 114.5q0 66 -47 113.5t-113 47.5h-344z" />
    <glyph glyph-name="uni0472" unicode="&#x472;" horiz-adv-x="1515" 
d="M41 717q0 196 95.5 361t260.5 260.5t361 95.5q197 0 362 -95t260 -260t95 -362q0 -196 -95.5 -361t-260.5 -260.5t-361 -95.5q-146 0 -279 56.5t-229 152.5t-152.5 229t-56.5 279zM758 1147q-130 0 -238 -72t-158 -190q76 8 134 8q111 0 233 -25l57 -10q117 -24 234 -24
q56 0 141 10h8q-41 136 -154.5 219.5t-256.5 83.5zM758 287q128 0 238 72t159 190q-84 -8 -141 -8q-137 0 -269 30q-135 33 -268 33q-54 0 -133 -8q40 -135 156.5 -222t257.5 -87z" />
    <glyph glyph-name="uni0473" unicode="&#x473;" 
d="M41 573q0 157 76 289t208 208.5t289 76.5t289 -76.5t208.5 -208.5t76.5 -289t-76.5 -289t-208.5 -208t-289 -76q-118 0 -224 45t-182.5 121.5t-121.5 182.5t-45 224zM614 860q-75 0 -139.5 -35.5t-101.5 -97.5h49l22 2q68 0 150 -10l41 -4q82 -10 149 -10l23 2h8l53 2
q-37 70 -105 110.5t-149 40.5zM614 287q75 0 140 36t102 97h-49l-23 -2q-67 0 -149 10l-41 4q-82 10 -150 10l-22 -2h-8l-54 -2q37 -70 105 -110.5t149 -40.5z" />
    <glyph glyph-name="uni0474" unicode="&#x474;" horiz-adv-x="1415" 
d="M1331 1434h43v-287q-7 0 -15.5 -0.5t-34.5 -6t-46.5 -16t-43 -33t-32.5 -53.5l-336 -1038h-358l-467 1434h287l358 -1102l270 829q40 121 144 197t231 76z" />
    <glyph glyph-name="uni0475" unicode="&#x475;" horiz-adv-x="1286" 
d="M1188 1147h57v-287q-65 0 -124 -26.5t-81 -79.5l-282 -754h-287l-430 1147h287l286 -764l187 496q44 120 151.5 194t235.5 74z" />
    <glyph glyph-name="uni0490" unicode="&#x490;" horiz-adv-x="1085" 
d="M41 1434h717v358h286v-645h-716v-1147h-287v1434z" />
    <glyph glyph-name="uni0491" unicode="&#x491;" horiz-adv-x="1013" 
d="M41 1147h645v287h287v-574h-645v-860h-287v1147z" />
    <glyph glyph-name="uni0492" unicode="&#x492;" 
d="M184 1434h1004v-287h-717v-287h573v-287h-573v-573h-287v573h-143v287h143v574z" />
    <glyph glyph-name="uni0493" unicode="&#x493;" horiz-adv-x="1085" 
d="M184 1147h860v-287h-573v-143h430v-287h-430v-430h-287v430h-143v287h143v430z" />
    <glyph glyph-name="uni049A" unicode="&#x49a;" horiz-adv-x="1372" 
d="M993 1434h338l-598 -666l375 -481h223v-430h-287v143h-67l-432 557l-217 -242v-315h-287v1434h287v-742z" />
    <glyph glyph-name="uni049B" unicode="&#x49b;" 
d="M1116 1147l-440 -490l344 -442h168v-358h-287v143h-53l-352 455l-168 -187v-268h-287v1147h287v-488l436 488h352z" />
    <glyph glyph-name="uni04A2" unicode="&#x4a2;" horiz-adv-x="1300" 
d="M901 1434h287v-1147h72v-430h-287v143h-72v573h-573v-573h-287v1434h287v-574h573v574z" />
    <glyph glyph-name="uni04A3" unicode="&#x4a3;" horiz-adv-x="1157" 
d="M758 1147h286v-932h72v-358h-287v143h-71v430h-430v-430h-287v1147h287v-430h430v430z" />
    <glyph glyph-name="uni04AE" unicode="&#x4ae;" horiz-adv-x="1300" 
d="M365 1434l286 -529l287 529h322l-465 -861v-573h-287v573l-467 861h324z" />
    <glyph glyph-name="uni04AF" unicode="&#x4af;" 
d="M328 1147l286 -764l287 764h287l-430 -1147v-287h-287v287l-430 1147h287z" />
    <glyph glyph-name="uni04B0" unicode="&#x4b0;" horiz-adv-x="1300" 
d="M938 1434h322l-465 -861h178v-286h-178v-287h-287v287h-180v286h180l-467 861h324l286 -529z" />
    <glyph glyph-name="uni04B1" unicode="&#x4b1;" 
d="M614 383l287 764h287l-322 -860h178v-287h-286v-287h-287v287h-287v287h178l-321 860h287z" />
    <glyph glyph-name="uni04BA" unicode="&#x4ba;" horiz-adv-x="1157" 
d="M543 1147q157 0 289 -76.5t208 -208.5t76 -289v-573h-287v573q0 130 -85 208.5t-216 78.5q-51 0 -101 -10t-75 -23l-24 -10v-817h-287v1434h287v-316q110 29 215 29z" />
    <glyph glyph-name="uni04BB" unicode="&#x4bb;" horiz-adv-x="1157" 
d="M580 1147q146 0 269.5 -72t195 -195.5t71.5 -269.5v-610h-287v610q0 103 -73 176.5t-176 73.5q-104 0 -178 -73t-74 -177v-610h-287v1577h287v-492q121 62 252 62z" />
    <glyph glyph-name="uni04D8" unicode="&#x4d8;" horiz-adv-x="1515" 
d="M758 1434q197 0 362 -95t260 -260t95 -362q0 -196 -95.5 -361t-260.5 -260.5t-361 -95.5q-146 0 -279 56.5t-229 152.5t-152.5 229t-56.5 279q0 66 14 143h1108q-48 130 -158 208.5t-247 78.5q-112 0 -207 -53l-215 202q191 138 422 138zM352 573q47 -129 158 -207.5
t248 -78.5t247.5 78t157.5 208h-811z" />
    <glyph glyph-name="uni04D9" unicode="&#x4d9;" 
d="M614 1147q160 0 291.5 -75.5t207 -207t75.5 -291.5q0 -157 -76.5 -289t-208.5 -208t-289 -76q-154 0 -286 77.5t-209.5 209.5t-77.5 286q0 73 18 144h818q-61 143 -263 143q-171 0 -254 -74l-247 146q48 71 136.5 121.5t181 72t183.5 21.5zM868 430h-508
q70 -143 254 -143t254 143z" />
    <glyph glyph-name="uni04E8" unicode="&#x4e8;" horiz-adv-x="1515" 
d="M41 717q0 196 95.5 361t260.5 260.5t361 95.5q197 0 362 -95t260 -260t95 -362q0 -196 -95.5 -361t-260.5 -260.5t-361 -95.5q-146 0 -279 56.5t-229 152.5t-152.5 229t-56.5 279zM352 860h811q-48 130 -158 208.5t-247 78.5t-248 -78.5t-158 -208.5zM352 573
q47 -129 158 -207.5t248 -78.5t247.5 78t157.5 208h-811z" />
    <glyph glyph-name="uni04E9" unicode="&#x4e9;" 
d="M41 573q0 157 76 289t208 208.5t289 76.5t289 -76.5t208.5 -208.5t76.5 -289t-76.5 -289t-208.5 -208t-289 -76q-118 0 -224 45t-182.5 121.5t-121.5 182.5t-45 224zM862 717q-38 66 -104 104.5t-142 38.5t-143.5 -38t-105.5 -105h495zM367 430q38 -66 105 -104.5
t142 -38.5q78 0 144 38t104 105h-495z" />
    <glyph glyph-name="Wgrave" unicode="&#x1e80;" horiz-adv-x="2304" 
d="M838 1864h344l114 -359h-286zM1260 1434l358 -1102l358 1102h287l-465 -1434h-358l-287 883l-287 -883h-358l-467 1434h287l358 -1102l358 1102h216z" />
    <glyph glyph-name="wgrave" unicode="&#x1e81;" horiz-adv-x="2017" 
d="M694 1577h344l115 -358h-287zM1116 1147l287 -764l287 764h286l-430 -1147h-286l-250 670l-252 -670h-287l-430 1147h287l286 -764l287 764h215z" />
    <glyph glyph-name="Wacute" unicode="&#x1e82;" horiz-adv-x="2304" 
d="M1010 1505l114 359h344l-172 -359h-286zM1260 1434l358 -1102l358 1102h287l-465 -1434h-358l-287 883l-287 -883h-358l-467 1434h287l358 -1102l358 1102h216z" />
    <glyph glyph-name="wacute" unicode="&#x1e83;" horiz-adv-x="2017" 
d="M866 1219l115 358h344l-172 -358h-287zM1116 1147l287 -764l287 764h286l-430 -1147h-286l-250 670l-252 -670h-287l-430 1147h287l286 -764l287 764h215z" />
    <glyph glyph-name="Wdieresis" unicode="&#x1e84;" horiz-adv-x="2312" 
d="M1034 1726q0 -72 -51 -123t-123 -51q-71 0 -121.5 51.5t-50.5 122.5t51 121.5t121 50.5q72 0 123 -50t51 -122zM1624 1726q0 -72 -51 -123t-123 -51q-71 0 -121.5 51.5t-50.5 122.5t51 121.5t121 50.5q72 0 123 -50t51 -122zM1264 1438l360 -1106l358 1106h289
l-469 -1438h-358l-289 885l-287 -885h-360l-467 1438h287l360 -1106l361 1106h215z" />
    <glyph glyph-name="wdieresis" unicode="&#x1e85;" horiz-adv-x="2017" 
d="M850 1313q-51 -51 -121 -51q-67 0 -121 51q-51 51 -51 120.5t51 120.5q52 52 121 52q72 0 121 -52q51 -51 51 -120.5t-51 -120.5zM1354 1313q-51 -51 -123 -51q-70 0 -121 51t-51 120.5t51 120.5q49 52 121 52q74 0 123 -52q50 -51 50 -120.5t-50 -120.5zM1116 1147
l287 -764l287 764h286l-430 -1147h-286l-250 670l-252 -670h-287l-430 1147h287l286 -764l287 764h215z" />
    <glyph glyph-name="Germandbls" unicode="&#x1e9e;" horiz-adv-x="1157" 
d="M614 1434h502v-144l-344 -399q344 -41 344 -461q0 -177 -147 -303q-149 -125 -406 -125q-79 0 -164 12l11 273q62 -6 112 -6q141 0 224 41t83 108q0 164 -217 164l-84 -6l-57 272l215 287h-72q-38 0 -100 -29q-52 -22 -90.5 -68t-58 -103.5t-28.5 -114t-9 -115.5v-860
h-287v860q0 198 47 344t133 225q161 148 393 148z" />
    <glyph glyph-name="Ygrave" unicode="&#x1ef2;" horiz-adv-x="1300" 
d="M336 1864h344l115 -359h-287zM365 1434l286 -529l287 529h322l-465 -861v-573h-287v573l-467 861h324z" />
    <glyph glyph-name="ygrave" unicode="&#x1ef3;" 
d="M299 1577h344l115 -358h-287zM328 1147l286 -764l287 764h287l-430 -1147q-150 -430 -473 -430q-63 0 -126 13.5t-93 29.5l-25 14l100 273q43 -43 144 -43q59 0 108 33.5t64 72.5l14 37l-430 1147h287z" />
    <glyph glyph-name="uni1F74" unicode="&#x1f74;" horiz-adv-x="1157" 
d="M264 1577h344l115 -358h-287zM580 1147q146 0 269.5 -72t195 -195.5t71.5 -269.5v-1040h-287v1040q0 103 -73 176.5t-176 73.5q-104 0 -178 -73t-74 -177v-610h-287v1147h242l45 -57v-5q121 62 252 62z" />
    <glyph glyph-name="endash" unicode="&#x2013;" horiz-adv-x="1247" 
d="M123 430v287h1001v-287h-1001z" />
    <glyph glyph-name="emdash" unicode="&#x2014;" horiz-adv-x="1638" 
d="M102 430v287h1434v-287h-1434z" />
    <glyph glyph-name="quoteleft" unicode="&#x2018;" horiz-adv-x="716" 
d="M530 1147h-344l58 502h286v-502z" />
    <glyph glyph-name="quoteright" unicode="&#x2019;" horiz-adv-x="716" 
d="M186 1649h344l-57 -502h-287v502z" />
    <glyph glyph-name="quotesinglbase" unicode="&#x201a;" horiz-adv-x="716" 
d="M186 172q0 72 50 122t122 50q71 0 121.5 -50t50.5 -122q0 -88 -31 -169.5t-79 -135.5q-98 -106 -172 -137l-33 -17l-82 121q54 25 114 73.5t81 94.5q-61 10 -101.5 58.5t-40.5 111.5z" />
    <glyph glyph-name="quotedblleft" unicode="&#x201c;" horiz-adv-x="1126" 
d="M528 1147h-344l58 502h286v-502zM944 1147h-344l57 502h287v-502z" />
    <glyph glyph-name="quotedblright" unicode="&#x201d;" horiz-adv-x="1126" 
d="M184 1649h344l-57 -502h-287v502zM600 1649h344l-57 -502h-287v502z" />
    <glyph glyph-name="quotedblbase" unicode="&#x201e;" horiz-adv-x="1126" 
d="M184 358h344l-57 -501h-287v501zM600 358h344l-57 -501h-287v501z" />
    <glyph glyph-name="dagger" unicode="&#x2020;" horiz-adv-x="1280" 
d="M784 1577v-358h394v-287h-394v-1075h-286v1075h-396v287h396v358h286z" />
    <glyph glyph-name="daggerdbl" unicode="&#x2021;" horiz-adv-x="1280" 
d="M784 1219h394v-287h-394v-430h394v-287h-394v-358h-286v358h-396v287h396v430h-396v287h396v358h286v-358z" />
    <glyph glyph-name="bullet" unicode="&#x2022;" horiz-adv-x="716" 
d="M129 573q0 95 67 162.5t162 67.5q97 0 163.5 -66.5t66.5 -163.5t-66.5 -163t-163.5 -66q-95 0 -162 67t-67 162z" />
    <glyph glyph-name="ellipsis" unicode="&#x2026;" horiz-adv-x="1945" 
d="M207 293q51 51 121 51q73 0 121 -51q51 -51 51 -121t-51 -121t-121 -51q-67 0 -121 51q-51 51 -51 121t51 121zM838 293q51 51 120 51q73 0 121 -51q51 -51 51 -121t-51 -121t-121 -51q-66 0 -120 51q-51 51 -51 121t51 121zM1497 293q51 51 121 51q73 0 121 -51
q51 -51 51 -121t-51 -121t-121 -51q-67 0 -121 51q-51 51 -51 121t51 121z" />
    <glyph glyph-name="perthousand" unicode="&#x2030;" horiz-adv-x="3129" 
d="M948 0h-344l645 1434h344zM102 1004q0 180 125 305t305 125q182 0 306.5 -124.5t124.5 -305.5q0 -180 -125.5 -305.5t-305.5 -125.5q-178 0 -304 126t-126 305zM635 1106q-41 41 -103 41q-59 0 -100 -41q-43 -43 -43 -102.5t43 -100.5q43 -43 100 -43q60 0 103 43
q41 41 41 100.5t-41 102.5zM1235 430q0 180 125 305t305 125q181 0 305.5 -124t124.5 -306q0 -180 -125 -305t-305 -125q-179 0 -304.5 126t-125.5 304zM2167 430q0 180 125 305t305 125q181 0 305.5 -124t124.5 -306q0 -180 -125 -305t-305 -125q-179 0 -304.5 126
t-125.5 304zM1767 532q-41 41 -102 41q-59 0 -100 -41q-43 -43 -43 -102t43 -100q43 -43 100 -43q59 0 102 43q41 41 41 100t-41 102zM2699 532q-41 41 -102 41q-59 0 -100 -41q-43 -43 -43 -102t43 -100q43 -43 100 -43q59 0 102 43q41 41 41 100t-41 102z" />
    <glyph glyph-name="uni2031" unicode="&#x2031;" horiz-adv-x="4061" 
d="M948 0h-344l645 1434h344zM102 1004q0 180 125 305t305 125q182 0 306.5 -124.5t124.5 -305.5q0 -180 -125.5 -305.5t-305.5 -125.5q-178 0 -304 126t-126 305zM635 1106q-41 41 -103 41q-59 0 -100 -41q-43 -43 -43 -102.5t43 -100.5q43 -43 100 -43q60 0 103 43
q41 41 41 100.5t-41 102.5zM1235 430q0 180 125 305t305 125q181 0 305.5 -124t124.5 -306q0 -180 -125 -305t-305 -125q-179 0 -304.5 126t-125.5 304zM2167 430q0 180 125 305t305 125q181 0 305.5 -124t124.5 -306q0 -180 -125 -305t-305 -125q-179 0 -304.5 126
t-125.5 304zM3099 430q0 180 125 305t305 125q181 0 305.5 -124t124.5 -306q0 -180 -125 -305t-305 -125q-179 0 -304.5 126t-125.5 304zM1767 532q-41 41 -102 41q-59 0 -100 -41q-43 -43 -43 -102t43 -100q43 -43 100 -43q59 0 102 43q41 41 41 100t-41 102zM2699 532
q-41 41 -102 41q-59 0 -100 -41q-43 -43 -43 -102t43 -100q43 -43 100 -43q59 0 102 43q41 41 41 100t-41 102zM3631 532q-41 41 -102 41q-60 0 -101 -41q-43 -43 -43 -102t43 -100q43 -43 101 -43q59 0 102 43q41 41 41 100t-41 102z" />
    <glyph glyph-name="guilsinglleft" unicode="&#x2039;" horiz-adv-x="989" 
d="M846 1147l-359 -574l359 -573h-344l-359 573l359 574h344z" />
    <glyph glyph-name="guilsinglright" unicode="&#x203a;" horiz-adv-x="989" 
d="M143 0l359 573l-359 574h344l359 -574l-359 -573h-344z" />
    <glyph glyph-name="fraction" unicode="&#x2044;" horiz-adv-x="921" 
d="M317 0h-215l502 1434h215z" />
    <glyph glyph-name="uni2070" unicode="&#x2070;" horiz-adv-x="727" 
d="M365 1649q78 0 136.5 -23.5t93.5 -62t56 -96t28 -116t7 -132.5t-7 -132.5t-28 -116.5t-56 -96.5t-93.5 -62t-136.5 -23.5t-136.5 23.5t-93.5 62t-57 96t-29.5 117t-7.5 132.5t7.5 132.5t29.5 116.5t57 95.5t93.5 62t136.5 23.5zM365 961q149 0 149 258t-149 258
q-152 0 -152 -258t152 -258z" />
    <glyph glyph-name="uni2074" unicode="&#x2074;" horiz-adv-x="727" 
d="M600 1305v-172h86v-172h-86v-173h-172v173h-387v86l242 602h204l-204 -516h145v151z" />
    <glyph glyph-name="uni2075" unicode="&#x2075;" horiz-adv-x="727" 
d="M373 1391q143 0 228 -80t85 -221t-86.5 -221.5t-234.5 -80.5q-149 0 -236.5 82t-87.5 228h172q0 -137 152 -137q71 0 110 34t39 95t-39 95t-110 34q-30 0 -56.5 -5.5t-43 -13t-29 -17t-18 -16.5t-5.5 -12h-102l-54 51l27 443h559v-172h-379l-6 -99q54 13 115 13z" />
    <glyph glyph-name="uni2076" unicode="&#x2076;" horiz-adv-x="727" 
d="M336 1649h205l-144 -217q124 -12 206.5 -103.5t82.5 -216.5q0 -133 -94 -228.5t-227 -95.5q-132 0 -228 96t-96 228q0 100 59 186zM365 961q62 0 105.5 44t43.5 107q0 62 -44 106t-105 44q-63 0 -107.5 -44t-44.5 -106q0 -63 44.5 -107t107.5 -44z" />
    <glyph glyph-name="uni2077" unicode="&#x2077;" horiz-adv-x="727" 
d="M444 1477h-403v172h645v-86l-309 -775h-207z" />
    <glyph glyph-name="uni2078" unicode="&#x2078;" horiz-adv-x="727" 
d="M600 1241q86 -83 86 -172q0 -128 -95.5 -204.5t-225.5 -76.5q-84 0 -156.5 32.5t-120 98t-47.5 150.5q0 83 86 172q-59 71 -59 150q0 118 88 188t209 70q122 0 208 -69.5t86 -188.5q0 -79 -59 -150zM365 1477q-56 0 -90.5 -25t-34.5 -61q0 -38 33.5 -62t91.5 -24
q122 0 122 86t-122 86zM365 961q72 0 110.5 28.5t38.5 79.5q0 50 -39 78.5t-110 28.5q-73 0 -112.5 -28.5t-39.5 -78.5q0 -51 39.5 -79.5t112.5 -28.5z" />
    <glyph glyph-name="uni2079" unicode="&#x2079;" horiz-adv-x="727" 
d="M686 1327q0 -102 -59 -188l-236 -351h-205l144 218q-123 12 -206 104t-83 217q0 133 95.5 227.5t228.5 94.5t227 -94t94 -228zM213 1327q0 -63 44.5 -107t107.5 -44q62 0 105.5 44t43.5 107q0 62 -44 106t-105 44q-63 0 -107.5 -44t-44.5 -106z" />
    <glyph glyph-name="uni207A" unicode="&#x207a;" horiz-adv-x="716" 
d="M449 1532v-223h223v-181h-223v-223h-181v223h-223v181h223v223h181z" />
    <glyph glyph-name="uni207B" unicode="&#x207b;" horiz-adv-x="716" 
d="M45 1130v179h627v-179h-627z" />
    <glyph glyph-name="uni207C" unicode="&#x207c;" horiz-adv-x="716" 
d="M45 1487h627v-178h-627v178zM45 1128h627v-178h-627v178z" />
    <glyph glyph-name="uni207D" unicode="&#x207d;" horiz-adv-x="440" 
d="M369 537l-176 -35l-23 73q-100 316 -100 646q0 328 100 641l23 73l176 -34q-110 -332 -110 -682.5t110 -681.5z" />
    <glyph glyph-name="uni207E" unicode="&#x207e;" horiz-adv-x="440" 
d="M72 1901l176 34l22 -73q101 -316 101 -641q0 -327 -101 -646l-22 -73l-176 35q110 331 110 681.5t-110 682.5z" />
    <glyph glyph-name="uni2080" unicode="&#x2080;" horiz-adv-x="727" 
d="M365 645q78 0 136.5 -23.5t93.5 -62t56 -96t28 -116t7 -132.5t-7 -132.5t-28 -116t-56 -96t-93.5 -62t-136.5 -23.5t-136.5 23.5t-93.5 62t-57 95.5t-29.5 116.5t-7.5 132.5t7.5 132.5t29.5 116.5t57 95.5t93.5 62t136.5 23.5zM365 -43q149 0 149 258t-149 258
q-152 0 -152 -258t152 -258z" />
    <glyph glyph-name="uni2081" unicode="&#x2081;" horiz-adv-x="468" 
d="M250 614l6 31h172v-860h-172v586q-117 -19 -215 -19v164q89 0 145.5 30.5t63.5 67.5z" />
    <glyph glyph-name="uni2082" unicode="&#x2082;" horiz-adv-x="727" 
d="M686 324q0 -72 -46.5 -139.5t-113.5 -110.5q-22 -15 -61.5 -40t-50.5 -32q-54 -35 -56 -45h328v-172h-645v86q0 57 46 114.5t120 104.5q67 44 135 84q164 100 164 170q0 57 -35 93t-90 36q-124 0 -174 -158l-166 52q20 133 106 205.5t218 72.5q144 0 232.5 -87t88.5 -234
z" />
    <glyph glyph-name="uni2083" unicode="&#x2083;" horiz-adv-x="727" 
d="M84 473v172h602v-86l-149 -213q149 -79 149 -260q0 -139 -90.5 -220t-230.5 -81q-122 0 -211 74.5t-113 206.5l164 49q53 -158 168 -158q61 0 101 38t40 91q0 55 -39 91.5t-104 37.5h-62l-41 41l152 217h-336z" />
    <glyph glyph-name="uni2084" unicode="&#x2084;" horiz-adv-x="727" 
d="M600 301v-172h86v-172h-86v-172h-172v172h-387v86l242 602h204l-204 -516h145v152z" />
    <glyph glyph-name="uni2085" unicode="&#x2085;" horiz-adv-x="727" 
d="M373 387q143 0 228 -80t85 -221t-86.5 -221t-234.5 -80q-150 0 -237 81.5t-87 227.5h172q0 -137 152 -137q71 0 110 34t39 95t-39 95t-110 34q-48 0 -85.5 -13.5t-52 -27t-14.5 -22.5h-102l-54 51l27 442h559v-172h-379l-6 -98q50 12 115 12z" />
    <glyph glyph-name="uni2086" unicode="&#x2086;" horiz-adv-x="727" 
d="M336 645h205l-144 -217q124 -12 206.5 -103t82.5 -216q0 -135 -93 -229.5t-228 -94.5q-133 0 -228.5 95.5t-95.5 228.5q0 100 59 186zM365 -43q62 0 105.5 44.5t43.5 107.5q0 61 -44 105t-105 44q-63 0 -107.5 -43.5t-44.5 -105.5q0 -63 44.5 -107.5t107.5 -44.5z" />
    <glyph glyph-name="uni2087" unicode="&#x2087;" horiz-adv-x="727" 
d="M444 473h-403v172h645v-86l-309 -774h-207z" />
    <glyph glyph-name="uni2088" unicode="&#x2088;" horiz-adv-x="727" 
d="M600 238q86 -83 86 -172q0 -128 -95 -204.5t-226 -76.5q-85 0 -157.5 32.5t-119.5 97.5t-47 151q0 83 86 172q-59 71 -59 149q0 118 88 188t209 70q122 0 208 -69.5t86 -188.5q0 -78 -59 -149zM365 473q-56 0 -90.5 -25t-34.5 -61q0 -38 33.5 -62t91.5 -24q122 0 122 86
t-122 86zM365 -43q71 0 110 29t39 80q0 50 -39 78t-110 28q-73 0 -112.5 -28t-39.5 -78q0 -51 39.5 -80t112.5 -29z" />
    <glyph glyph-name="uni2089" unicode="&#x2089;" horiz-adv-x="727" 
d="M686 324q0 -103 -59 -189l-236 -350h-205l144 217q-123 12 -206 104.5t-83 217.5q0 133 95.5 227t228.5 94t227 -93.5t94 -227.5zM213 324q0 -63 44.5 -107.5t107.5 -44.5q62 0 105.5 44.5t43.5 107.5q0 62 -44 105.5t-105 43.5q-63 0 -107.5 -43.5t-44.5 -105.5z" />
    <glyph glyph-name="uni208A" unicode="&#x208a;" horiz-adv-x="716" 
d="M449 528v-223h223v-180h-223v-223h-181v223h-223v180h223v223h181z" />
    <glyph glyph-name="uni208B" unicode="&#x208b;" horiz-adv-x="716" 
d="M45 127v178h627v-178h-627z" />
    <glyph glyph-name="uni208C" unicode="&#x208c;" horiz-adv-x="716" 
d="M45 483h627v-178h-627v178zM45 125h627v-178h-627v178z" />
    <glyph glyph-name="uni208D" unicode="&#x208d;" horiz-adv-x="440" 
d="M369 -467l-176 -35l-23 74q-100 316 -100 645q0 328 100 641l23 74l176 -35q-110 -331 -110 -681.5t110 -682.5z" />
    <glyph glyph-name="uni208E" unicode="&#x208e;" horiz-adv-x="440" 
d="M72 897l176 35l22 -74q101 -316 101 -641q0 -326 -101 -645l-22 -74l-176 35q110 332 110 682.5t-110 681.5z" />
    <glyph glyph-name="franc" unicode="&#x20a3;" 
d="M184 1434h1004v-287h-717v-287h573v-287h-573v-196h358v-180h-358v-197h-287v197h-143v180h143v1057z" />
    <glyph glyph-name="lira" unicode="&#x20a4;" 
d="M815 301q94 0 171 13.5t106 29.5l24 14l72 -286q-147 -72 -373 -72q-57 0 -147 23l-50 12q-86 22 -147 22q-47 0 -94 -13.5t-70 -29.5l-22 -14l-244 258q44 25 73.5 100.5t37.5 143.5h-111v180h106q0 8 -2 14l-10 43q0 11 -2 15h-92v178h72q12 229 156.5 365.5
t373.5 136.5q216 0 363.5 -111t181.5 -319l-287 -86q-28 111 -91 170t-181 59q-94 0 -154.5 -62t-73.5 -153h357v-178h-338q2 -4 2 -15l10 -43q2 -6 2 -14h324v-180h-324q-14 -85 -47 -152q36 8 84 8q72 0 184 -28q116 -29 160 -29z" />
    <glyph glyph-name="Euro" unicode="&#x20ac;" horiz-adv-x="1609" 
d="M901 287q138 0 252.5 82.5t157.5 214.5l258 -129q-82 -206 -264.5 -330.5t-403.5 -124.5q-234 0 -423 138.5t-261 363.5h-176l43 180h100v72h-143l43 178h133q72 226 260 364t424 138q224 0 404.5 -123t263.5 -332l-258 -129q-44 135 -156.5 216t-253.5 81
q-118 0 -217.5 -58t-155.5 -157h416l-43 -178h-428q-1 -12 -1 -36.5t1 -35.5h414l-43 -180h-316q56 -99 155.5 -157t217.5 -58z" />
    <glyph glyph-name="uni20BF" unicode="&#x20bf;" horiz-adv-x="1300" 
d="M1260 430q0 -170 -111 -287t-283 -139v-147h-180v143h-143v-143h-178v143h-324v287h143v860h-143v287h324v143h178v-143h143v143h180v-162q148 -40 235 -149.5t87 -261.5q0 -141 -80 -250q152 -125 152 -324zM723 1147h-252v-287h252q60 0 101.5 42t41.5 102t-41.5 101.5
t-101.5 41.5zM471 573v-286h324q60 0 101.5 41.5t41.5 101.5t-41.5 101.5t-101.5 41.5h-324z" />
    <glyph glyph-name="uni2116" unicode="&#x2116;" horiz-adv-x="2375" 
d="M1475 1004q0 180 125 305t305 125q181 0 305.5 -124t124.5 -306q0 -180 -125 -305.5t-305 -125.5q-178 0 -304 126t-126 305zM328 1434l716 -904v904h287v-1434h-287l-716 903v-903h-287v1434h287zM1792 891q49 -49 113 -49q65 0 114 49q47 47 47 112t-47 115
q-47 47 -114 47q-66 0 -113 -47q-50 -50 -50 -115t50 -112z" />
    <glyph glyph-name="trademark" unicode="&#x2122;" horiz-adv-x="1495" 
d="M283 860v430h-181v144h502v-144h-178v-430h-143zM1042 1122l207 312h144v-574h-144v293l-172 -256h-71l-172 256v-293h-144v574h144z" />
    <glyph glyph-name="uni2150" unicode="&#x2150;" horiz-adv-x="1869" 
d="M727 0h-215l502 1434h215zM317 1434h172v-861h-172v586q-111 -18 -215 -18v164q121 0 170 45q43 43 43 71zM1526 688h-404v172h645v-86l-311 -774h-205z" />
    <glyph glyph-name="uni2151" unicode="&#x2151;" horiz-adv-x="1869" 
d="M727 0h-215l502 1434h215zM317 1434h172v-861h-172v586q-111 -18 -215 -18v164q121 0 170 45q43 43 43 71zM1767 539q0 -107 -61 -189l-233 -350h-207l145 217q-123 12 -206 104.5t-83 217.5q0 133 94 227t228 94q135 0 229 -93t94 -228zM1294 539q0 -63 43.5 -107.5
t106.5 -44.5t107 44.5t44 107.5q0 62 -44 105.5t-107 43.5t-106.5 -43.5t-43.5 -105.5z" />
    <glyph glyph-name="uni2152" unicode="&#x2152;" horiz-adv-x="2385" 
d="M727 0h-215l502 1434h215zM317 1434h172v-861h-172v586q-111 -18 -215 -18v164q121 0 170 45q43 43 43 71zM1960 860q97 0 163 -33.5t100 -96.5t47.5 -134t13.5 -166t-13.5 -166t-47.5 -134t-100 -96.5t-163 -33.5q-77 0 -135 23.5t-93 62.5t-57 96t-29.5 116t-7.5 132
t7.5 132t29.5 116t57 96t93 62.5t135 23.5zM1380 860h172v-860h-172v586q-117 -19 -215 -19v164q121 0 170 45q42 42 45 72v12zM1960 172q79 0 115 63t36 195t-36 195t-115 63q-150 0 -150 -258t150 -258z" />
    <glyph glyph-name="onethird" unicode="&#x2153;" horiz-adv-x="1869" 
d="M727 0h-215l502 1434h215zM317 1434h172v-861h-172v586q-111 -18 -215 -18v164q121 0 170 45q43 43 43 71zM1165 688v172h602v-86l-149 -213q149 -82 149 -260q0 -139 -91.5 -220t-231.5 -81q-121 0 -209.5 74.5t-112.5 206.5l164 49q53 -158 166 -158q62 0 102.5 38.5
t40.5 90.5q0 55 -39 91.5t-104 37.5h-63l-41 41l151 217h-334z" />
    <glyph glyph-name="twothirds" unicode="&#x2154;" horiz-adv-x="1996" 
d="M856 0h-215l502 1434h215zM748 1112q0 -72 -46.5 -139.5t-113.5 -110.5q-22 -15 -60.5 -38.5t-52.5 -32.5q-52 -34 -55 -46h328v-172h-646v86q0 57 46 115t120 105q68 43 135 84q164 100 164 170q0 57 -35 93t-90 36q-124 0 -174 -158l-166 51q20 134 106 206.5t218 72.5
q144 0 233 -87.5t89 -234.5zM1292 688v172h602v-86l-149 -213q149 -79 149 -260q0 -138 -90.5 -219.5t-230.5 -81.5q-122 0 -211 74.5t-113 206.5l164 49q53 -158 168 -158q61 0 101 38t40 91q0 55 -39 91.5t-104 37.5h-61l-41 41l151 217h-336z" />
    <glyph glyph-name="uni2155" unicode="&#x2155;" horiz-adv-x="1869" 
d="M727 0h-215l502 1434h215zM317 1434h172v-861h-172v586q-111 -18 -215 -18v164q121 0 170 45q43 43 43 71zM1452 602q144 0 229.5 -80t85.5 -221q0 -144 -88.5 -222.5t-234.5 -78.5q-147 0 -234.5 81.5t-87.5 227.5h172q0 -137 150 -137q72 0 111.5 34.5t39.5 94.5
t-39.5 94.5t-111.5 34.5q-47 0 -84 -13.5t-51.5 -27t-14.5 -22.5h-104l-51 51l26 442h559v-172h-381l-6 -98q49 12 115 12z" />
    <glyph glyph-name="uni2156" unicode="&#x2156;" horiz-adv-x="1996" 
d="M856 0h-215l502 1434h215zM748 1112q0 -72 -46.5 -139.5t-113.5 -110.5q-22 -15 -60.5 -38.5t-52.5 -32.5q-52 -34 -55 -46h328v-172h-646v86q0 57 46 115t120 105q68 43 135 84q164 100 164 170q0 57 -35 93t-90 36q-124 0 -174 -158l-166 51q20 134 106 206.5t218 72.5
q144 0 233 -87.5t89 -234.5zM1581 602q143 0 228 -80t85 -221t-86.5 -221t-234.5 -80q-150 0 -237 81.5t-87 227.5h172q0 -137 152 -137q71 0 110 34t39 95t-39 95t-110 34q-48 0 -85.5 -13.5t-52 -27t-14.5 -22.5h-102l-53 51l26 442h559v-172h-378l-7 -98q50 12 115 12z
" />
    <glyph glyph-name="uni2157" unicode="&#x2157;" horiz-adv-x="1996" 
d="M856 0h-215l502 1434h215zM145 1262v172h603v-86l-150 -213q150 -79 150 -261q0 -138 -91 -219.5t-231 -81.5q-122 0 -211 74.5t-113 206.5l164 49q53 -158 168 -158q61 0 101 38t40 91q0 55 -39 92t-104 38h-61l-41 40l151 218h-336zM1581 602q143 0 228 -80t85 -221
t-86.5 -221t-234.5 -80q-150 0 -237 81.5t-87 227.5h172q0 -137 152 -137q71 0 110 34t39 95t-39 95t-110 34q-48 0 -85.5 -13.5t-52 -27t-14.5 -22.5h-102l-53 51l26 442h559v-172h-378l-7 -98q50 12 115 12z" />
    <glyph glyph-name="uni2158" unicode="&#x2158;" horiz-adv-x="1996" 
d="M662 1090v-172h86v-173h-86v-172h-173v172h-387v86l242 603h205l-205 -516h145v151zM856 0h-215l502 1434h215zM1581 602q143 0 228 -80t85 -221t-86.5 -221t-234.5 -80q-150 0 -237 81.5t-87 227.5h172q0 -137 152 -137q71 0 110 34t39 95t-39 95t-110 34
q-48 0 -85.5 -13.5t-52 -27t-14.5 -22.5h-102l-53 51l26 442h559v-172h-378l-7 -98q50 12 115 12z" />
    <glyph glyph-name="uni2159" unicode="&#x2159;" horiz-adv-x="1869" 
d="M727 0h-215l502 1434h215zM317 1434h172v-861h-172v586q-111 -18 -215 -18v164q121 0 170 45q43 43 43 71zM1415 860h207l-145 -217q125 -12 207.5 -102.5t82.5 -216.5q0 -134 -95 -229t-228 -95t-227.5 95.5t-94.5 228.5q0 101 60 186zM1294 324q0 -63 43.5 -107.5
t106.5 -44.5q64 0 107.5 44.5t43.5 107.5q0 62 -44 105.5t-107 43.5t-106.5 -43.5t-43.5 -105.5z" />
    <glyph glyph-name="uni215A" unicode="&#x215a;" horiz-adv-x="1996" 
d="M434 1176q143 0 228.5 -80.5t85.5 -221.5t-87 -221t-235 -80q-149 0 -236.5 82t-87.5 228h172q0 -138 152 -138q71 0 110 34t39 95t-39 95.5t-110 34.5q-30 0 -56.5 -5.5t-43 -13t-29 -17t-18 -16.5t-5.5 -12h-102l-53 51l26 443h560v-172h-379l-7 -99q54 13 115 13z
M856 0h-215l502 1434h215zM1544 860h205l-143 -217q124 -12 206 -103t82 -216q0 -133 -94 -228.5t-227 -95.5q-132 0 -228 96t-96 228q0 98 60 186zM1573 172q62 0 105.5 44.5t43.5 107.5q0 62 -44 105.5t-105 43.5q-63 0 -107.5 -43.5t-44.5 -105.5q0 -63 44.5 -107.5
t107.5 -44.5z" />
    <glyph glyph-name="oneeighth" unicode="&#x215b;" horiz-adv-x="1869" 
d="M727 0h-215l502 1434h215zM317 1434h172v-861h-172v586q-111 -18 -215 -18v164q121 0 170 45q43 43 43 71zM1681 453q86 -86 86 -172t-46.5 -151t-119 -97.5t-157.5 -32.5q-131 0 -226.5 76.5t-95.5 204.5q0 86 86 172q-61 67 -61 149q0 118 88 188t209 70q123 0 210 -69
t87 -189q0 -71 -60 -149zM1444 688q-56 0 -90.5 -25t-34.5 -61q0 -38 33.5 -62t91.5 -24q125 0 125 86t-125 86zM1294 281q0 -58 43.5 -83.5t106.5 -25.5q70 0 112 31q40 29 40 77.5t-40 77.5q-44 29 -112 29q-62 0 -106 -25t-44 -81z" />
    <glyph glyph-name="threeeighths" unicode="&#x215c;" horiz-adv-x="1996" 
d="M856 0h-215l502 1434h215zM145 1262v172h603v-86l-150 -213q150 -79 150 -261q0 -138 -91 -219.5t-231 -81.5q-122 0 -211 74.5t-113 206.5l164 49q53 -158 168 -158q61 0 101 38t40 91q0 55 -39 92t-104 38h-61l-41 40l151 218h-336zM1808 453q86 -83 86 -172
q0 -128 -95.5 -204.5t-225.5 -76.5q-84 0 -156.5 32.5t-120 98t-47.5 150.5q0 83 86 172q-59 71 -59 149q0 119 87.5 188.5t209.5 69.5t208.5 -69.5t86.5 -188.5q0 -77 -60 -149zM1573 688q-56 0 -90.5 -25t-34.5 -61q0 -38 33.5 -62t91.5 -24q123 0 123 86t-123 86z
M1573 172q71 0 110 29t39 80q0 50 -39 78t-110 28q-73 0 -112.5 -28t-39.5 -78q0 -51 39.5 -80t112.5 -29z" />
    <glyph glyph-name="fiveeighths" unicode="&#x215d;" horiz-adv-x="1996" 
d="M434 1176q143 0 228.5 -80.5t85.5 -221.5t-87 -221t-235 -80q-149 0 -236.5 82t-87.5 228h172q0 -138 152 -138q71 0 110 34t39 95t-39 95.5t-110 34.5q-30 0 -56.5 -5.5t-43 -13t-29 -17t-18 -16.5t-5.5 -12h-102l-53 51l26 443h560v-172h-379l-7 -99q54 13 115 13z
M856 0h-215l502 1434h215zM1808 453q86 -83 86 -172q0 -128 -95.5 -204.5t-225.5 -76.5q-84 0 -156.5 32.5t-120 98t-47.5 150.5q0 83 86 172q-59 71 -59 149q0 119 87.5 188.5t209.5 69.5t208.5 -69.5t86.5 -188.5q0 -77 -60 -149zM1573 688q-56 0 -90.5 -25t-34.5 -61
q0 -38 33.5 -62t91.5 -24q123 0 123 86t-123 86zM1573 172q71 0 110 29t39 80q0 50 -39 78t-110 28q-73 0 -112.5 -28t-39.5 -78q0 -51 39.5 -80t112.5 -29z" />
    <glyph glyph-name="seveneighths" unicode="&#x215e;" horiz-adv-x="1996" 
d="M506 1262h-404v172h646v-86l-310 -775h-207zM856 0h-215l502 1434h215zM1808 453q86 -83 86 -172q0 -128 -95.5 -204.5t-225.5 -76.5q-84 0 -156.5 32.5t-120 98t-47.5 150.5q0 83 86 172q-59 71 -59 149q0 119 87.5 188.5t209.5 69.5t208.5 -69.5t86.5 -188.5
q0 -77 -60 -149zM1573 688q-56 0 -90.5 -25t-34.5 -61q0 -38 33.5 -62t91.5 -24q123 0 123 86t-123 86zM1573 172q71 0 110 29t39 80q0 50 -39 78t-110 28q-73 0 -112.5 -28t-39.5 -78q0 -51 39.5 -80t112.5 -29z" />
    <glyph glyph-name="uni215F" unicode="&#x215f;" horiz-adv-x="1269" 
d="M317 1434h172v-861h-172v586q-111 -18 -215 -18v164q121 0 170 45q43 43 43 71zM729 0h-215l502 1434h215z" />
    <glyph glyph-name="uni2189" unicode="&#x2189;" horiz-adv-x="1996" 
d="M856 0h-215l502 1434h215zM426 1434q79 0 137 -23.5t93 -62t56 -96t28.5 -116t7.5 -132.5t-7.5 -132.5t-28.5 -116.5t-56 -96.5t-93.5 -62t-136.5 -23.5t-136.5 23.5t-93.5 62t-57 96t-29.5 117t-7.5 132.5t7.5 132.5t29.5 116.5t57 95.5t93.5 62t136.5 23.5zM426 745
q149 0 149 259q0 258 -149 258q-152 0 -152 -258q0 -259 152 -259zM1292 688v172h602v-86l-149 -213q149 -79 149 -260q0 -138 -90.5 -219.5t-230.5 -81.5q-122 0 -211 74.5t-113 206.5l164 49q53 -158 168 -158q61 0 101 38t40 91q0 55 -39 91.5t-104 37.5h-61l-41 41
l151 217h-336z" />
    <glyph glyph-name="arrowleft" unicode="&#x2190;" horiz-adv-x="2355" 
d="M1165 1231l-372 -371h1316v-287h-1316l372 -370l-202 -203l-717 717l717 717z" />
    <glyph glyph-name="arrowup" unicode="&#x2191;" horiz-adv-x="2355" 
d="M461 717l717 717l716 -717l-202 -203l-371 373v-887h-287v887l-370 -373z" />
    <glyph glyph-name="arrowright" unicode="&#x2192;" horiz-adv-x="2355" 
d="M1190 1231l203 203l716 -717l-716 -717l-203 203l373 370h-1317v287h1317z" />
    <glyph glyph-name="arrowdown" unicode="&#x2193;" horiz-adv-x="2355" 
d="M1321 1434v-887l371 373l202 -203l-716 -717l-717 717l203 203l370 -373v887h287z" />
    <glyph glyph-name="arrowboth" unicode="&#x2194;" horiz-adv-x="2355" 
d="M1333 1231l203 203l717 -717l-717 -717l-203 203l336 336h-983l336 -336l-203 -203l-717 717l717 717l203 -203l-336 -334h983z" />
    <glyph glyph-name="arrowupdn" unicode="&#x2195;" horiz-adv-x="2355" 
d="M1692 872l-334 336v-983l334 336l202 -203l-716 -716l-717 716l203 203l335 -336v983l-335 -336l-203 203l717 717l716 -717z" />
    <glyph glyph-name="uni2196" unicode="&#x2196;" horiz-adv-x="2355" 
d="M1475 1149h-527l946 -946l-202 -203l-947 946v-526h-284v1014h1014v-285z" />
    <glyph glyph-name="uni2197" unicode="&#x2197;" horiz-adv-x="2355" 
d="M881 1149v285h1013v-1014h-284v526l-946 -946l-203 203l946 946h-526z" />
    <glyph glyph-name="uni2198" unicode="&#x2198;" horiz-adv-x="2355" 
d="M664 1434l946 -947v527h284v-1014h-1013v285h526l-946 946z" />
    <glyph glyph-name="uni2199" unicode="&#x2199;" horiz-adv-x="2355" 
d="M745 487l947 947l202 -203l-946 -946h527v-285h-1014v1014h284v-527z" />
    <glyph glyph-name="minus" unicode="&#x2212;" horiz-adv-x="1249" 
d="M125 573v287h1001v-287h-1001z" />
    <glyph glyph-name="uni2215" unicode="&#x2215;" horiz-adv-x="1249" 
d="M475 -143h-344l645 1720h344z" />
    <glyph glyph-name="radical" unicode="&#x221a;" horiz-adv-x="1495" 
d="M461 1004l248 -791l397 1364h287l-502 -1720h-359l-268 860h-162v287h359z" />
    <glyph glyph-name="infinity" unicode="&#x221e;" horiz-adv-x="2170" 
d="M1567 1075q209 0 355 -146.5t146 -355.5t-146 -355t-355 -146q-270 0 -480 247q-213 -247 -481 -247q-209 0 -355.5 146t-146.5 355t146.5 355.5t355.5 146.5q267 0 481 -248q211 248 480 248zM606 358q57 0 112 21.5t93 54.5q75 65 98 117l13 22q-61 102 -135 158.5
t-181 56.5q-92 0 -153.5 -61.5t-61.5 -153.5t61.5 -153.5t153.5 -61.5zM1567 358q95 0 155 57.5t60 157.5t-60 157.5t-155 57.5q-59 0 -113 -21t-92 -54t-62 -62t-38 -55l-11 -23l4.5 -9t7.5 -13t13.5 -20t23.5 -31q41 -61 117.5 -101.5t149.5 -40.5z" />
    <glyph glyph-name="integral" unicode="&#x222b;" horiz-adv-x="1249" 
d="M983 1434q58 0 114 -14t79 -29l22 -15l-59 -280q-39 51 -156 51q-58 0 -101.5 -25t-67.5 -67t-35 -91t-11 -104v-573q0 -295 -139 -434q-143 -140 -363 -140q-58 0 -113.5 14t-78.5 29l-23 15l60 280q39 -51 155 -51q48 0 85.5 16.5t61.5 44t39.5 65.5t22 77.5t6.5 83.5
v573q0 295 142 434q140 140 360 140z" />
    <glyph glyph-name="uni2243" unicode="&#x2243;" horiz-adv-x="1249" 
d="M1085 1133l41 14v-287q-124 -59 -256 -59q-4 0 -15.5 1t-14.5 1q-104 9 -205 49q-96 38 -197 51q-8 2 -39 2q-84 0 -176 -33l-28 -12l-72 287q142 43 276 43h39q115 -10 209 -47q104 -41 193 -53q9 -3 28 -3q76 0 217 46zM123 573h1003v-286h-1003v286z" />
    <glyph glyph-name="congruent" unicode="&#x2245;" horiz-adv-x="1249" 
d="M1126 1147v-287q-120 -57 -256 -57h-30q-104 9 -205 49q-139 55 -236 55q-79 0 -176 -35l-28 -12l-72 287q139 45 276 45q31 0 39 -2q115 -10 209 -47q104 -41 193 -53q140 0 286 57zM123 573h1003v-286h-1003v286zM123 0h1003v-287h-1003v287z" />
    <glyph glyph-name="approxequal" unicode="&#x2248;" horiz-adv-x="1249" 
d="M1085 1133l41 14v-287q-124 -59 -256 -59q-4 0 -15.5 1t-14.5 1q-104 9 -205 49q-96 38 -197 51q-8 2 -41 2q-97 0 -231 -33l-43 -12v287q139 45 276 45q5 0 20 -1t19 -1q115 -10 209 -47q104 -41 193 -53q9 -3 28 -3q76 0 217 46zM1087 559l39 14v-286
q-126 -60 -256 -60q-4 0 -15.5 1t-14.5 1q-101 9 -205 50q-96 38 -197 51q-8 2 -41 2q-97 0 -231 -33l-43 -12v286q139 45 276 45q5 0 20 -1t19 -1q113 -10 207 -47q105 -42 195 -53q6 -2 32 -2q88 0 215 45z" />
    <glyph glyph-name="notequal" unicode="&#x2260;" horiz-adv-x="1249" 
d="M952 1147h174v-287h-297l-122 -287h419v-286h-542l-31 -72h-287l31 72h-174v286h297l123 287h-420v287h543l30 72h287z" />
    <glyph glyph-name="lessequal" unicode="&#x2264;" horiz-adv-x="1249" 
d="M195 473v201l860 401v-287l-430 -215l430 -215v-286zM1055 0v-287h-860v287h860z" />
    <glyph glyph-name="greaterequal" unicode="&#x2265;" horiz-adv-x="1249" 
d="M1055 674v-201l-860 -401v286l430 215l-430 215v287zM195 0h860v-287h-860v287z" />
    <glyph glyph-name="uniF000" unicode="&#xf000;" horiz-adv-x="655" 
d="M283 1147l45 -57v-21q135 78 286 78v-287q-120 0 -203 -83.5t-83 -203.5v-573h-287v1147h242z" />
    <glyph glyph-name="uniF00A" unicode="&#xf00a;" horiz-adv-x="761" 
d="M434 573v861h287v-861q0 -157 -76.5 -289t-208.5 -208t-289 -76q-83 0 -147 20l74 277q45 -10 73 -10q120 0 203.5 83t83.5 203z" />
    <glyph glyph-name="uniF00B" unicode="&#xf00b;" horiz-adv-x="1484" 
d="M807 1147l-358 -574l358 -573h-344l-359 573l359 574h344zM1380 1147l-358 -574l358 -573h-344l-358 573l358 574h344z" />
    <glyph glyph-name="uniF00C" unicode="&#xf00c;" horiz-adv-x="1484" 
d="M678 0l358 573l-358 574h344l358 -574l-358 -573h-344zM104 0l359 573l-359 574h345l358 -574l-358 -573h-345z" />
    <glyph glyph-name="uniF00F" unicode="&#xf00f;" horiz-adv-x="911" 
d="M807 1147l-358 -574l358 -573h-344l-359 573l359 574h344z" />
    <glyph glyph-name="uniF010" unicode="&#xf010;" horiz-adv-x="911" 
d="M104 0l359 573l-359 574h345l358 -574l-358 -573h-345z" />
    <glyph glyph-name="uniF014" unicode="&#xf014;" horiz-adv-x="645" 
d="M471 1434v-287h133v-287h-133v-860h-287v860h-143v287h143v287h287z" />
    <glyph glyph-name="uniF059" unicode="&#xf059;" 
d="M328 1147l286 -766l287 766h287l-588 -1577h-287l160 430h-2l-430 1147h287z" />
    <glyph glyph-name="uniF05F" unicode="&#xf05f;" horiz-adv-x="763" 
d="M950 1542h-286l-86 121l-86 -121h-287l229 322h287zM434 573v861h287v-861q0 -157 -76.5 -289t-208.5 -208t-289 -76q-83 0 -147 20l74 277q45 -10 73 -10q120 0 203.5 83t83.5 203z" />
    <glyph glyph-name="uniF076" unicode="&#xf076;" horiz-adv-x="655" 
d="M471 1147h143v-287h-143v-143h143v-287h-143v-430h-287v430h-143v287h143v143h-143v287h143v287h287v-287z" />
    <glyph glyph-name="uniF078" unicode="&#xf078;" horiz-adv-x="1433" 
d="M0 -430v287h1434v-287h-1434z" />
    <glyph glyph-name="uniF07E" unicode="&#xf07e;" horiz-adv-x="1249" 
d="M1055 817v-201l-860 -401v287l430 215l-430 215v287z" />
    <glyph glyph-name="uniF080" unicode="&#xf080;" horiz-adv-x="1249" 
d="M1055 817v-201l-860 -401v287l430 215l-430 215v287zM195 143h860v-286h-860v286z" />
    <glyph glyph-name="uniF0DD" unicode="&#xf0dd;" horiz-adv-x="657" 
d="M471 860v-788l35 -41q3 0 16 -7t37 -26.5t43 -44.5q35 -46 35 -121q0 -68 -33 -120.5t-87.5 -82t-116 -44.5t-126.5 -15q-95 0 -213 31l58 215q77 -21 131 -21q89 0 92 43q0 27 -21.5 47t-55.5 29t-63 12.5t-55 3.5v29l37 113v788h-143v287h143v287h287v-287h143v-287
h-143z" />
    <glyph glyph-name="uniF0E4" unicode="&#xf0e4;" 
d="M365 1262q-72 0 -122 50t-50 122t50 122t122 50q73 0 122.5 -49t49.5 -123q0 -69 -51.5 -120.5t-120.5 -51.5zM1038 1434q0 -72 -50 -122t-122 -50q-70 0 -121 51q-51 50 -51 121t51 122q50 50 121 50q74 0 123 -49t49 -123zM328 1147l286 -766l287 766h287l-588 -1577
h-287l160 430h-2l-430 1147h287z" />
    <glyph glyph-name="uniF0E5" unicode="&#xf0e5;" 
d="M987 1255h-287l-86 121l-86 -121h-286l229 322h287zM328 1147l286 -766l287 766h287l-588 -1577h-287l160 430h-2l-430 1147h287z" />
    <glyph glyph-name="uniF17D" unicode="&#xf17d;" horiz-adv-x="716" 
d="M530 1147h-344l58 502h286v-502z" />
    <glyph glyph-name="uniF17E" unicode="&#xf17e;" horiz-adv-x="716" 
d="M186 1649h344l-57 -502h-287v502z" />
    <glyph glyph-name="uniF17F" unicode="&#xf17f;" horiz-adv-x="716" 
d="M186 1649h344l-28 -502h-287z" />
    <glyph glyph-name="uniF180" unicode="&#xf180;" horiz-adv-x="1126" 
d="M184 1649h344l-57 -502h-287v502zM600 1649h344l-57 -502h-287v502z" />
    <glyph glyph-name="uniF181" unicode="&#xf181;" horiz-adv-x="1126" 
d="M528 1147h-344l58 502h286v-502zM944 1147h-344l57 502h287v-502z" />
    <glyph glyph-name="uniF182" unicode="&#xf182;" horiz-adv-x="1126" 
d="M184 1649h344l-28 -502h-287zM600 1649h344l-29 -502h-286z" />
    <glyph glyph-name="uniF185" unicode="&#xf185;" horiz-adv-x="1071" 
d="M686 1649h344l-57 -502h-287v502zM471 1434v-287h143v-287h-143v-860h-287v860h-143v287h143v287h287z" />
    <glyph glyph-name="uniF186" unicode="&#xf186;" horiz-adv-x="655" 
d="M184 1434h287v-287h143v-287h-143v-860h-287v860h-143v287h143v287zM328 -72q70 0 122 -50t52 -120q0 -17 -8 -49q-36 -106 -121 -185t-189 -97l-114 100q92 22 157 90q-71 51 -71 139q0 71 50 121.5t122 50.5z" />
    <glyph glyph-name="uniF1BB" unicode="&#xf1bb;" horiz-adv-x="655" 
d="M283 1147l45 -57v-21q135 78 286 78v-287q-120 0 -203 -83.5t-83 -203.5v-573h-287v1147h242zM328 -72q70 0 122 -50t52 -120q0 -17 -8 -49q-36 -106 -121 -185t-189 -97l-114 100q92 22 157 90q-71 51 -71 139q0 71 50 121.5t122 50.5z" />
    <glyph glyph-name="uniF1BC" unicode="&#xf1bc;" horiz-adv-x="655" 
d="M471 1255h-287l-229 322h287l86 -121l86 121h286zM283 1147l45 -57v-21q135 78 286 78v-287q-120 0 -203 -83.5t-83 -203.5v-573h-287v1147h242z" />
    <glyph glyph-name="uniF1BF" unicode="&#xf1bf;" horiz-adv-x="1157" 
d="M543 1147q290 0 431.5 -142t141.5 -432v-573h-287v57q-69 -57 -286 -57q-70 0 -138.5 12t-135 39.5t-116.5 68.5t-81 104.5t-31 140.5q0 79 30.5 143t79.5 104.5t115.5 68t135 39t141.5 11.5q150 0 215 -10l28 -4q0 51 -51 94q-65 49 -192 49q-84 0 -166.5 -18
t-126.5 -39l-37 -21l-115 265q8 4 54 28q77 35 186 53.5t205 18.5zM543 287q63 0 111.5 14t74 36t38 42t15.5 37l4 14q-80 14 -243 14q-187 0 -187 -79q0 -78 187 -78z" />
    <glyph glyph-name="uniF1FD" unicode="&#xf1fd;" horiz-adv-x="849" 
d="M686 1305q-215 0 -215 -158h358v-287h-358v-860h-287v860h-143v287h147q19 201 145 315.5t353 114.5q74 0 143 -16v-289q-62 33 -143 33z" />
    <glyph glyph-name="uniF20F" unicode="&#xf20f;" horiz-adv-x="1157" 
d="M436 1577h287l229 -322h-286l-86 121l-86 -121h-287zM543 1147q290 0 431.5 -142t141.5 -432v-573h-287v57q-69 -57 -286 -57q-89 0 -174 20.5t-160.5 62t-121.5 115t-46 169.5q0 97 45.5 170.5t120.5 114t160 60t176 19.5q150 0 215 -10l28 -4q0 51 -51 94
q-65 49 -192 49q-85 0 -168 -17.5t-125 -39.5l-37 -19l-115 263q8 4 54 28q77 35 186 53.5t205 18.5zM543 287q63 0 111.5 14t74 36t38 42t15.5 37l4 14q-80 14 -243 14q-187 0 -187 -77q0 -80 187 -80z" />
    <glyph glyph-name="uniF211" unicode="&#xf211;" horiz-adv-x="1157" 
d="M449 1554q51 -51 51 -120.5t-51 -120.5t-121 -51q-67 0 -121 51q-51 51 -51 120.5t51 120.5q52 52 121 52q72 0 121 -52zM952 1554q50 -51 50 -120.5t-50 -120.5q-51 -51 -123 -51q-69 0 -120 51t-51 120.5t51 120.5q49 52 120 52q74 0 123 -52zM543 1147
q290 0 431.5 -142t141.5 -432v-573h-287v57q-69 -57 -286 -57q-89 0 -174 20.5t-160.5 62t-121.5 115t-46 169.5q0 97 45.5 170.5t120.5 114t160 60t176 19.5q150 0 215 -10l28 -4q0 51 -51 94q-65 49 -192 49q-85 0 -168 -17.5t-125 -39.5l-37 -19l-115 263q8 4 54 28
q77 35 186 53.5t205 18.5zM543 287q63 0 111.5 14t74 36t38 42t15.5 37l4 14q-80 14 -243 14q-187 0 -187 -77q0 -80 187 -80z" />
    <glyph glyph-name="uniF212" unicode="&#xf212;" horiz-adv-x="1157" 
d="M580 1219q-120 0 -203.5 83t-83.5 203t83.5 203.5t203.5 83.5t203 -83.5t83 -203.5t-83 -203t-203 -83zM580 1577q-30 0 -51 -21t-21 -51q0 -29 21 -50t51 -21q29 0 50 21t21 50t-21 50.5t-50 21.5zM543 0q-89 0 -174 20.5t-160.5 62t-121.5 115t-46 169.5
q0 97 45.5 170.5t120.5 114t160 60t176 19.5q150 0 215 -10l28 -4q0 51 -51 94q-65 49 -192 49q-85 0 -168 -17.5t-125 -39.5l-37 -19l-115 263q8 4 54 28q77 35 186 53.5t205 18.5q290 0 431.5 -142t141.5 -432v-573h-287v57q-69 -57 -286 -57zM543 444q-187 0 -187 -77
q0 -80 187 -80q63 0 111.5 14t74 36t38 42t15.5 37l4 14q-80 14 -243 14z" />
    <glyph glyph-name="uniF213" unicode="&#xf213;" horiz-adv-x="1157" 
d="M293 1577h573v-287h-573v287zM543 1147q290 0 431.5 -142t141.5 -432v-573h-287v57q-69 -57 -286 -57q-89 0 -174 20.5t-160.5 62t-121.5 115t-46 169.5q0 97 45.5 170.5t120.5 114t160 60t176 19.5q150 0 215 -10l28 -4q0 51 -51 94q-65 49 -192 49q-85 0 -168 -17.5
t-125 -39.5l-37 -19l-115 263q8 4 54 28q77 35 186 53.5t205 18.5zM543 287q63 0 111.5 14t74 36t38 42t15.5 37l4 14q-80 14 -243 14q-187 0 -187 -77q0 -80 187 -80z" />
    <glyph glyph-name="uniF214" unicode="&#xf214;" horiz-adv-x="1157" 
d="M580 1505q29 0 50 21.5t21 50.5h287q0 -151 -103.5 -254.5t-254.5 -103.5t-255 103.5t-104 254.5h287q0 -30 21 -51t51 -21zM543 1147q290 0 431.5 -142t141.5 -432v-573h-287v57q-69 -57 -286 -57q-89 0 -174 20.5t-160.5 62t-121.5 115t-46 169.5q0 97 45.5 170.5
t120.5 114t160 60t176 19.5q150 0 215 -10l28 -4q0 51 -51 94q-65 49 -192 49q-85 0 -168 -17.5t-125 -39.5l-37 -19l-115 263q8 4 54 28q77 35 186 53.5t205 18.5zM543 287q63 0 111.5 14t74 36t38 42t15.5 37l4 14q-80 14 -243 14q-187 0 -187 -77q0 -80 187 -80z" />
    <glyph glyph-name="uniF215" unicode="&#xf215;" horiz-adv-x="1161" 
d="M1130 -139l72 -258q-106 -33 -201 -33q-126 0 -203 58.5t-96 160.5q-4 32 -4 49q0 111 86 197q-93 -35 -241 -35q-89 0 -174 20.5t-160.5 62t-121.5 115t-46 169.5q0 97 45.5 170.5t120.5 114t160 60t176 19.5q150 0 215 -10l28 -4q0 51 -51 94q-65 49 -192 49
q-85 0 -168 -17.5t-125 -39.5l-37 -19l-115 263q8 4 54 28q77 35 186 53.5t205 18.5q290 0 431.5 -142t141.5 -432v-573q-27 -1 -54 -6.5t-55 -17.5t-45.5 -34t-17.5 -51q0 -26 29 -45q21 -12 53 -12q46 0 104 27zM543 287q63 0 111.5 14t74 36t38 42t15.5 37l4 14
q-80 14 -243 14q-187 0 -187 -77q0 -80 187 -80z" />
    <glyph glyph-name="uniF216" unicode="&#xf216;" horiz-adv-x="1157" 
d="M723 1255h-287l-229 322h287l86 -121l86 121h286zM543 1147q290 0 431.5 -142t141.5 -432v-573h-287v57q-69 -57 -286 -57q-89 0 -174 20.5t-160.5 62t-121.5 115t-46 169.5q0 97 45.5 170.5t120.5 114t160 60t176 19.5q150 0 215 -10l28 -4q0 51 -51 94q-65 49 -192 49
q-85 0 -168 -17.5t-125 -39.5l-37 -19l-115 263q8 4 54 28q77 35 186 53.5t205 18.5zM543 287q63 0 111.5 14t74 36t38 42t15.5 37l4 14q-80 14 -243 14q-187 0 -187 -77q0 -80 187 -80z" />
    <glyph glyph-name="uniF219" unicode="&#xf219;" horiz-adv-x="1157" 
d="M723 1219h-287l-172 358h344zM543 1147q290 0 431.5 -142t141.5 -432v-573h-287v57q-69 -57 -286 -57q-89 0 -174 20.5t-160.5 62t-121.5 115t-46 169.5q0 97 45.5 170.5t120.5 114t160 60t176 19.5q150 0 215 -10l28 -4q0 51 -51 94q-65 49 -192 49q-85 0 -168 -17.5
t-125 -39.5l-37 -19l-115 263q8 4 54 28q77 35 186 53.5t205 18.5zM543 444q-187 0 -187 -77q0 -80 187 -80q63 0 111.5 14t74 36t38 42t15.5 37l4 14q-80 14 -243 14z" />
    <glyph glyph-name="uniF21A" unicode="&#xf21a;" horiz-adv-x="1157" 
d="M436 1219l115 358h344l-172 -358h-287zM758 721l28 -4q0 51 -51 94q-65 49 -192 49q-85 0 -168 -17.5t-125 -39.5l-37 -19l-115 263q8 4 54 28q77 35 186 53.5t205 18.5q290 0 431.5 -142t141.5 -432v-573h-287v57q-69 -57 -286 -57q-89 0 -174 20.5t-160.5 62
t-121.5 115t-46 169.5q0 97 45.5 170.5t120.5 114t160 60t176 19.5q150 0 215 -10zM543 444q-187 0 -187 -77q0 -80 187 -80q63 0 111.5 14t74 36t38 42t15.5 37l4 14q-80 14 -243 14z" />
    <glyph glyph-name="uniF21B" unicode="&#xf21b;" 
d="M471 1219l115 358h344l-172 -358h-287zM328 1147l286 -766l287 766h287l-588 -1577h-287l160 430h-2l-430 1147h287z" />
    <glyph glyph-name="uniF21D" unicode="&#xf21d;" horiz-adv-x="684" 
d="M643 1577l-172 -358h-287l115 358h344zM283 1147l45 -57v-21q135 78 286 78v-287q-120 0 -203 -83.5t-83 -203.5v-573h-287v1147h242z" />
    <glyph glyph-name="uniF21E" unicode="&#xf21e;" 
d="M299 1577h344l115 -358h-287zM328 1147l286 -766l287 766h287l-588 -1577h-287l160 430h-2l-430 1147h287z" />
    <glyph glyph-name="uniF238" unicode="&#xf238;" horiz-adv-x="901" 
d="M881 1004q0 -58 -15 -107h-612q47 -109 197 -109q128 0 190 56l186 -109q-53 -78 -161.5 -120t-214.5 -42q-181 0 -306 124.5t-125 306.5q0 177 127 303.5t304 126.5q180 0 305 -125t125 -305zM260 1112h381q-55 107 -190 107q-136 0 -191 -107z" />
    <glyph glyph-name="uniF268" unicode="&#xf268;" horiz-adv-x="641" 
d="M41 1532l106 332h320l-160 -332h-266zM573 328l13 12l55 -260q-38 -38 -118.5 -59t-147.5 -21q-138 0 -236 98t-98 236v1130h266v-1038q0 -55 31 -89.5t68 -39.5l34 -4q44 0 82 11t51 24z" />
    <glyph glyph-name="uniF269" unicode="&#xf269;" horiz-adv-x="686" 
d="M399 0q-151 0 -254.5 103.5t-103.5 254.5v1219h287v-1118q0 -59 33 -97t73 -43l37 -4q47 0 87.5 11.5t55.5 25.5l13 15l59 -281q-42 -42 -127.5 -64t-159.5 -22zM362 -72q71 0 123 -49.5t52 -120.5q0 -13 -9 -49q-36 -107 -119.5 -185.5t-187.5 -96.5l-115 100
q93 22 158 90q-71 51 -71 139q0 71 49 121.5t120 50.5z" />
    <glyph glyph-name="uniF26A" unicode="&#xf26a;" horiz-adv-x="815" 
d="M758 1147h-287v502h344zM434 319l37 -4q47 0 87.5 11.5t55.5 25.5l13 15l59 -281q-42 -42 -127.5 -64t-159.5 -22q-151 0 -254.5 103.5t-103.5 254.5v1219h287v-1118q0 -59 33 -97t73 -43z" />
    <glyph glyph-name="uniF26B" unicode="&#xf26b;" horiz-adv-x="870" 
d="M434 319l37 -4q47 0 87.5 11.5t55.5 25.5l13 15l59 -281q-42 -42 -127.5 -64t-159.5 -22q-151 0 -254.5 103.5t-103.5 254.5v1219h287v-1118q0 -59 33 -97t73 -43zM651 969q73 0 125.5 -53.5t52.5 -127.5t-52.5 -126t-125.5 -52q-75 0 -127.5 52t-52.5 126t52.5 127.5
t127.5 53.5z" />
    <glyph glyph-name="uniF26C" unicode="&#xf26c;" horiz-adv-x="946" 
d="M872 352l15 15l59 -281q-42 -42 -127.5 -64t-159.5 -22q-151 0 -254.5 103.5t-103.5 254.5v183l-158 -92l-143 249l301 172v707h287v-541l157 92l144 -249l-301 -172v-248q0 -59 33.5 -97t74.5 -43l35 -4q47 0 87 11.5t54 25.5z" />
    <glyph glyph-name="uniF282" unicode="&#xf282;" horiz-adv-x="686" 
d="M614 352l13 15l59 -281q-42 -42 -127.5 -64t-159.5 -22q-151 0 -254.5 103.5t-103.5 254.5v1219h287v-1118q0 -59 33 -97t73 -43l37 -4q47 0 87.5 11.5t55.5 25.5z" />
    <glyph glyph-name="uniF292" unicode="&#xf292;" horiz-adv-x="1869" 
d="M727 0h-215l502 1434h215zM317 1434h172v-861h-172v586q-111 -18 -215 -18v164q121 0 170 45q43 43 43 71zM1444 215q-133 0 -227.5 95.5t-94.5 228.5t94 227t228 94q135 0 229 -93t94 -228q0 -65 -26 -127l-164 -412h-174l88 219q-46 -4 -47 -4zM1595 539
q0 64 -43 106.5t-108 42.5q-63 0 -106.5 -43t-43.5 -106t43.5 -107.5t106.5 -44.5t107 44.5t44 107.5z" />
    <glyph glyph-name="uniF2AF" unicode="&#xf2af;" horiz-adv-x="1157" 
d="M362 1253l-215 144q4 19 43 76q46 69 120 104t161 35q52 0 125 -31q67 -33 98 -33q53 0 99 64l215 -144q-3 -17 -41 -73q-47 -68 -121 -105t-160 -37q-58 0 -125 33q-73 31 -98 31q-52 0 -101 -64zM543 1147q290 0 431.5 -142t141.5 -432v-573h-287v57q-69 -57 -286 -57
q-70 0 -138.5 12t-135 39.5t-116.5 68.5t-81 104.5t-31 140.5q0 79 30.5 143t79.5 104.5t115.5 68t135 39t141.5 11.5q150 0 215 -10l28 -4q0 51 -51 94q-65 49 -192 49q-84 0 -166.5 -18t-126.5 -39l-37 -21l-115 265q8 4 54 28q77 35 186 53.5t205 18.5zM543 287
q63 0 111.5 14t74 36t38 42t15.5 37l4 14q-80 14 -243 14q-187 0 -187 -79q0 -78 187 -78z" />
    <glyph glyph-name="NULL" horiz-adv-x="0" 
 />
    <glyph glyph-name="CR" horiz-adv-x="681" 
 />
    <glyph glyph-name="ff.liga.alt" horiz-adv-x="1689" 
d="M1403 1305q-215 0 -215 -158h358v-287h-358v-860h-287v860h-430v-860h-287v860h-143v287h147q19 201 145 315.5t353 114.5q74 0 143 -16v-289q-62 33 -143 33q-215 0 -215 -158h434q19 201 145 315.5t353 114.5q74 0 143 -16v-289q-62 33 -143 33z" />
    <glyph glyph-name="fl.liga.alt" 
d="M1475 352l12 15l59 -281q-42 -42 -127 -64t-159 -22q-151 0 -255 103.5t-104 254.5v502h-430v-860h-287v860h-143v287h147q19 201 145 315.5t353 114.5q74 0 143 -16v-289q-62 33 -143 33q-215 0 -215 -158h430v430h287v-1118q0 -59 33 -97t73 -43l37 -4q47 0 88 11.5
t56 25.5z" />
    <glyph glyph-name="ffl.liga.alt" horiz-adv-x="1945" 
d="M2191 352l13 15l59 -281q-42 -42 -127.5 -64t-159.5 -22q-151 0 -254.5 103.5t-103.5 254.5v502h-430v-860h-287v860h-430v-860h-287v860h-143v287h147q19 201 145 315.5t353 114.5q71 0 144 -16.5t108 -36.5l35 -19l-86 -272q-72 72 -201 72q-215 0 -215 -158h434
q19 201 145 315.5t353 114.5q74 0 143 -16v-289q-62 33 -143 33q-215 0 -215 -158h430v430h287v-1118q0 -59 33 -97t73 -43l37 -4q47 0 87.5 11.5t55.5 25.5z" />
    <glyph glyph-name="ft.liga.alt" horiz-adv-x="1546" 
d="M1188 1434v-287h143v-287h-143v-860h-287v860h-430v-860h-287v860h-143v287h147q19 201 145 315.5t353 114.5q74 0 143 -16v-289q-62 33 -143 33q-215 0 -215 -158h430v287h287z" />
    <glyph glyph-name="tt.liga.alt" 
d="M1044 1434v-287h144v-287h-144v-860h-286v860h-287v-860h-287v860h-143v287h143v287h287v-287h287v287h286z" />
    <glyph glyph-name="zero.tf" horiz-adv-x="1177" 
d="M590 1434q94 0 171.5 -20.5t132.5 -56t96.5 -89t67 -113t41 -134.5t21.5 -147t6 -157t-6 -157t-21.5 -147t-41 -134.5t-67 -113t-96.5 -89t-132.5 -56t-171.5 -20.5q-318 0 -434 213q-56 101 -80.5 221t-24.5 283t24.5 283t80.5 223q117 211 434 211zM590 287
q130 0 190 104.5t60 325.5t-60 325.5t-190 104.5q-252 0 -252 -430t252 -430z" />
    <glyph glyph-name="one.tf" horiz-adv-x="1177" 
d="M481 1434h287v-1147h358v-287h-1075v287h430v690q-200 -31 -358 -31v273q96 0 172 21.5t111 55.5q70 63 73 115z" />
    <glyph glyph-name="two.tf" horiz-adv-x="1177" 
d="M1126 897q0 -78 -29 -148.5t-84 -129.5t-107 -101t-126 -90q-23 -15 -59.5 -38t-55 -34.5t-40.5 -26.5t-31.5 -25t-11.5 -17h544v-287h-1075v143q0 183 275 363q99 64 227 143q272 165 272 283q0 97 -57.5 156t-149.5 59q-203 0 -292 -262l-275 84q30 223 173 344
t366 121q246 0 391 -145.5t145 -391.5z" />
    <glyph glyph-name="three.tf" horiz-adv-x="1177" 
d="M123 1147v287h1003v-144l-247 -356q115 -63 181 -174.5t66 -257.5q0 -232 -150.5 -367t-385.5 -135q-211 0 -356.5 128.5t-182.5 338.5l275 82q89 -262 278 -262q97 0 166.5 60t69.5 155q0 93 -65 153.5t-175 61.5h-102l-70 67l254 363h-559z" />
    <glyph glyph-name="four.tf" horiz-adv-x="1177" 
d="M983 860v-287h143v-286h-143v-287h-287v287h-645v143l402 1004h344l-344 -861h243v252z" />
    <glyph glyph-name="five.tf" horiz-adv-x="1177" 
d="M604 1004q239 0 380.5 -132t141.5 -370q0 -158 -69 -273t-189 -172t-278 -57q-247 0 -393 135.5t-146 380.5h287q0 -109 65 -169t187 -60q120 0 185 57.5t65 157.5t-65 157.5t-185 57.5q-75 0 -138 -21.5t-90 -48.5q-24 -21 -24 -37h-172l-86 86l43 738h932v-287h-633
l-10 -164q92 21 192 21z" />
    <glyph glyph-name="six.tf" horiz-adv-x="1177" 
d="M541 1434h344l-240 -361q205 -22 343 -175t138 -359q0 -146 -71 -270t-194.5 -196.5t-270.5 -72.5t-271 72t-196 196t-72 271q0 174 101 311zM590 287q104 0 177 74t73 178q0 103 -73.5 176t-176.5 73q-105 0 -178.5 -72.5t-73.5 -176.5t74 -178t178 -74z" />
    <glyph glyph-name="seven.tf" horiz-adv-x="1177" 
d="M725 1147h-674v287h1075v-144l-516 -1290h-344z" />
    <glyph glyph-name="eight.tf" horiz-adv-x="1177" 
d="M983 754q143 -137 143 -287q0 -107 -45 -197t-120.5 -148t-171 -90t-199.5 -32t-200 32t-172 89.5t-121.5 147.5t-45.5 198q0 143 144 287q-101 113 -101 250q0 100 41.5 183t111.5 136t158.5 82t184.5 29q97 0 185 -29t157 -82t110 -136t41 -183q0 -129 -100 -250z
M590 1147q-95 0 -152 -42t-57 -101q0 -64 56 -104t153 -40q103 0 155 38t52 106t-52 105.5t-155 37.5zM590 287q121 0 185.5 47.5t64.5 132.5q0 83 -65 130.5t-185 47.5t-186 -47.5t-66 -130.5q0 -86 65 -133t187 -47z" />
    <glyph glyph-name="nine.tf" horiz-adv-x="1177" 
d="M1126 897q0 -178 -100 -313l-389 -584h-344l239 360q-205 22 -343 176.5t-138 360.5q0 147 72.5 270.5t196.5 195t270 71.5t269.5 -72t195 -195.5t71.5 -269.5zM338 897q0 -104 74 -178t178 -74t177 74t73 178q0 103 -73.5 176.5t-176.5 73.5q-104 0 -178 -73t-74 -177z
" />
    <glyph glyph-name="zerosuperior" horiz-adv-x="727" 
d="M365 1649q78 0 136.5 -23.5t93.5 -62t56 -96t28 -116t7 -132.5t-7 -132.5t-28 -116.5t-56 -96.5t-93.5 -62t-136.5 -23.5t-136.5 23.5t-93.5 62t-57 96t-29.5 117t-7.5 132.5t7.5 132.5t29.5 116.5t57 95.5t93.5 62t136.5 23.5zM365 961q149 0 149 258t-149 258
q-152 0 -152 -258t152 -258z" />
    <glyph glyph-name="onesuperior.1" horiz-adv-x="468" 
d="M250 1618l6 31h172v-861h-172v586q-111 -18 -215 -18v164q89 0 145.5 30.5t63.5 67.5z" />
    <glyph glyph-name="twosuperior.1" horiz-adv-x="727" 
d="M686 1327q0 -72 -46.5 -139.5t-113.5 -110.5q-22 -15 -60.5 -38.5t-51.5 -32.5q-54 -35 -56 -45h328v-173h-645v86q0 57 46 115t120 105q67 44 135 84q164 100 164 170q0 57 -35 93t-90 36q-124 0 -174 -158l-166 51q20 134 106 206.5t218 72.5q144 0 232.5 -87.5
t88.5 -234.5z" />
    <glyph glyph-name="threesuperior.1" horiz-adv-x="727" 
d="M84 1477v172h602v-86l-149 -213q149 -79 149 -260q0 -138 -90.5 -220t-230.5 -82q-122 0 -211 74.5t-113 206.5l164 49q53 -157 168 -157q61 0 101 38t40 91q0 55 -39 91.5t-104 37.5h-62l-41 41l152 217h-336z" />
    <glyph glyph-name="foursuperior" horiz-adv-x="727" 
d="M600 1305v-172h86v-172h-86v-173h-172v173h-387v86l242 602h204l-204 -516h145v151z" />
    <glyph glyph-name="fivesuperior" horiz-adv-x="727" 
d="M373 1391q143 0 228 -80t85 -221t-86.5 -221.5t-234.5 -80.5q-149 0 -236.5 82t-87.5 228h172q0 -137 152 -137q71 0 110 34t39 95t-39 95t-110 34q-30 0 -56.5 -5.5t-43 -13t-29 -17t-18 -16.5t-5.5 -12h-102l-54 51l27 443h559v-172h-379l-6 -99q54 13 115 13z" />
    <glyph glyph-name="sixsuperior" horiz-adv-x="727" 
d="M336 1649h205l-144 -217q124 -12 206.5 -103.5t82.5 -216.5q0 -133 -94 -228.5t-227 -95.5q-132 0 -228 96t-96 228q0 100 59 186zM365 961q62 0 105.5 44t43.5 107q0 62 -44 106t-105 44q-63 0 -107.5 -44t-44.5 -106q0 -63 44.5 -107t107.5 -44z" />
    </font>
</defs>
</svg>
