<svg width="24" height="24" viewBox="0 0 24 24" fill="none" xmlns="http://www.w3.org/2000/svg">
<g id="Star">
<path id="Vector" d="M21.4909 9.72166C21.4697 9.79757 21.4309 9.86711 21.3781 9.92482L21.3268 9.96951L17.0987 13.6595L16.6472 14.0536L16.7818 14.6376L18.0484 20.1313L18.049 20.1339C18.0713 20.2297 18.065 20.3299 18.0307 20.422C17.9964 20.5141 17.9357 20.5941 17.8562 20.6519C17.7767 20.7098 17.6819 20.7429 17.5837 20.7471C17.4858 20.7513 17.3889 20.7267 17.3049 20.6764C17.3046 20.6762 17.3043 20.676 17.304 20.6758L12.5149 17.771L11.9957 17.4562L11.4768 17.7715L6.69884 20.6758C6.69839 20.6761 6.69794 20.6764 6.69749 20.6766C6.6136 20.7268 6.51683 20.7513 6.41914 20.7471C6.32094 20.7429 6.22615 20.7098 6.14665 20.6519C6.06715 20.5941 6.00646 20.5141 5.97217 20.422C5.93788 20.3299 5.9315 20.2297 5.95385 20.1339L5.95447 20.1312L7.21916 14.6431L7.35362 14.0596L6.90272 13.6656L2.67365 9.96994L2.67367 9.96992L2.66875 9.96568C2.59418 9.90137 2.54027 9.81648 2.51376 9.72166C2.48725 9.62683 2.48933 9.52629 2.51974 9.43265C2.55014 9.339 2.60752 9.25641 2.68467 9.19524C2.76182 9.13408 2.85532 9.09705 2.95343 9.0888L2.95599 9.08858L8.53036 8.60577L9.13258 8.55361L9.3663 7.99615L11.5422 2.80615L11.5429 2.80458C11.5805 2.71437 11.644 2.63732 11.7254 2.58312C11.8067 2.52892 11.9023 2.5 12 2.5C12.0978 2.5 12.1933 2.52892 12.2747 2.58312L12.8249 1.75738L12.2747 2.58312C12.356 2.63732 12.4195 2.71437 12.4571 2.80458L12.4582 2.80714L14.6407 7.99714L14.8747 8.55366L15.4762 8.60577L21.0487 9.08858L21.0513 9.0888C21.1494 9.09705 21.2429 9.13407 21.32 9.19524C21.3972 9.25641 21.4546 9.339 21.485 9.43265L22.4361 9.12385L21.485 9.43265C21.5154 9.52629 21.5175 9.62683 21.4909 9.72166L21.5818 9.74705L21.4909 9.72166Z" stroke="#C0C2C4" stroke-width="2"/>
</g>
</svg>
