<svg width="16" height="16" viewBox="0 0 16 16" fill="none" xmlns="http://www.w3.org/2000/svg">
    <g id="icon_caret_right">
        <path id="Vector" d="M5.52053 3.14597L10.5205 8.14597C10.567 8.19241 10.6039 8.24755 10.6291 8.30825C10.6542 8.36895 10.6672 8.43401 10.6672 8.49972C10.6672 8.56543 10.6542 8.63049 10.6291 8.69119C10.6039 8.75189 10.567 8.80704 10.5205 8.85347L5.52053 13.8535C5.42671 13.9473 5.29946 14 5.16678 14C5.0341 14 4.90685 13.9473 4.81303 13.8535C4.71921 13.7597 4.6665 13.6324 4.6665 13.4997C4.6665 13.367 4.71921 13.2398 4.81303 13.146L9.45991 8.49972L4.81303 3.85347C4.76658 3.80702 4.72973 3.75187 4.70458 3.69117C4.67944 3.63047 4.6665 3.56542 4.6665 3.49972C4.6665 3.43402 4.67944 3.36897 4.70458 3.30827C4.72973 3.24758 4.76658 3.19243 4.81303 3.14597C4.85949 3.09951 4.91464 3.06267 4.97533 3.03753C5.03603 3.01238 5.10108 2.99944 5.16678 2.99944C5.23248 2.99944 5.29753 3.01238 5.35823 3.03753C5.41893 3.06267 5.47408 3.09951 5.52053 3.14597Z" fill="#FFF"/>
    </g>
</svg>
