<svg width="24" height="24" viewBox="0 0 24 24" fill="none" xmlns="http://www.w3.org/2000/svg">
<g id="icon_caret_left">
<path id="Vector" d="M14.719 20.281L7.21896 12.781C7.14922 12.7114 7.09391 12.6287 7.05616 12.5376C7.01842 12.4466 6.99899 12.349 6.99899 12.2504C6.99899 12.1519 7.01842 12.0543 7.05616 11.9632C7.09391 11.8722 7.14922 11.7894 7.21896 11.7198L14.719 4.21979C14.8597 4.07906 15.0506 4 15.2496 4C15.4486 4 15.6395 4.07906 15.7802 4.21979C15.9209 4.36052 16 4.55139 16 4.75042C16 4.94944 15.9209 5.14031 15.7802 5.28104L8.8099 12.2504L15.7802 19.2198C15.8499 19.2895 15.9052 19.3722 15.9429 19.4632C15.9806 19.5543 16 19.6519 16 19.7504C16 19.849 15.9806 19.9465 15.9429 20.0376C15.9052 20.1286 15.8499 20.2114 15.7802 20.281C15.7105 20.3507 15.6278 20.406 15.5368 20.4437C15.4457 20.4814 15.3481 20.5008 15.2496 20.5008C15.151 20.5008 15.0535 20.4814 14.9624 20.4437C14.8714 20.406 14.7886 20.3507 14.719 20.281Z" fill="#1F252E"/>
</g>
</svg>
