<svg width="24" height="24" viewBox="0 0 24 24" fill="none" xmlns="http://www.w3.org/2000/svg">
<rect x="3" y="3" width="18" height="18" rx="3.1875" fill="#1F4C43"/>
<path d="M16.2861 8.15541L15.4778 7.58666C15.3705 7.51182 15.239 7.48391 15.1119 7.50898C14.9848 7.53406 14.8725 7.6101 14.7992 7.72057L10.8425 13.7668L9.02378 11.8824C8.93189 11.7882 8.80787 11.7354 8.67863 11.7354C8.54939 11.7354 8.42537 11.7882 8.33348 11.8824L7.64319 12.599C7.5978 12.646 7.56179 12.7018 7.53722 12.7632C7.51265 12.8246 7.5 12.8904 7.5 12.9569C7.5 13.0233 7.51265 13.0892 7.53722 13.1506C7.56179 13.212 7.5978 13.2678 7.64319 13.3147L10.439 16.2131C10.5962 16.375 10.8421 16.5 11.0636 16.5C11.2851 16.5 11.5085 16.3554 11.6521 16.1389L16.4162 8.8576C16.4886 8.74655 16.5156 8.61026 16.4912 8.47863C16.4668 8.34699 16.3931 8.23076 16.2861 8.15541Z" fill="white"/>
</svg>
