<svg width="24" height="24" viewBox="0 0 24 24" fill="none" xmlns="http://www.w3.org/2000/svg">
<g id="icon_size">
<path id="Vector" d="M19.8955 6.14794V4.94083L19.042 5.79438L5.79438 19.042L4.94083 19.8955H6.14794H12.12C12.232 19.8955 12.3394 19.94 12.4186 20.0192C12.4978 20.0984 12.5422 20.2058 12.5422 20.3178C12.5422 20.4297 12.4978 20.5371 12.4186 20.6163C12.3394 20.6955 12.232 20.74 12.12 20.74H3.92225C3.81026 20.74 3.70286 20.6955 3.62367 20.6163C3.54449 20.5371 3.5 20.4297 3.5 20.3178V12.12C3.5 12.0646 3.51092 12.0096 3.53214 11.9584C3.55336 11.9072 3.58447 11.8606 3.62367 11.8214C3.66288 11.7822 3.70943 11.7511 3.76066 11.7299C3.81189 11.7087 3.8668 11.6978 3.92225 11.6978C3.9777 11.6978 4.03261 11.7087 4.08383 11.7299C4.13506 11.7511 4.18161 11.7822 4.22082 11.8214C4.26003 11.8606 4.29113 11.9072 4.31235 11.9584C4.33357 12.0096 4.34449 12.0646 4.34449 12.12V18.0921V19.2992L5.19805 18.4456L18.4456 5.19805L19.2992 4.34449H18.0921H12.12C12.008 4.34449 11.9006 4.30001 11.8214 4.22082C11.7422 4.14163 11.6978 4.03424 11.6978 3.92225C11.6978 3.81026 11.7422 3.70286 11.8214 3.62367C11.9006 3.54449 12.008 3.5 12.12 3.5H20.3178C20.4297 3.5 20.5371 3.54449 20.6163 3.62367C20.6955 3.70286 20.74 3.81026 20.74 3.92225V12.12C20.74 12.232 20.6955 12.3394 20.6163 12.4186C20.5371 12.4978 20.4297 12.5422 20.3178 12.5422C20.2058 12.5422 20.0984 12.4978 20.0192 12.4186C19.94 12.3394 19.8955 12.232 19.8955 12.12V6.14794Z" stroke="white"/>
</g>
</svg>
