<svg width="24" height="24" viewBox="0 0 24 24" fill="none" xmlns="http://www.w3.org/2000/svg">
<g id="icon_sort">
<path id="Vector" d="M11.128 16.1677C11.1977 16.2374 11.253 16.3201 11.2908 16.4111C11.3285 16.5022 11.3479 16.5998 11.3479 16.6983C11.3479 16.7969 11.3285 16.8945 11.2908 16.9855C11.253 17.0766 11.1977 17.1593 11.128 17.229L8.12797 20.229C8.05831 20.2987 7.97559 20.354 7.88455 20.3918C7.7935 20.4295 7.6959 20.4489 7.59734 20.4489C7.49878 20.4489 7.40118 20.4295 7.31014 20.3918C7.21909 20.354 7.13637 20.2987 7.06672 20.229L4.06672 17.229C3.99703 17.1593 3.94176 17.0766 3.90405 16.9855C3.86633 16.8945 3.84692 16.7969 3.84692 16.6983C3.84692 16.5998 3.86633 16.5022 3.90405 16.4112C3.94176 16.3201 3.99703 16.2374 4.06672 16.1677C4.20745 16.027 4.39832 15.9479 4.59734 15.9479C4.69589 15.9479 4.79347 15.9673 4.88451 16.005C4.97556 16.0428 5.05828 16.098 5.12797 16.1677L6.84734 17.888V4.69834C6.84734 4.49943 6.92636 4.30867 7.06701 4.16801C7.20766 4.02736 7.39843 3.94834 7.59734 3.94834C7.79625 3.94834 7.98702 4.02736 8.12767 4.16801C8.26832 4.30867 8.34734 4.49943 8.34734 4.69834V17.888L10.0667 16.1677C10.1364 16.098 10.2191 16.0427 10.3101 16.0049C10.4012 15.9672 10.4988 15.9478 10.5973 15.9478C10.6959 15.9478 10.7935 15.9672 10.8845 16.0049C10.9756 16.0427 11.0583 16.098 11.128 16.1677ZM20.128 7.16772L17.128 4.16772C17.0583 4.09799 16.9756 4.04267 16.8845 4.00492C16.7935 3.96718 16.6959 3.94775 16.5973 3.94775C16.4988 3.94775 16.4012 3.96718 16.3101 4.00492C16.2191 4.04267 16.1364 4.09799 16.0667 4.16772L13.0667 7.16772C12.926 7.30845 12.8469 7.49932 12.8469 7.69834C12.8469 7.89737 12.926 8.08824 13.0667 8.22897C13.2074 8.3697 13.3983 8.44876 13.5973 8.44876C13.7964 8.44876 13.9872 8.3697 14.128 8.22897L15.8473 6.50866V19.6983C15.8473 19.8973 15.9264 20.088 16.067 20.2287C16.2077 20.3693 16.3984 20.4483 16.5973 20.4483C16.7963 20.4483 16.987 20.3693 17.1277 20.2287C17.2683 20.088 17.3473 19.8973 17.3473 19.6983V6.50866L19.0667 8.22897C19.2074 8.3697 19.3983 8.44876 19.5973 8.44876C19.7964 8.44876 19.9872 8.3697 20.128 8.22897C20.2687 8.08824 20.3478 7.89737 20.3478 7.69834C20.3478 7.49932 20.2687 7.30845 20.128 7.16772Z" fill="#C0C2C4"/>
</g>
</svg>
