<svg aria-hidden="true" style="position:absolute;width:0;height:0;overflow:hidden" xmlns="http://www.w3.org/2000/svg">
    <defs>
        <symbol id="icon-caret-down" viewBox="0 0 32 32">
            <path d="m26.708 12.707-10 10A.991.991 0 0 1 16 23a1.01 1.01 0 0 1-.708-.293l-10-10a1 1 0 1 1 1.414-1.414l9.292 9.294 9.293-9.294a.991.991 0 0 1 .708-.293 1.01 1.01 0 0 1 .708.293.991.991 0 0 1 .293.708 1.01 1.01 0 0 1-.293.708z"/>
        </symbol>
        <symbol id="icon-search" viewBox="0 0 32 32">
            <path d="m28.707 27.293-6.259-6.257a11.014 11.014 0 0 0-8.712-18.059 11.013 11.013 0 1 0 7.298 19.474l6.257 6.259a.991.991 0 0 0 .708.293 1.006 1.006 0 0 0 .925-.618 1.006 1.006 0 0 0-.217-1.091zM4.999 14a9 9 0 1 1 9 9 9.012 9.012 0 0 1-9-9z"/>
        </symbol>
        <symbol id="icon-shopping-cart" viewBox="0 0 32 32">
            <path d="M27.767 7.359A1.003 1.003 0 0 0 26.999 7H6.834l-.611-3.357A2.004 2.004 0 0 0 4.256 2H2a.997.997 0 0 0-1 1 .997.997 0 0 0 1 1h2.25l3.195 17.536c.094.52.324 1.006.666 1.409a3.505 3.505 0 0 0-.973 3.531A3.501 3.501 0 1 0 13.661 24h5.678a3.5 3.5 0 1 0 3.161-2H10.396a1.002 1.002 0 0 1-.984-.821L9.016 19h14.5a2.999 2.999 0 0 0 2.951-2.464l1.52-8.358a.994.994 0 0 0-.22-.82zM12 25.5a1.495 1.495 0 0 1-.926 1.386 1.504 1.504 0 0 1-1.635-.326 1.5 1.5 0 1 1 2.559-1.061zm12 0a1.495 1.495 0 0 1-.926 1.386 1.504 1.504 0 0 1-1.635-.326 1.5 1.5 0 1 1 2.56-1.061zm.5-9.321a.998.998 0 0 1-.988.821H8.652L7.198 9H25.8l-1.301 7.179z"/>
        </symbol>
        <symbol id="icon-user" viewBox="0 0 32 32">
            <path d="M16 3c-2.571 0-5.085.762-7.222 2.191S4.974 8.65 3.99 11.025a13.004 13.004 0 0 0 2.818 14.167 13.002 13.002 0 0 0 20.001-1.97A13.003 13.003 0 0 0 29 16 13.018 13.018 0 0 0 16 3zM9.26 24.687a7.999 7.999 0 0 1 13.48 0 10.977 10.977 0 0 1-13.48 0zM12 15a4.002 4.002 0 0 1 4.78-3.923 4.006 4.006 0 0 1 3.143 3.143A3.996 3.996 0 0 1 16 19a4.003 4.003 0 0 1-4-4zm12.22 8.301a9.96 9.96 0 0 0-4.507-3.594 5.993 5.993 0 0 0 1.956-6.678A6.005 6.005 0 0 0 16 8.993a6 6 0 0 0-3.713 10.714 9.962 9.962 0 0 0-4.508 3.594 11.002 11.002 0 0 1 2.243-16.543 11.001 11.001 0 0 1 16.849 10.904 10.998 10.998 0 0 1-2.652 5.639z"/>
        </symbol>
        <symbol id="icon-caret-left" viewBox="0 0 32 32">
            <path stroke="transparent" d="m19.625 27.041-10-10a.991.991 0 0 1-.293-.708 1.006 1.006 0 0 1 .293-.708l10-10a1 1 0 1 1 1.414 1.414l-9.294 9.293 9.294 9.293a.991.991 0 0 1 .293.708 1.006 1.006 0 0 1-.618.925 1.01 1.01 0 0 1-.766 0 1.002 1.002 0 0 1-.325-.217z"/>
        </symbol>
        <symbol id="icon-caret-right" viewBox="0 0 32 32">
            <path stroke="transparent" d="m11.041 6.292 10 10a.991.991 0 0 1 .293.708 1.006 1.006 0 0 1-.293.708l-10 10a1 1 0 1 1-1.414-1.414l9.294-9.293-9.294-9.293A.991.991 0 0 1 9.334 7a1.01 1.01 0 0 1 .293-.708.991.991 0 0 1 .708-.293 1.01 1.01 0 0 1 .708.293z"/>
        </symbol>
        <symbol id="icon-category" viewBox="0 0 32 32">
            <path fill="transparent" stroke-linejoin="round" stroke-linecap="round" stroke-miterlimit="4" stroke-width="2" d="M22.857 26.971c2.272 0 4.114-1.842 4.114-4.114s-1.842-4.114-4.114-4.114c-2.272 0-4.114 1.842-4.114 4.114s1.842 4.114 4.114 4.114z"></path>
            <path stroke="transparent" d="M27.971 6.362c0-1.289-1.045-2.333-2.333-2.333h-5.524c-0.629 0-1.232 0.25-1.677 0.695s-0.695 1.048-0.695 1.677v5.486c0 0.629 0.25 1.232 0.695 1.677s1.048 0.695 1.677 0.695h5.524c1.289 0 2.333-1.045 2.333-2.333v-5.562zM25.638 6.029c0.184 0 0.333 0.149 0.333 0.333v5.562c0 0.184-0.149 0.333-0.333 0.333h-5.524c-0.099 0-0.193-0.039-0.263-0.109s-0.109-0.164-0.109-0.263v-5.486c0-0.099 0.039-0.193 0.109-0.263s0.164-0.109 0.263-0.109h5.524zM14.257 20.076c0-1.289-1.045-2.333-2.333-2.333h-5.524c-0.629 0-1.232 0.25-1.677 0.695s-0.695 1.048-0.695 1.677v5.486c0 0.629 0.25 1.232 0.695 1.677s1.048 0.695 1.677 0.695h5.524c1.289 0 2.333-1.045 2.333-2.333v-5.562zM11.924 19.743c0.184 0 0.333 0.149 0.333 0.333v5.562c0 0.184-0.149 0.333-0.333 0.333h-5.524c-0.098 0-0.193-0.039-0.263-0.109s-0.109-0.164-0.109-0.263v-5.486c0-0.099 0.039-0.193 0.109-0.263s0.164-0.109 0.263-0.109h5.524zM6.362 4.029c-1.289 0-2.333 1.045-2.333 2.333v5.524c0 0.629 0.25 1.232 0.695 1.677s1.048 0.695 1.677 0.695h5.486c0.629 0 1.232-0.25 1.677-0.695s0.695-1.048 0.695-1.677v-5.524c0-1.289-1.045-2.333-2.333-2.333h-5.562zM6.029 6.362c0-0.184 0.149-0.333 0.333-0.333h5.562c0.184 0 0.333 0.149 0.333 0.333v5.524c0 0.098-0.039 0.193-0.109 0.263s-0.164 0.109-0.263 0.109h-5.486c-0.098 0-0.193-0.039-0.263-0.109s-0.109-0.164-0.109-0.263v-5.524z"></path>
        </symbol>
        <symbol id="icon-close" viewBox="0 0 32 32">
            <path d="M25.707 24.292c0.093 0.093 0.167 0.203 0.217 0.325s0.076 0.251 0.076 0.383c0 0.131-0.026 0.262-0.076 0.383s-0.124 0.232-0.217 0.325c-0.093 0.093-0.203 0.167-0.325 0.217s-0.251 0.076-0.383 0.076c-0.131 0-0.261-0.026-0.383-0.076s-0.232-0.124-0.325-0.217l-8.293-8.294-8.292 8.294c-0.188 0.188-0.442 0.293-0.707 0.293s-0.52-0.105-0.707-0.293c-0.188-0.188-0.293-0.442-0.293-0.708s0.105-0.52 0.293-0.707l8.294-8.293-8.294-8.292c-0.188-0.188-0.293-0.442-0.293-0.707s0.105-0.52 0.293-0.707c0.188-0.188 0.442-0.293 0.707-0.293s0.52 0.105 0.707 0.293l8.292 8.294 8.293-8.294c0.188-0.188 0.442-0.293 0.707-0.293s0.52 0.105 0.708 0.293c0.188 0.188 0.293 0.442 0.293 0.707s-0.105 0.52-0.293 0.707l-8.294 8.292 8.294 8.293z"></path>
        </symbol>
        <symbol id="icon-caret_up" viewBox="0 0 32 32">
            <path d="m6.292 19.625 10-10A.991.991 0 0 1 17 9.332a1.01 1.01 0 0 1 .708.293l10 10a1 1 0 1 1-1.414 1.414l-9.293-9.294-9.293 9.294a.991.991 0 0 1-.708.293 1.01 1.01 0 0 1-.708-.293.991.991 0 0 1-.293-.708 1.01 1.01 0 0 1 .293-.708z"/>
        </symbol>
        <symbol id="icon-arrow-circle" viewBox="0 0 37 32">
            <path d="M25.055 2.677c0.283 0.193 0.477 0.49 0.541 0.826s-0.009 0.684-0.202 0.967c-0.193 0.283-0.49 0.477-0.826 0.541s-0.684-0.009-0.967-0.202c-2.38-1.618-5.233-2.393-8.104-2.201s-5.596 1.339-7.74 3.259-3.584 4.502-4.090 7.335c-0.506 2.833-0.050 5.754 1.297 8.297s3.505 4.563 6.133 5.737c2.627 1.174 5.572 1.435 8.365 0.741s5.273-2.302 7.046-4.569c1.773-2.267 2.736-5.062 2.736-7.94 0-0.342 0.136-0.67 0.378-0.911s0.57-0.377 0.911-0.377c0.342 0 0.67 0.136 0.911 0.377s0.377 0.57 0.377 0.911c-0 3.453-1.156 6.807-3.284 9.527s-5.105 4.65-8.456 5.482c-3.352 0.832-6.885 0.518-10.038-0.891s-5.743-3.833-7.359-6.886c-1.615-3.052-2.163-6.558-1.555-9.957s2.336-6.498 4.909-8.801c2.573-2.303 5.843-3.679 9.289-3.909s6.869 0.701 9.725 2.643z"></path>
            <path d="M23.493 19.554c-0.142 0.096-0.303 0.162-0.471 0.195s-0.342 0.032-0.51-0.003c-0.168-0.035-0.328-0.103-0.469-0.2s-0.262-0.222-0.355-0.367c-0.093-0.145-0.155-0.306-0.185-0.475s-0.024-0.343 0.014-0.51c0.039-0.167 0.11-0.325 0.211-0.464s0.228-0.257 0.375-0.346l8.976-5.741c0.142-0.096 0.303-0.162 0.471-0.195s0.342-0.032 0.51 0.003c0.168 0.035 0.328 0.103 0.469 0.2s0.262 0.222 0.355 0.367 0.155 0.306 0.185 0.476c0.029 0.169 0.024 0.343-0.014 0.51s-0.111 0.325-0.211 0.464c-0.101 0.139-0.228 0.257-0.375 0.346l-8.976 5.741z"></path>
            <path d="M36.841 20.917c0.128 0.31 0.13 0.658 0.005 0.97s-0.365 0.563-0.672 0.699c-0.307 0.137-0.654 0.148-0.969 0.033s-0.572-0.35-0.718-0.652l-3.89-8.713c-0.069-0.155-0.107-0.322-0.112-0.491s0.024-0.338 0.085-0.496c0.060-0.158 0.152-0.303 0.268-0.426s0.256-0.222 0.411-0.291 0.321-0.107 0.491-0.112c0.169-0.005 0.338 0.024 0.496 0.085s0.303 0.152 0.426 0.268c0.123 0.117 0.222 0.256 0.291 0.411l3.887 8.715z"></path>
        </symbol>
        <symbol id="icon-icon_close" viewBox="0 0 32 32">
            <path d="M14.837 21.557a.991.991 0 0 1 .293.708 1.01 1.01 0 0 1-.293.708l-4 4a.991.991 0 0 1-.708.293 1.006 1.006 0 0 1-.708-.293l-4-4a.991.991 0 0 1-.293-.708 1.006 1.006 0 0 1 .293-.708 1 1 0 0 1 1.415 0l2.292 2.294V6.265a.997.997 0 0 1 1-1 .997.997 0 0 1 1 1v17.586l2.292-2.294a.991.991 0 0 1 .708-.293 1.006 1.006 0 0 1 .708.293zm12-12-4-4a.991.991 0 0 0-.708-.293 1.01 1.01 0 0 0-.708.293l-4 4a1 1 0 1 0 1.415 1.414l2.292-2.294v17.586a.997.997 0 0 0 1 1 .997.997 0 0 0 1-1V8.677l2.293 2.294a1 1 0 0 0 1.708-.707.997.997 0 0 0-.293-.707z"/>
        </symbol>
        <symbol id="icon-sort" viewBox="0 0 32 32">
            <path d="M14.837 21.557c0.093 0.093 0.167 0.203 0.217 0.325s0.076 0.251 0.076 0.383c0 0.131-0.026 0.261-0.076 0.383s-0.124 0.232-0.217 0.325l-4 4c-0.093 0.093-0.203 0.167-0.325 0.217s-0.252 0.076-0.383 0.076c-0.131 0-0.262-0.026-0.383-0.076s-0.232-0.124-0.325-0.217l-4-4c-0.093-0.093-0.167-0.203-0.217-0.325s-0.076-0.251-0.076-0.383c0-0.131 0.026-0.262 0.076-0.383s0.124-0.232 0.217-0.325c0.188-0.188 0.442-0.293 0.707-0.293 0.131 0 0.261 0.026 0.383 0.076s0.232 0.124 0.325 0.217l2.292 2.294v-17.586c0-0.265 0.105-0.52 0.293-0.707s0.442-0.293 0.707-0.293c0.265 0 0.52 0.105 0.707 0.293s0.293 0.442 0.293 0.707v17.586l2.292-2.294c0.093-0.093 0.203-0.167 0.325-0.217s0.252-0.076 0.383-0.076c0.131 0 0.262 0.026 0.383 0.076s0.232 0.124 0.325 0.217zM26.837 9.557l-4-4c-0.093-0.093-0.203-0.167-0.325-0.217s-0.251-0.076-0.383-0.076c-0.131 0-0.261 0.026-0.383 0.076s-0.232 0.124-0.325 0.217l-4 4c-0.188 0.188-0.293 0.442-0.293 0.707s0.105 0.52 0.293 0.707c0.188 0.188 0.442 0.293 0.707 0.293s0.52-0.105 0.708-0.293l2.292-2.294v17.586c0 0.265 0.105 0.52 0.293 0.707s0.442 0.293 0.707 0.293c0.265 0 0.52-0.105 0.707-0.293s0.293-0.442 0.293-0.707v-17.586l2.293 2.294c0.188 0.188 0.442 0.293 0.707 0.293s0.52-0.105 0.708-0.293c0.188-0.188 0.293-0.442 0.293-0.707s-0.105-0.52-0.293-0.707z"></path>
        </symbol>
        <symbol id="icon-more" viewBox="0 0 32 32">
            <path d="M25 16c0 0.265-0.105 0.52-0.293 0.707s-0.442 0.293-0.707 0.293h-16c-0.265 0-0.52-0.105-0.707-0.293s-0.293-0.442-0.293-0.707 0.105-0.52 0.293-0.707c0.188-0.188 0.442-0.293 0.707-0.293h16c0.265 0 0.52 0.105 0.707 0.293s0.293 0.442 0.293 0.707zM29 9h-26c-0.265 0-0.52 0.105-0.707 0.293s-0.293 0.442-0.293 0.707c0 0.265 0.105 0.52 0.293 0.707s0.442 0.293 0.707 0.293h26c0.265 0 0.52-0.105 0.707-0.293s0.293-0.442 0.293-0.707-0.105-0.52-0.293-0.707c-0.187-0.188-0.442-0.293-0.707-0.293zM19 21h-6c-0.265 0-0.52 0.105-0.707 0.293s-0.293 0.442-0.293 0.707 0.105 0.52 0.293 0.707c0.188 0.188 0.442 0.293 0.707 0.293h6c0.265 0 0.52-0.105 0.707-0.293s0.293-0.442 0.293-0.707-0.105-0.52-0.293-0.707c-0.187-0.188-0.442-0.293-0.707-0.293z"></path>
        </symbol>
        <symbol id="icon-heart" viewBox="0 0 32 32">
            <path fill="none" stroke="#8a8d92" style="stroke: var(--color1, #8a8d92)" stroke-linejoin="miter" stroke-linecap="butt" stroke-miterlimit="4" stroke-width="1.6" d="M15.36 7.467l0.64 0.852 0.64-0.852c1.247-1.661 3.263-2.666 5.61-2.667 1.843 0.002 3.609 0.735 4.912 2.038s2.036 3.070 2.038 4.913c-0 4-2.994 7.751-6.283 10.631-3.247 2.844-6.568 4.654-6.818 4.786v0l-0.005 0.002c-0.029 0.016-0.062 0.024-0.095 0.024s-0.066-0.008-0.095-0.024l-0.005-0.002c-0.249-0.132-3.571-1.942-6.818-4.786-3.289-2.88-6.283-6.631-6.283-10.632 0.002-1.843 0.735-3.609 2.038-4.912s3.070-2.036 4.912-2.038c2.347 0 4.363 1.006 5.61 2.667zM15.597 26.541l0.403 0.235 0.403-0.235c1.161-0.678 4.218-2.562 6.996-5.141 2.737-2.542 5.401-5.939 5.401-9.65v-0.001c-0.002-1.736-0.693-3.401-1.921-4.628s-2.892-1.918-4.628-1.921h-0.001c-2.721 0-5.076 1.456-6.065 3.871-0.015 0.037-0.041 0.068-0.074 0.090s-0.072 0.034-0.111 0.034c-0.040 0-0.078-0.012-0.111-0.034s-0.059-0.053-0.074-0.090l0 0.001c-0.988-2.411-3.343-3.872-6.065-3.872h-0.001c-1.736 0.002-3.401 0.693-4.628 1.921s-1.918 2.892-1.921 4.628v0.001c0 3.716 2.662 7.113 5.4 9.654 2.777 2.578 5.835 4.46 6.997 5.137zM14.335 9.678l0 0.001c0.136 0.33 0.366 0.613 0.663 0.811s0.645 0.305 1.002 0.305c0.357 0 0.706-0.106 1.002-0.305s0.527-0.481 0.663-0.811l0-0.001c0.717-1.752 2.443-2.878 4.584-2.878 1.312 0.002 2.57 0.524 3.498 1.452s1.45 2.186 1.452 3.499c-0 2.99-2.197 5.977-4.889 8.477-2.378 2.208-4.99 3.896-6.311 4.692-1.322-0.795-3.933-2.481-6.311-4.688-2.692-2.499-4.888-5.486-4.888-8.481 0.002-1.312 0.524-2.57 1.452-3.498s2.186-1.45 3.498-1.452c2.14 0 3.867 1.129 4.584 2.878z"></path>
        </symbol>
        <symbol id="icon-heart-full" viewBox="0 0 32 32">
            <path d="M22.25 4c-2.581 0-4.841 1.11-6.25 2.986-1.409-1.876-3.669-2.986-6.25-2.986-2.055 0.002-4.025 0.82-5.478 2.272s-2.27 3.423-2.272 5.478c0 8.75 12.974 15.833 13.526 16.125 0.146 0.078 0.308 0.119 0.474 0.119s0.328-0.041 0.474-0.119c0.553-0.292 13.526-7.375 13.526-16.125-0.002-2.055-0.82-4.025-2.273-5.478s-3.423-2.27-5.477-2.272zM16 25.85c-2.283-1.33-12-7.389-12-14.1 0.002-1.524 0.608-2.986 1.686-4.064s2.539-1.684 4.064-1.686c2.431 0 4.473 1.295 5.325 3.375 0.075 0.183 0.204 0.34 0.368 0.451s0.359 0.169 0.557 0.169c0.198 0 0.392-0.059 0.557-0.169s0.293-0.267 0.368-0.451c0.853-2.084 2.894-3.375 5.325-3.375 1.524 0.002 2.986 0.608 4.064 1.686s1.684 2.539 1.686 4.064c0 6.701-9.72 12.769-12 14.1z"></path>
            <path d="M16 25.85c-2.283-1.33-12-7.389-12-14.1 0.002-1.524 0.608-2.986 1.686-4.064s2.539-1.684 4.064-1.686c2.431 0 4.473 1.295 5.325 3.375 0.075 0.183 0.204 0.34 0.368 0.451s0.359 0.169 0.557 0.169c0.198 0 0.392-0.059 0.557-0.169s0.293-0.267 0.368-0.451c0.853-2.084 2.894-3.375 5.325-3.375 1.524 0.002 2.986 0.608 4.064 1.686s1.684 2.539 1.686 4.064c0 6.701-9.72 12.769-12 14.1z"></path>
        </symbol>
        <symbol id="icon-minus" viewBox="0 0 32 32">
            <path d="M28 16a.997.997 0 0 1-1 1H5a.997.997 0 0 1-1-1 .997.997 0 0 1 1-1h22a.997.997 0 0 1 1 1z"/>
        </symbol>
        <symbol id="icon-eye" viewBox="0 0 32 32">
            <path d="M16 6c-6.979 0-13.028 4.064-16 10 2.972 5.936 9.021 10 16 10s13.027-4.064 16-10c-2.972-5.936-9.021-10-16-10zM23.889 11.303c1.88 1.199 3.473 2.805 4.67 4.697-1.197 1.891-2.79 3.498-4.67 4.697-2.362 1.507-5.090 2.303-7.889 2.303s-5.527-0.796-7.889-2.303c-1.88-1.199-3.473-2.805-4.67-4.697 1.197-1.891 2.79-3.498 4.67-4.697 0.122-0.078 0.246-0.154 0.371-0.228-0.311 0.854-0.482 1.776-0.482 2.737 0 4.418 3.582 8 8 8s8-3.582 8-8c0-0.962-0.17-1.883-0.482-2.737 0.124 0.074 0.248 0.15 0.371 0.228v0zM16 13c0 1.657-1.343 3-3 3s-3-1.343-3-3 1.343-3 3-3 3 1.343 3 3z"></path>
        </symbol>
        <symbol id="icon-eye-blocked" viewBox="0 0 32 32">
            <path d="M29.561 0.439c-0.586-0.586-1.535-0.586-2.121 0l-6.318 6.318c-1.623-0.492-3.342-0.757-5.122-0.757-6.979 0-13.028 4.064-16 10 1.285 2.566 3.145 4.782 5.407 6.472l-4.968 4.968c-0.586 0.586-0.586 1.535 0 2.121 0.293 0.293 0.677 0.439 1.061 0.439s0.768-0.146 1.061-0.439l27-27c0.586-0.586 0.586-1.536 0-2.121zM13 10c1.32 0 2.44 0.853 2.841 2.037l-3.804 3.804c-1.184-0.401-2.037-1.521-2.037-2.841 0-1.657 1.343-3 3-3zM3.441 16c1.197-1.891 2.79-3.498 4.67-4.697 0.122-0.078 0.246-0.154 0.371-0.228-0.311 0.854-0.482 1.776-0.482 2.737 0 1.715 0.54 3.304 1.459 4.607l-1.904 1.904c-1.639-1.151-3.038-2.621-4.114-4.323z"></path>
            <path d="M24 13.813c0-0.849-0.133-1.667-0.378-2.434l-10.056 10.056c0.768 0.245 1.586 0.378 2.435 0.378 4.418 0 8-3.582 8-8z"></path>
            <path d="M25.938 9.062l-2.168 2.168c0.040 0.025 0.079 0.049 0.118 0.074 1.88 1.199 3.473 2.805 4.67 4.697-1.197 1.891-2.79 3.498-4.67 4.697-2.362 1.507-5.090 2.303-7.889 2.303-1.208 0-2.403-0.149-3.561-0.439l-2.403 2.403c1.866 0.671 3.873 1.036 5.964 1.036 6.978 0 13.027-4.064 16-10-1.407-2.81-3.504-5.2-6.062-6.938z"></path>
        </symbol>
        <symbol id="icon-plus" viewBox="0 0 32 32">
            <path d="M16.867 27.287a.859.859 0 0 1-.254.613.862.862 0 0 1-.945.188.862.862 0 0 1-.469-.469.859.859 0 0 1-.066-.332l.001-10.164-10.164.001a.864.864 0 0 1-.867-.867.864.864 0 0 1 .867-.867l10.164.001-.001-10.164A.864.864 0 0 1 16 4.36a.864.864 0 0 1 .867.867l-.001 10.164 10.164-.001a.864.864 0 0 1 .867.867.864.864 0 0 1-.867.867l-10.164-.001.001 10.164z"/>
        </symbol>
        <symbol id="icon-time" viewBox="0 0 32 32">
            <path d="M16 3c-2.571 0-5.085.762-7.222 2.191S4.974 8.65 3.99 11.025a13.004 13.004 0 0 0 2.818 14.167 13.002 13.002 0 0 0 20.001-1.97A13.003 13.003 0 0 0 29 16 13.018 13.018 0 0 0 16 3zm0 24a10.996 10.996 0 0 1-10.162-6.791A10.999 10.999 0 1 1 27 16a11.015 11.015 0 0 1-11 11zm8-11a.997.997 0 0 1-1 1h-7a.997.997 0 0 1-1-1V9a.997.997 0 0 1 1-1 .997.997 0 0 1 1 1v6h6a.997.997 0 0 1 1 1z"/>
        </symbol>
        <symbol id="icon-weight" viewBox="0 0 32 32">
            <path d="M15.984 4c-1.457 0-2.699.951-3.17 2.254H5.841a1.128 1.128 0 0 0 0 2.254h.458l-.317.563-4.508 7.889-.141.282v.282c0 3.099 2.536 5.635 5.635 5.635s5.635-2.536 5.635-5.635v-.282l-.141-.282-4.508-7.889-.317-.563h5.177a3.387 3.387 0 0 0 2.042 2.043v14.861h-3.381a1.128 1.128 0 0 0 0 2.254h9.016a1.127 1.127 0 1 0 0-2.254H17.11V10.549a3.422 3.422 0 0 0 2.043-2.042h5.176l-.317.563-4.508 7.889-.141.282v.282c0 3.099 2.536 5.635 5.635 5.635s5.635-2.536 5.635-5.635v-.282l-.141-.282-4.508-7.889-.317-.563h.457a1.128 1.128 0 0 0 0-2.254H19.15c-.47-1.303-1.711-2.254-3.169-2.254zm0 2.254c.635 0 1.127.494 1.127 1.127 0 .634-.494 1.127-1.127 1.127a1.113 1.113 0 0 1-1.127-1.127c0-.635.494-1.127 1.127-1.127zm-9.016 5.67 2.571 4.473h-5.14l2.57-4.473zm18.032 0 2.571 4.473h-5.14L25 11.924zM3.869 18.651h6.198c-.453 1.307-1.628 2.254-3.099 2.254s-2.646-.947-3.099-2.254zm18.032 0h6.198c-.453 1.307-1.629 2.254-3.099 2.254s-2.646-.947-3.099-2.254z"/>
        </symbol>
        <symbol id="icon_caret_right_stop" viewBox="0 0 32 32">
            <path stroke="transparent" d="M8.375 5.635l9.999 10.302c0.093 0.096 0.167 0.209 0.217 0.334s0.076 0.259 0.076 0.395-0.026 0.269-0.076 0.395c-0.050 0.125-0.124 0.239-0.217 0.334l-9.999 10.303c-0.188 0.193-0.442 0.302-0.707 0.302s-0.52-0.109-0.707-0.302c-0.188-0.193-0.293-0.456-0.293-0.729s0.105-0.536 0.293-0.729l9.293-9.574-9.293-9.574c-0.093-0.096-0.167-0.209-0.217-0.334s-0.076-0.259-0.076-0.394c0-0.135 0.026-0.269 0.076-0.394s0.124-0.239 0.217-0.334c0.093-0.096 0.203-0.172 0.325-0.223s0.251-0.078 0.383-0.078c0.131 0 0.261 0.027 0.383 0.078s0.232 0.128 0.325 0.223z"></path>
            <path stroke-linejoin="miter" stroke-linecap="round" stroke-miterlimit="4" stroke-width="2" d="M24 5.333v21.333"></path>
        </symbol>
        <symbol id="icon_location" viewBox="0 0 32 32">
            <path d="M16 8c-0.989 0-1.956 0.293-2.778 0.843s-1.463 1.33-1.842 2.244c-0.378 0.914-0.477 1.919-0.285 2.889s0.669 1.861 1.368 2.56c0.699 0.699 1.59 1.175 2.56 1.368s1.975 0.094 2.889-0.285c0.914-0.378 1.695-1.019 2.244-1.841s0.843-1.789 0.843-2.778c0-1.326-0.527-2.598-1.464-3.536s-2.209-1.464-3.536-1.464zM16 16c-0.593 0-1.173-0.176-1.667-0.506s-0.878-0.798-1.105-1.346c-0.227-0.548-0.286-1.151-0.171-1.733s0.401-1.117 0.821-1.536c0.42-0.42 0.954-0.705 1.536-0.821s1.185-0.056 1.733 0.171c0.548 0.227 1.017 0.612 1.346 1.105s0.506 1.073 0.506 1.667c0 0.796-0.316 1.559-0.879 2.121s-1.326 0.879-2.121 0.879zM16 2c-2.916 0.003-5.712 1.163-7.775 3.225s-3.222 4.858-3.225 7.775c0 3.925 1.814 8.085 5.25 12.031 1.544 1.783 3.282 3.389 5.181 4.788 0.168 0.118 0.369 0.181 0.574 0.181s0.406-0.063 0.574-0.181c1.896-1.399 3.63-3.005 5.171-4.788 3.431-3.946 5.25-8.106 5.25-12.031-0.003-2.916-1.163-5.712-3.225-7.775s-4.858-3.222-7.775-3.225zM16 27.75c-2.066-1.625-9-7.594-9-14.75 0-2.387 0.948-4.676 2.636-6.364s3.977-2.636 6.364-2.636c2.387 0 4.676 0.948 6.364 2.636s2.636 3.977 2.636 6.364c0 7.154-6.934 13.125-9 14.75z"></path>
        </symbol>
        <symbol id="icon_lock" viewBox="0 0 32 32">
            <path d="M16 14c-0.841 0-1.653 0.303-2.289 0.853s-1.052 1.31-1.174 2.142 0.061 1.679 0.513 2.388c0.452 0.709 1.144 1.231 1.949 1.471v2.146c0 0.265 0.105 0.52 0.293 0.707s0.442 0.293 0.707 0.293 0.52-0.105 0.707-0.293c0.188-0.187 0.293-0.442 0.293-0.707v-2.146c0.805-0.24 1.497-0.763 1.949-1.471s0.634-1.556 0.513-2.388-0.538-1.592-1.174-2.142c-0.636-0.55-1.448-0.853-2.289-0.853zM16 19c-0.297 0-0.587-0.088-0.833-0.253s-0.439-0.399-0.553-0.673c-0.113-0.274-0.143-0.576-0.085-0.867s0.201-0.558 0.411-0.768 0.477-0.353 0.768-0.411c0.291-0.058 0.593-0.028 0.867 0.085s0.508 0.306 0.673 0.553 0.253 0.537 0.253 0.833c0 0.398-0.158 0.779-0.439 1.061s-0.663 0.439-1.061 0.439zM26 10h-4v-3c0-1.591-0.632-3.117-1.757-4.243s-2.651-1.757-4.243-1.757c-1.591 0-3.117 0.632-4.243 1.757s-1.757 2.651-1.757 4.243v3h-4c-0.53 0-1.039 0.211-1.414 0.586s-0.586 0.884-0.586 1.414v14c0 0.53 0.211 1.039 0.586 1.414s0.884 0.586 1.414 0.586h20c0.53 0 1.039-0.211 1.414-0.586s0.586-0.884 0.586-1.414v-14c0-0.53-0.211-1.039-0.586-1.414s-0.884-0.586-1.414-0.586zM12 7c0-1.061 0.421-2.078 1.172-2.828s1.768-1.172 2.828-1.172c1.061 0 2.078 0.421 2.828 1.172s1.172 1.768 1.172 2.828v3h-8v-3zM26 26h-20v-14h20v14z"></path>
        </symbol>
        <symbol id="icon_caret_left_stop" viewBox="0 0 32 32">
            <path stroke="transparent" d="M23.625 27.698l-10-10.303c-0.093-0.096-0.167-0.209-0.217-0.334s-0.076-0.259-0.076-0.395 0.026-0.269 0.076-0.395c0.050-0.125 0.124-0.239 0.217-0.334l10-10.302c0.188-0.193 0.442-0.302 0.707-0.302s0.52 0.109 0.707 0.302c0.188 0.193 0.293 0.455 0.293 0.729s-0.105 0.536-0.293 0.729l-9.294 9.574 9.294 9.574c0.093 0.096 0.167 0.209 0.217 0.334s0.076 0.259 0.076 0.395c0 0.135-0.026 0.269-0.076 0.394s-0.124 0.239-0.217 0.335c-0.093 0.096-0.203 0.172-0.325 0.223s-0.252 0.079-0.383 0.079c-0.131 0-0.261-0.027-0.383-0.079s-0.232-0.128-0.325-0.223z"></path>
            <path stroke-linejoin="miter" stroke-linecap="round" stroke-miterlimit="4" stroke-width="2" d="M6.667 5.333v21.333"></path>
        </symbol>
        <symbol id="icon-facebook" viewBox="0 0 33 32">
            <path d="M19.096 27.636V17.021h3.631l.545-4.138h-4.176v-2.642c0-1.198.338-2.014 2.091-2.014l2.232-.001V4.525c-.386-.049-1.711-.162-3.253-.162-3.221 0-5.425 1.928-5.425 5.468v3.051h-3.642v4.138h3.642v10.615h4.356z"/>
        </symbol>
        <symbol id="icon-instagram" viewBox="0 0 33 32">
            <path d="M18.287 2.668c.973-.004 1.946.006 2.919.029l.259.009c.299.011.593.024.949.04 1.419.067 2.387.291 3.236.62a6.49 6.49 0 0 1 2.363 1.539 6.543 6.543 0 0 1 1.537 2.361c.329.849.553 1.819.62 3.237.016.355.029.651.04.949l.008.259c.024.972.034 1.945.031 2.917l.001.995v1.747c.003.973-.007 1.946-.031 2.919l-.008.259c-.011.299-.024.593-.04.949-.067 1.419-.293 2.387-.621 3.236a6.53 6.53 0 0 1-1.537 2.363 6.55 6.55 0 0 1-2.363 1.537c-.849.329-1.817.553-3.236.62-.356.016-.651.029-.949.04l-.259.008c-.973.024-1.946.034-2.919.031l-2.74.001c-.973.003-1.946-.007-2.919-.031l-.259-.008a75.25 75.25 0 0 1-.949-.04c-1.419-.067-2.387-.293-3.237-.621a6.513 6.513 0 0 1-2.361-1.537 6.534 6.534 0 0 1-1.539-2.363c-.329-.849-.553-1.817-.62-3.236-.015-.316-.028-.633-.04-.949l-.007-.259a101.46 101.46 0 0 1-.033-2.919v-2.741c-.004-.972.006-1.945.029-2.917l.009-.259c.011-.299.024-.595.04-.949.067-1.42.291-2.387.62-3.237a6.506 6.506 0 0 1 1.541-2.36 6.525 6.525 0 0 1 2.36-1.54c.851-.329 1.817-.553 3.237-.62l.949-.04.259-.007c.972-.025 1.945-.036 2.917-.033l2.741.001zm-1.371 6.667c-.883-.012-1.76.151-2.58.48s-1.566.818-2.195 1.439a6.666 6.666 0 0 0 4.775 11.413 6.67 6.67 0 0 0 4.714-11.381 6.666 6.666 0 0 0-4.714-1.951zm0 2.666a3.99 3.99 0 0 1 2.876 1.145A3.988 3.988 0 0 1 20.99 16a4.01 4.01 0 0 1-1.197 2.855A3.983 3.983 0 0 1 16.918 20a4.001 4.001 0 0 1-2.828-6.828A4.003 4.003 0 0 1 16.918 12l-.001.001zm7-4.666a1.669 1.669 0 0 0 0 3.332 1.663 1.663 0 0 0 1.179-2.844 1.665 1.665 0 0 0-1.179-.488v.003z"/>
        </symbol>
        <symbol id="icon-youtube" viewBox="0 0 32 32">
            <path d="m19.775 15.484-5.76-3.84a.953.953 0 0 0-.986-.047.954.954 0 0 0-.507.847v7.68c0 .174.047.344.136.494s.217.271.371.353a.965.965 0 0 0 .986-.047l5.76-3.84a.97.97 0 0 0 .428-.799.955.955 0 0 0-.428-.799zm-5.333 2.845v-4.086l3.07 2.04-3.07 2.046zm13.72-9.064a2.885 2.885 0 0 0-1.739-1.968c-4.114-1.589-10.661-1.574-11.021-1.574S8.495 5.709 4.381 7.297a2.868 2.868 0 0 0-1.739 1.968c-.311 1.198-.68 3.386-.68 7.018s.37 5.82.68 7.018a2.893 2.893 0 0 0 1.739 1.969c3.941 1.52 10.109 1.573 10.942 1.573h.158c.833 0 7.004-.053 10.942-1.573a2.875 2.875 0 0 0 1.739-1.969c.311-1.2.68-3.387.68-7.018s-.37-5.82-.68-7.018zm-1.859 13.56a.968.968 0 0 1-.572.659c-3.798 1.466-10.258 1.44-10.32 1.44h-.008c-.065 0-6.52.024-10.32-1.44-.141-.057-.266-.146-.365-.261s-.17-.251-.207-.398c-.292-1.096-.628-3.114-.628-6.542s.336-5.447.619-6.536a.966.966 0 0 1 .572-.664c3.662-1.415 9.799-1.44 10.302-1.44h.032c.065 0 6.526-.022 10.32 1.44.141.057.266.146.365.261s.17.251.207.398c.286 1.094.622 3.113.622 6.541s-.336 5.447-.619 6.536v.006z"/>
        </symbol>
        <symbol id="icon-bag" viewBox="0 0 32 32">
            <path fill="none" stroke="#1f4c43" style="stroke: var(--color1, #1f4c43)" stroke-linejoin="miter" stroke-linecap="butt" stroke-miterlimit="4" stroke-width="1.5" d="M4.989 27.407c1.6 1.927 4.576 1.927 10.531 1.927h0.96c5.955 0 8.932 0 10.532-1.927M4.989 27.407c-1.6-1.928-1.051-4.853 0.047-10.707 0.78-4.16 1.169-6.241 2.651-7.471M27.012 27.407c1.6-1.928 1.051-4.853-0.047-10.707-0.78-4.16-1.171-6.241-2.652-7.471M24.314 9.229c-1.48-1.229-3.599-1.229-7.832-1.229h-0.963c-4.233 0-6.351 0-7.832 1.229"></path>
            <path fill="none" stroke="#1f4c43" style="stroke: var(--color1, #1f4c43)" stroke-linejoin="miter" stroke-linecap="round" stroke-miterlimit="4" stroke-width="1.5" d="M20 14.666l1.333 8M12 14.666l-1.333 8M12 8v-1.333c0-1.061 0.421-2.078 1.172-2.828s1.768-1.172 2.828-1.172c1.061 0 2.078 0.421 2.828 1.172s1.172 1.768 1.172 2.828v1.333"></path>
        </symbol>
        <symbol id="icon-truck" viewBox="0 0 33 32">
            <path fill="#1f4c43" style="fill: var(--color1, #1f4c43)" d="M30.92 15.944l-3-7c-0.077-0.181-0.205-0.335-0.368-0.443s-0.355-0.166-0.552-0.167h-3v-2c0-0.265-0.105-0.52-0.293-0.707s-0.442-0.293-0.707-0.293h-19c-0.265 0-0.52 0.105-0.707 0.293s-0.293 0.442-0.293 0.707v17c0 0.265 0.105 0.52 0.293 0.707s0.442 0.293 0.707 0.293h2.14c0.23 0.847 0.733 1.595 1.431 2.129s1.551 0.822 2.429 0.822c0.878 0 1.732-0.289 2.429-0.822s1.2-1.281 1.431-2.129h6.28c0.23 0.847 0.733 1.595 1.431 2.129s1.551 0.822 2.429 0.822c0.878 0 1.732-0.289 2.429-0.822s1.2-1.281 1.431-2.129h2.14c0.265 0 0.52-0.105 0.707-0.293s0.293-0.442 0.293-0.707v-7c-0-0.134-0.027-0.267-0.080-0.39zM24 10.334h2.34l2.14 5h-4.48v-5zM10 25.334c-0.396 0-0.782-0.117-1.111-0.337s-0.585-0.532-0.737-0.898c-0.151-0.366-0.191-0.768-0.114-1.156s0.268-0.744 0.547-1.024 0.636-0.47 1.024-0.547c0.388-0.077 0.79-0.038 1.156 0.114s0.678 0.408 0.898 0.737c0.22 0.329 0.337 0.715 0.337 1.111 0 0.53-0.211 1.039-0.586 1.414s-0.884 0.586-1.414 0.586zM20.14 22.334h-6.28c-0.23-0.847-0.733-1.595-1.431-2.129s-1.551-0.822-2.429-0.822-1.732 0.289-2.429 0.822c-0.698 0.533-1.2 1.281-1.431 2.129h-1.14v-15h17v12.56c-0.455 0.264-0.854 0.616-1.173 1.035s-0.553 0.896-0.687 1.405zM24 25.334c-0.396 0-0.782-0.117-1.111-0.337s-0.585-0.532-0.737-0.898c-0.151-0.366-0.191-0.768-0.114-1.156s0.268-0.744 0.547-1.024 0.636-0.47 1.024-0.547c0.388-0.077 0.79-0.038 1.156 0.114s0.678 0.408 0.898 0.737c0.22 0.329 0.337 0.715 0.337 1.111 0 0.53-0.211 1.039-0.586 1.414s-0.884 0.586-1.414 0.586zM29 22.334h-1.14c-0.221-0.857-0.72-1.616-1.418-2.158s-1.557-0.839-2.442-0.842v-2h5v5z"></path>
        </symbol>
        <symbol id="icon-camera" viewBox="0 0 33 32">
            <path fill="#1f4c43" style="fill: var(--color1, #1f4c43)" d="M16.666 23.333c1.667 0 3.084-0.583 4.251-1.749s1.75-2.583 1.749-4.251c0-1.667-0.583-3.083-1.749-4.249s-2.583-1.75-4.251-1.751c-1.667 0-3.083 0.584-4.249 1.751s-1.75 2.584-1.751 4.249c0 1.667 0.584 3.084 1.751 4.251s2.584 1.75 4.249 1.749zM16.666 20.667c-0.933 0-1.722-0.322-2.367-0.967s-0.967-1.433-0.967-2.367c0-0.933 0.322-1.722 0.967-2.367s1.433-0.967 2.367-0.967c0.933 0 1.722 0.322 2.367 0.967s0.967 1.433 0.967 2.367c0 0.933-0.322 1.722-0.967 2.367s-1.433 0.967-2.367 0.967zM6 28c-0.733 0-1.361-0.261-1.883-0.783s-0.783-1.15-0.784-1.884v-16c0-0.733 0.261-1.361 0.784-1.883s1.15-0.783 1.883-0.784h4.2l2.467-2.667h8l2.467 2.667h4.2c0.733 0 1.361 0.261 1.884 0.784s0.784 1.15 0.783 1.883v16c0 0.733-0.261 1.361-0.783 1.884s-1.15 0.784-1.884 0.783h-21.333zM6 25.333h21.333v-16h-5.4l-2.433-2.667h-5.667l-2.433 2.667h-5.4v16z"></path>
        </symbol>
    </defs>
</svg>